<?xml version="1.0" standalone="no"?>
<!DOCTYPE svg PUBLIC "-//W3C//DTD SVG 20010904//EN"
 "http://www.w3.org/TR/2001/REC-SVG-20010904/DTD/svg10.dtd">
<svg version="1.0" xmlns="http://www.w3.org/2000/svg"
 width="260.000000pt" height="260.000000pt" viewBox="0 0 260.000000 260.000000"
 preserveAspectRatio="xMidYMid meet">
<metadata>
Created by potrace 1.11, written by Peter Selinger 2001-2013
</metadata>
<g transform="translate(0.000000,260.000000) scale(0.100000,-0.100000)"
fill="#000000" stroke="none">
<path d="M1085 2576 c-190 -36 -358 -104 -511 -206 -102 -68 -286 -253 -353
-355 -216 -330 -274 -741 -156 -1110 29 -90 133 -305 147 -305 5 0 35 20 66
44 94 72 253 171 384 240 117 62 396 181 404 174 2 -2 -31 -19 -74 -37 -215
-91 -475 -262 -666 -438 l-68 -62 32 -34 c17 -19 37 -43 45 -53 9 -12 17 -15
22 -9 5 6 42 49 81 97 163 194 377 366 617 493 50 27 88 46 85 43 -3 -3 -45
-33 -95 -66 -158 -106 -308 -252 -440 -427 -57 -74 -155 -230 -155 -242 1 -9
122 -101 143 -109 8 -3 18 10 26 33 31 91 146 309 222 424 61 92 114 155 203
244 67 66 144 136 171 155 l50 34 -40 -40 c-123 -121 -248 -331 -341 -571 -41
-106 -114 -343 -114 -369 0 -12 133 -65 196 -78 l31 -7 12 93 c31 227 99 526
162 703 27 78 114 265 122 265 2 0 -5 -39 -15 -88 -33 -165 -68 -498 -93 -899
l-7 -102 48 -7 c45 -6 203 2 213 12 7 7 -16 388 -34 574 -18 176 -40 333 -60
434 -8 38 -13 71 -11 73 8 8 107 -223 139 -322 56 -175 106 -395 137 -605 18
-125 17 -123 48 -116 15 4 65 21 110 38 l84 32 -6 40 c-13 77 -117 371 -177
495 -67 141 -164 291 -242 377 l-52 58 50 -34 c75 -53 233 -214 307 -314 84
-113 184 -288 239 -419 24 -56 44 -104 45 -106 2 -2 54 36 141 106 13 10 6 27
-52 115 -158 242 -342 432 -550 567 -105 69 -107 73 -10 21 125 -68 207 -119
302 -190 98 -72 296 -260 364 -345 24 -30 47 -55 50 -55 4 0 26 22 49 50 l41
49 -41 37 c-177 160 -362 287 -578 396 -85 43 -151 78 -147 78 3 0 57 -21 118
-46 223 -91 438 -209 608 -335 45 -33 85 -57 90 -52 21 21 103 198 129 278 46
144 63 254 62 405 -2 358 -126 655 -381 911 -180 181 -366 285 -625 351 -105
26 -395 34 -501 14z m327 -807 c172 -36 319 -174 364 -343 22 -84 18 -209 -11
-290 -35 -100 -39 -103 -119 -76 -36 12 -124 36 -197 54 l-131 34 -82 -18
c-44 -10 -137 -35 -205 -54 -143 -42 -133 -45 -171 61 -125 354 185 708 552
632z m148 -709 c8 -5 11 -10 5 -10 -5 0 -17 5 -25 10 -8 5 -10 10 -5 10 6 0
17 -5 25 -10z"/>
</g>
</svg>
