<svg id="0bb079ef-80a4-4abf-8dfb-f69695615529" data-name="Layer 1" 
    xmlns="http://www.w3.org/2000/svg" viewBox="0 0 500 232.89">
    <defs>
        <style>.\33 8c5942a-5c95-4449-bcbb-3849d301b2a9{fill:#fff;}</style>
    </defs>
    <title>mdh-solar-team-white</title>
    <g transform="scale(1)">
        <path class="38c5942a-5c95-4449-bcbb-3849d301b2a9" d="M14.57,172.84a0,0,0,0,1,0,0"/>
        <path class="38c5942a-5c95-4449-bcbb-3849d301b2a9" d="M148.88,143c-2.78-1.31-5.58-2.57-8.43-3.76C143.3,140.43,146.1,141.66,148.88,143Z"/>
        <path class="38c5942a-5c95-4449-bcbb-3849d301b2a9" d="M232.92,116.44a115.8,115.8,0,0,1-14,55.27c-1.17,2.22-2.43,4.36-3.76,6.46-1.35-1.07-2.71-2.12-4.08-3.15-.72-.56-1.47-1.1-2.19-1.63a.41.41,0,0,0-.12-.09c-2.61-1.91-5.27-3.8-8-5.62-.68-.47-1.33-.91-2-1.35-1.54-1-3.1-2.05-4.69-3s-3.31-2.05-5-3c-.21-.14-.4-.26-.61-.37l0,0c-1.54-.91-3.1-1.8-4.67-2.71l-.44-.23q-1.89-1.09-3.85-2.1c-.44-.26-.86-.49-1.31-.72l-.4-.21c-.91-.49-1.84-1-2.78-1.42l-.07,0a.58.58,0,0,1-.16-.09c-1.59-.82-3.22-1.63-4.85-2.43-.84-.4-1.68-.82-2.54-1.19q-1.89-.91-3.78-1.75-2.1-1-4.27-1.89l-2.1-.91c-1.33-.56-2.66-1.12-4-1.66-.09,0-.16-.07-.26-.09-.79-.33-1.61-.65-2.43-1q-2.63-1.05-5.32-2l-.56-.21c-2-.72-4-1.42-6-2.1a.7.7,0,0,0-.23-.09q-3.12-1.05-6.3-2c-.23-.09-.47-.16-.7-.23-2-.61-3.94-1.19-6-1.75l-.42-.12-.63-.19c-2.22-.63-4.48-1.21-6.74-1.8,2.36.47,4.69,1,7,1.49a.89.89,0,0,1,.23.07c2.31.51,4.62,1.05,6.91,1.63a.68.68,0,0,1,.21,0c1.84.47,3.66.93,5.46,1.42,1.19.33,2.36.65,3.55,1,3,.84,6,1.75,9,2.71,1.49.47,3,1,4.43,1.45a44.08,44.08,0,1,0-73.63,0c1.38-.47,2.78-.91,4.18-1.35a3.34,3.34,0,0,1,.63-.21l4.11-1.26c1.59-.49,3.2-1,4.81-1.4,1-.3,2.05-.58,3.1-.86,1.26-.37,2.54-.7,3.83-1,.75-.21,1.49-.4,2.24-.58,1.94-.49,3.87-1,5.83-1.38,2.66-.63,5.37-1.21,8.08-1.75a280.64,280.64,0,0,0-35.57,11.58,251.26,251.26,0,0,0-63.6,37q-2.07-3.22-3.92-6.58a116.46,116.46,0,1,1,218.36-56.41Z"/>
        <polyline class="38c5942a-5c95-4449-bcbb-3849d301b2a9" points="117.66 130.87 117.66 130.87 117.66 130.87 117.66 130.87 117.66 130.87 117.66 130.87 117.66 130.87 117.66 130.87 117.66 130.87 117.66 130.87"/>
        <path class="38c5942a-5c95-4449-bcbb-3849d301b2a9" d="M117.65,130.86c-5,6.86-9.5,16.24-13.49,27.54-6.7,18.93-11.9,43.2-15.36,69.57-.12.82-.12.93-.21,1.56a116.09,116.09,0,0,1-19.53-6.67c.61-2.5,1.24-5,1.91-7.42.3-1.19.63-2.36,1-3.5q2.1-7.39,4.5-14.4c.4-1.17.79-2.31,1.21-3.45.82-2.26,1.66-4.53,2.54-6.74q.63-1.65,1.33-3.29c.44-1.1.89-2.17,1.35-3.24.91-2.12,1.87-4.22,2.85-6.3l1.47-3.06c.51-1,1-2,1.52-3,1-2,2.05-3.9,3.13-5.79.54-1,1.07-1.87,1.63-2.8s1.1-1.82,1.66-2.71c.42-.7.86-1.4,1.31-2.08.89-1.38,1.77-2.71,2.71-4,.58-.86,1.19-1.7,1.8-2.52q2.38-3.26,4.9-6.16c.61-.72,1.21-1.42,1.84-2.12a1.32,1.32,0,0,0,.16-.19c1.24-1.33,2.47-2.64,3.73-3.85.58-.58,1.17-1.14,1.77-1.7a1.52,1.52,0,0,1,.21-.19c.63-.58,1.26-1.14,1.91-1.7S116.93,131.44,117.65,130.86Z"/>
        <path class="38c5942a-5c95-4449-bcbb-3849d301b2a9" d="M128.9,232.22a109.88,109.88,0,0,1-12.44.68c-3.38,0-6.72-.14-10-.44,0-1.21.09-3.64.14-4.48.14-2.64.28-5.25.42-7.82,0-.56.07-1.12.09-1.68.14-2.61.3-5.2.47-7.77,1.21-18.86,2.8-36.13,4.69-50.5.09-.75.21-1.49.3-2.24.79-5.93,1.66-11.32,2.59-16.08l.35-1.75c.21-1.1.44-2.15.65-3.15q.21-.95.42-1.82c.12-.49.23-1,.35-1.45.23-1,.49-1.94.75-2.85,2,7.21,3.83,17.25,5.44,29.34,2.47,18.67,4.39,42.22,5.67,67.78C128.81,228.79,128.85,231.42,128.9,232.22Z"/>
        <path class="38c5942a-5c95-4449-bcbb-3849d301b2a9" d="M117.65,130.86c-1.14.65-2.26,1.33-3.38,2a6.68,6.68,0,0,0-.61.4c-.75.44-1.49.93-2.24,1.45-2.66,1.75-5.23,3.66-7.75,5.69l0,0c-.86.65-1.7,1.35-2.52,2.08-1.19,1-2.36,2-3.52,3.1l-.07,0c-1.12,1-2.22,2.05-3.29,3.13l-.07.07a.73.73,0,0,0-.12.14c-.44.4-.89.84-1.31,1.28s-1,1-1.42,1.47l-.7.72c-.51.56-1.05,1.1-1.54,1.68l-.28.3c-.28.28-.54.58-.79.89-.86.93-1.7,1.91-2.52,2.89S84,160,83.3,160.87c-.42.51-.84,1.05-1.26,1.59-.7.89-1.4,1.8-2.1,2.71-.86,1.14-1.73,2.33-2.59,3.52a1.27,1.27,0,0,1-.16.21c-.12.19-.23.35-.37.54-.7,1-1.42,2-2.1,3.06-.84,1.24-1.68,2.5-2.47,3.76a.08.08,0,0,1,0,0c-.84,1.28-1.63,2.59-2.43,3.92-.3.51-.61,1-.89,1.49s-.61,1-.89,1.52-.75,1.28-1.12,2c-.58,1-1.14,2.05-1.73,3.1-.75,1.38-1.47,2.75-2.17,4.15s-1.42,2.8-2.1,4.22c-.49,1-1,2-1.42,3-.7,1.52-1.38,3-2.05,4.55,0,.07-.07.16-.09.23-.44,1-.89,2.05-1.31,3.08-.93,2.22-1.82,4.48-2.68,6.74a116.11,116.11,0,0,1-13.16-9.9c12.07-21.63,28.1-40.91,47.49-55.69A151.14,151.14,0,0,1,117.65,130.86Z"/>
        <path class="38c5942a-5c95-4449-bcbb-3849d301b2a9" d="M117.62,130.87h0a193.26,193.26,0,0,0-86.84,64.48c-2.61-2.82-5.06-5.79-7.37-8.85,1.38-1.38,2.8-2.73,4.22-4.06.28-.26.54-.51.82-.75q4.48-4.17,9.27-8.1a1.1,1.1,0,0,1,.28-.21c.19-.16.37-.3.56-.44s.33-.28.49-.4l.49-.42c1.14-.93,2.29-1.82,3.45-2.73,1.4-1.1,2.8-2.15,4.22-3.2a1.79,1.79,0,0,1,.3-.21q1.12-.84,2.24-1.61l.37-.28c1.21-.86,2.45-1.73,3.69-2.57s2.31-1.56,3.5-2.33c.44-.3.89-.58,1.33-.86,1-.63,2-1.26,2.94-1.87.77-.49,1.56-1,2.36-1.45s1.42-.89,2.15-1.31q4.66-2.77,9.52-5.32c1-.56,2.08-1.1,3.13-1.63,1.59-.82,3.2-1.61,4.81-2.4.91-.44,1.84-.89,2.78-1.31.77-.37,1.54-.75,2.31-1.1l2.54-1.14c1.56-.7,3.15-1.38,4.74-2l.16-.07a.33.33,0,0,1,.14,0c.93-.4,1.84-.77,2.78-1.12a1.62,1.62,0,0,1,.3-.12,15.9,15.9,0,0,1,1.63-.65,1,1,0,0,1,.23-.09c1.07-.44,2.15-.86,3.24-1.26.35-.14.72-.28,1.1-.4,1.42-.54,2.85-1.05,4.29-1.56.54-.19,1.07-.37,1.61-.54a3.39,3.39,0,0,0,.44-.16c1.9-.65,3.79-1.28,5.74-1.88Z"/>
        <path class="38c5942a-5c95-4449-bcbb-3849d301b2a9" d="M146.64,228.95v0a.09.09,0,0,0,0-.07c0-.07,0-.19,0-.23a.1.1,0,0,0,0-.07q-.84-6.55-1.87-12.91c-.49-3.24-1-6.44-1.61-9.62-.12-.61-.21-1.19-.33-1.8-.28-1.49-.54-3-.84-4.41s-.61-3.06-.91-4.57-.61-2.87-.91-4.29c-.42-1.87-.84-3.73-1.26-5.55-.26-1.12-.54-2.24-.82-3.34-.42-1.8-.89-3.55-1.35-5.3-.51-2-1.07-4-1.63-6a.55.55,0,0,1,0-.19c-.3-1-.58-2-.89-2.94q-.28-1.05-.63-2-.49-1.68-1.05-3.29c-.42-1.35-.89-2.66-1.33-3.94-.3-.84-.61-1.68-.91-2.5-.75-2.05-1.52-4-2.29-5.9-.3-.7-.58-1.4-.89-2.08-.72-1.68-1.45-3.31-2.22-4.88,0,0,0-.07,0-.12-.35-.75-.72-1.47-1.1-2.17s-.75-1.49-1.14-2.19-.79-1.4-1.19-2.08-.63-1.05-.93-1.56c-.19-.33-.4-.63-.58-.93-.3-.47-.61-.93-.91-1.38-.4-.61-.82-1.21-1.24-1.77,7.75,6.16,14.84,14.4,21.21,24.23h0c11.62,18,20.79,41.22,27.1,66.77A114.71,114.71,0,0,1,146.64,228.95Z"/>
        <path class="38c5942a-5c95-4449-bcbb-3849d301b2a9" d="M194.34,203a113.86,113.86,0,0,1-12.86,10c-.44-1.12-.86-2.22-1.33-3.34s-.89-2.19-1.35-3.29c-.91-2.15-1.84-4.29-2.82-6.39,0,0,0-.07,0-.09-1-2.15-2-4.27-3.06-6.35-.51-1.05-1.05-2.08-1.61-3.1-1.24-2.4-2.52-4.74-3.85-7-.63-1.1-1.28-2.19-1.94-3.27-.86-1.47-1.75-2.89-2.68-4.32-.65-1.05-1.33-2.08-2-3.1q-.35-.56-.77-1.12c-.72-1.07-1.45-2.12-2.19-3.15-.86-1.21-1.73-2.38-2.61-3.55a3.32,3.32,0,0,0-.26-.35c-.79-1.05-1.61-2.08-2.45-3.1s-1.75-2.19-2.66-3.24a.31.31,0,0,0-.14-.16c-1.84-2.17-3.73-4.27-5.69-6.3-1-1.05-2-2.08-3-3.08s-2.08-2-3.13-3c-.86-.82-1.75-1.59-2.64-2.36-.26-.23-.54-.47-.82-.7-1-.84-2-1.68-3-2.45s-2-1.59-3-2.31c-1.31-1-2.66-2-4-2.87-1-.68-2-1.31-3-1.94-.12-.07-.23-.16-.37-.23-1.12-.7-2.24-1.38-3.38-2a150.66,150.66,0,0,1,30,17.88C166.61,163.2,182.37,181.94,194.34,203Z"/>
        <path class="38c5942a-5c95-4449-bcbb-3849d301b2a9" d="M210.49,185.14a111.65,111.65,0,0,1-7.12,8.8c-1.42-1.84-2.89-3.66-4.39-5.46-1-1.24-2.08-2.45-3.13-3.64-1.89-2.19-3.87-4.34-5.9-6.46-.61-.63-1.24-1.28-1.87-1.91s-1.24-1.28-1.87-1.89l-.44-.44c-1.38-1.35-2.75-2.66-4.15-4-.28-.26-.58-.51-.86-.79-1.26-1.14-2.52-2.26-3.83-3.41-.35-.3-.72-.61-1.07-.93-1.52-1.31-3.08-2.57-4.64-3.83s-3.41-2.71-5.16-4c-1.49-1.1-3-2.19-4.53-3.27q-1.86-1.33-3.78-2.59l-.09-.07c-1.24-.84-2.5-1.66-3.76-2.43s-2.59-1.66-3.92-2.43-2.52-1.52-3.8-2.24l-.12-.07c-1.24-.7-2.5-1.4-3.76-2.08s-2.61-1.4-3.94-2.08c-1-.51-2-1-3-1.47a191.22,191.22,0,0,0-17.74-7.61c2.1.65,4.2,1.33,6.25,2.05.44.14.89.3,1.33.47q2.87,1,5.67,2c.28.09.56.21.84.33,1.68.63,3.36,1.28,5,2,.82.33,1.63.65,2.45,1,.42.16.84.35,1.24.54,2.85,1.19,5.65,2.45,8.43,3.76,1,.44,1.91.89,2.87,1.35,1.33.65,2.68,1.31,4,2,.79.37,1.59.79,2.38,1.21,1.07.54,2.15,1.12,3.22,1.7,0,0,.07,0,.09,0,.93.49,1.84,1,2.75,1.52,1.28.7,2.57,1.42,3.83,2.19.82.47,1.63,1,2.45,1.45,1.05.61,2.08,1.24,3.1,1.89.82.49,1.63,1,2.43,1.52,1.49,1,3,1.91,4.41,2.89,1.82,1.24,3.64,2.5,5.41,3.78s3.55,2.57,5.27,3.9c1.49,1.12,3,2.29,4.41,3.45.42.33.86.68,1.28,1.05a3.17,3.17,0,0,0,.33.26c.82.68,1.63,1.33,2.43,2q.7.56,1.4,1.19l1.45,1.26.16.14c.93.79,1.84,1.61,2.73,2.43.37.33.72.65,1.07,1C207.76,182.53,209.14,183.84,210.49,185.14Z"/>
        <path class="38c5942a-5c95-4449-bcbb-3849d301b2a9" d="M148.88,143c-2.78-1.31-5.58-2.57-8.43-3.76C143.3,140.43,146.1,141.66,148.88,143Z"/>
        <path class="38c5942a-5c95-4449-bcbb-3849d301b2a9" d="M170.47,154.48c-.82-.49-1.63-1-2.45-1.45.37.19.72.4,1.07.61S170,154.17,170.47,154.48Z"/>
        <path class="38c5942a-5c95-4449-bcbb-3849d301b2a9" d="M148.88,143c-2.78-1.31-5.58-2.57-8.43-3.76C143.3,140.43,146.1,141.66,148.88,143Z"/>
        <path class="38c5942a-5c95-4449-bcbb-3849d301b2a9" d="M170.47,154.48c-.82-.49-1.63-1-2.45-1.45.37.19.72.4,1.07.61S170,154.17,170.47,154.48Z"/>
        <path class="38c5942a-5c95-4449-bcbb-3849d301b2a9" d="M117.62,130.86h0Z"/>
        <path class="38c5942a-5c95-4449-bcbb-3849d301b2a9" d="M330.15,130.82l.61-56.35-.2-.2-16.07,56.55H301.77L285.7,74.26l-.2.2.61,56.35h-17.7V55.55h24.72l15,49.53h.2L323,55.55h24.82v75.27Z"/>
        <path class="38c5942a-5c95-4449-bcbb-3849d301b2a9" d="M386.8,130.82H360.46V55.55h24.92c13.63,0,24.71,2.24,33.26,14,4.88,6.81,6.92,15.05,6.92,23.39C425.55,117.7,411.41,130.82,386.8,130.82ZM388,72.43h-8.34v41.5h8.24c13.12,0,18.41-8.44,18.41-20.65C406.33,81.28,400.84,72.43,388,72.43Z"/>
        <path class="38c5942a-5c95-4449-bcbb-3849d301b2a9" d="M480.78,130.82V100.71H456.16v30.11H436.94V55.55h19.22V83.82h24.62V55.55H500v75.27Z"/>
        <path class="38c5942a-5c95-4449-bcbb-3849d301b2a9" d="M276.78,177.34a7.51,7.51,0,0,1-7.76-7.81v-.28h3.23c0,2.91,1.43,5.17,4.53,5.17,2.86,0,4.71-1.62,4.71-4.53,0-6.7-11.74-3.6-11.74-12.06a6.87,6.87,0,0,1,7.21-7,6.79,6.79,0,0,1,6.88,6.88h-3.23c-.14-2.17-1.48-4-3.79-4a3.73,3.73,0,0,0-3.84,3.79c0,5.78,11.74,2.77,11.74,12.11C284.73,174.48,281.54,177.34,276.78,177.34Z"/>
        <path class="38c5942a-5c95-4449-bcbb-3849d301b2a9" d="M300.81,177.34a13.26,13.26,0,1,1,13.26-13.26A13.29,13.29,0,0,1,300.81,177.34Zm0-23.61c-5.73,0-10,4.9-10,10.49a10.14,10.14,0,0,0,10,10.21c5.82,0,10-4.81,10-10.49A10.17,10.17,0,0,0,300.86,153.73Z"/>
        <path class="38c5942a-5c95-4449-bcbb-3849d301b2a9" d="M318.85,176.74V142.55h3.23v34.19Z"/>
        <path class="38c5942a-5c95-4449-bcbb-3849d301b2a9" d="M350.41,176.74v-4.44h-.09a11.59,11.59,0,0,1-9.84,5,13.26,13.26,0,1,1,0-26.52,11.31,11.31,0,0,1,9.84,5.08h.09v-4.44h3.23v25.27Zm-9.93-23a10.35,10.35,0,1,0,10.12,10.4A10.24,10.24,0,0,0,340.48,153.73Z"/>
        <path class="38c5942a-5c95-4449-bcbb-3849d301b2a9" d="M362.63,162v14.79h-3.23V151.47h3.23v3.65h.09c1.39-3.24,3.84-4.07,7.12-4.3v3.42C365.4,154.61,362.63,157.43,362.63,162Z"/>
        <path class="38c5942a-5c95-4449-bcbb-3849d301b2a9" d="M392,154.38v22.36h-3.23V154.38h-5.31v-2.91h5.31v-8.92H392v8.92h6.05v2.91Z"/>
        <path class="38c5942a-5c95-4449-bcbb-3849d301b2a9" d="M426.46,165.29h-23a10,10,0,0,0,9.8,9.15,9.55,9.55,0,0,0,9.06-6h3.42a13.19,13.19,0,1,1-12.48-17.65,13.47,13.47,0,0,1,13.26,13.54C426.5,164.68,426.46,165,426.46,165.29Zm-13.17-11.55a10,10,0,0,0-9.84,8.64h19.73A10,10,0,0,0,413.29,153.73Z"/>
        <path class="38c5942a-5c95-4449-bcbb-3849d301b2a9" d="M453.73,176.74v-4.44h-.09a11.59,11.59,0,0,1-9.84,5,13.26,13.26,0,1,1,0-26.52,11.31,11.31,0,0,1,9.84,5.08h.09v-4.44H457v25.27Zm-9.93-23a10.35,10.35,0,1,0,10.12,10.4A10.24,10.24,0,0,0,443.8,153.73Z"/>
        <path class="38c5942a-5c95-4449-bcbb-3849d301b2a9" d="M496.77,176.74V162.1c0-4.48-1.89-8.36-6.88-8.36S483,157.61,483,162.1v14.65h-3.24V162.1c0-4.48-1.89-8.36-6.88-8.36S466,157.61,466,162.1v14.65h-3.23V151.47H466v2.91a7.91,7.91,0,0,1,6.88-3.56,9.45,9.45,0,0,1,8.5,4.85,9.64,9.64,0,0,1,8.5-4.85c6.47,0,10.12,4.71,10.12,10.9v15Z"/>
    </g>
</svg>