<svg id="748a4c4c-2f59-45ce-bac0-c874b8ff7db4" data-name="Layer 1" xmlns="http://www.w3.org/2000/svg" viewBox="0 0 2659.43 384"><title>Checkerboard_pattern</title><path d="M1379.43,0h128l-25.86,64-25.86,64h-128l-25.86,64L1276,256h128l-25.86,64-25.86,64h128l25.86-64L1532,256h128l-25.86,64-25.86,64h128l25.86-64L1788,256h128l-25.86,64-25.86,64h128l25.86-64L2044,256h128l-25.86,64-25.86,64h128l25.86-64L2300,256h128l-25.86,64-25.86,64h128l25.86-64L2556,256H2428l25.86-64,25.86-64h128l25.86-64,25.86-64h-128m-128,0h128l-25.86,64-25.86,64h-128l-25.86,64L2300,256H2172l25.86-64,25.86-64h-128l-25.86,64L2044,256H1916l25.86-64,25.86-64h-128l-25.86,64L1788,256H1660l25.86-64,25.86-64h-128l-25.86,64L1532,256H1404l25.86-64,25.86-64h128l25.86-64,25.86-64h-128"/><path d="M1635.43,0h128l-25.86,64-25.86,64h128l25.86-64,25.86-64h128l-25.86,64-25.86,64h128l25.86-64,25.86-64h128l-25.86,64-25.86,64h128l25.86-64,25.86-64h-128m-384,0h-128m384,0h-128"/><path d="M103.43,0h128L205.57,64l-25.86,64h-128L25.86,192,0,256H128l-25.86,64L76.28,384h128l25.86-64L256,256H384l-25.86,64-25.86,64h128l25.86-64L512,256H640l-25.86,64-25.86,64h128l25.86-64L768,256H896l-25.86,64-25.86,64h128l25.86-64L1024,256h128l-25.86,64-25.86,64h128l25.86-64L1280,256H1152l25.86-64,25.86-64h128l25.86-64,25.86-64h-128m-128,0h128l-25.86,64-25.86,64h-128l-25.86,64L1024,256H896l25.86-64,25.86-64h-128l-25.86,64L768,256H640l25.86-64,25.86-64h-128l-25.86,64L512,256H384l25.86-64,25.86-64h-128l-25.86,64L256,256H128l25.86-64,25.86-64h128l25.86-64L359.43,0h-128"/><path d="M359.43,0h128L461.57,64l-25.86,64h128l25.86-64L615.43,0h128L717.57,64l-25.86,64h128l25.86-64L871.43,0h128L973.57,64l-25.86,64h128l25.86-64,25.86-64h-128m-384,0h-128m384,0h-128"/></svg>