<svg id="b0b9fe95-0c7d-4848-8e8c-ca073ae982a5" data-name="Layer 1" xmlns="http://www.w3.org/2000/svg" viewBox="0 0 392.76 202.02"><defs><style>.cb479722-724c-4b2b-b677-736628765439{fill:#bcbf00;}.\32 905e0a9-bfe4-4ae9-952f-f7fa1b023e98{fill:#1f5d4e;}.c5002f6f-602d-4535-9654-4520773a6946{fill:#155191;}</style></defs><title>abic</title><path class="cb479722-724c-4b2b-b677-736628765439" d="M201.84,0h.37a6.46,6.46,0,0,0-.05,1.57q0,15,0,30c0,1-.09,1,.94.95a28.47,28.47,0,1,1,.42,56.93c-1.36,0-1.36,0-1.36,1.36q0,55,0,109.91c0,.43,0,.86,0,1.3-.46,0-.93,0-1.39,0H0V.18c.49,0,1,0,1.48,0H201.31a.74.74,0,0,0,.52-.14M104.45,119.12H128.2c.66,0,.68,0,.68-.67q0-6.12,0-12.24c0-.06,0-.12,0-.19,0-.36-.15-.5-.5-.49H104.45c0-.43,0-.86,0-1.3q0-30.18,0-60.37c0-.28,0-.56,0-.83s-.13-.52-.49-.51H88.81c-1.37,0-1.23-.12-1.23,1.25q0,30.23,0,60.46c0,.43,0,.86,0,1.3H68.06c-1.54,0-1.54,0-1.54-1.5V5.55c0-.25,0-.5,0-.74,0-.82,0-.82-.82-.83H50.86C49.53,4,49.7,3.89,49.7,5.1q0,56.43,0,112.86c0,1.33-.16,1.16,1.2,1.16H87.53c0,.4,0,.8,0,1.2q0,18,0,36.08c0,1.42-.15,1.27,1.31,1.27h76.61c.25,0,.5,0,.74,0,.41,0,.55-.19.53-.57,0-.22,0-.43,0-.65,0-3.65,0-7.3,0-10.94,0-1.62.26-1.48-1.48-1.48H105.74c-1.5,0-1.32.12-1.32-1.36q0-11.22,0-22.44c0-.37,0-.74,0-1.11m13.85,63.23c-.51.4-1,.73-1.36,1.09-2.15,1.9-2.21,5.83.24,7.57a6.1,6.1,0,0,0,5,.9,6.28,6.28,0,0,0,3.47-2.19c.29-.34.49-.38.81,0s.87.87,1.32,1.31.82.93,1.56.8a7,7,0,0,0,1.84-.16c-.27-.28-.47-.51-.69-.72l-2.72-2.65c-.6-.58-.61-.59-.29-1.31a9.9,9.9,0,0,0,.85-3.77c0-1.83.29-1.51-1.54-1.54-.63,0-.64,0-.65.7,0,.83,0,1.67,0,2.5a3.32,3.32,0,0,1-.36,1.5l-3.74-4a7.48,7.48,0,0,0,1.9-1.2,3.54,3.54,0,0,0-1.39-6,5.63,5.63,0,0,0-4.33.3,3.71,3.71,0,0,0-.85,6.13c.27.25.56.48.93.78M94.42,193.76c0,.63,0,1.15,0,1.67s.18.55.52.63a12,12,0,0,0,5.23.2,4.41,4.41,0,0,0,3.58-3.35,9.78,9.78,0,0,0,.32-2.56q0-5,0-10.1c0-.18,0-.37,0-.56s-.12-.38-.33-.35c-.6.1-1.29-.36-1.79.32-.09.12-.22.06-.33,0s-.51-.23-.77-.32a5.47,5.47,0,0,0-7.07,2.86,8.12,8.12,0,0,0,.09,6.83,4.09,4.09,0,0,0,3.44,2.49,5.55,5.55,0,0,0,3.73-.77c.25-.15.45-.44.87-.37a6.45,6.45,0,0,1,0,1.73,2.56,2.56,0,0,1-2.2,2.31,7.32,7.32,0,0,1-1.93.09,21.1,21.1,0,0,1-3.3-.74m95.49-3c.09,1.07.09,1.07,1.14,1.07h.28c.72,0,.73,0,.75-.7,0-.22,0-.43,0-.65,0-4.85,0-9.7,0-14.55,0-1.66.3-1.41-1.49-1.45-.49,0-.64.17-.64.65,0,1.3,0,2.59,0,3.89,0,.23.08.49-.12.73-.35-.13-.68-.27-1-.38a5.42,5.42,0,0,0-7.14,3.35,9,9,0,0,0,0,6.35,4.37,4.37,0,0,0,4.84,3,5.56,5.56,0,0,0,2.5-.89,2,2,0,0,1,.86-.46m-131-10.32a1.24,1.24,0,0,1-.18-.94c0-1.21,0-2.41,0-3.62,0-1.6.33-1.38-1.53-1.41-.46,0-.62.18-.58.61,0,.12,0,.25,0,.37q0,7.7,0,15.39c0,.22,0,.43,0,.65s.07.29.19.28c.63-.05,1.34.39,1.86-.3.13-.17.26-.11.4-.05.31.13.62.29.94.39,3.11,1,5.7-.2,6.88-3a8.91,8.91,0,0,0-.08-7.13,4,4,0,0,0-3.45-2.6,5.41,5.41,0,0,0-3.55.81l-.93.56m-8.49,10.32c0,.15,0,.24,0,.33.06.72.06.72.81.74h.28c1.08,0,1,.05,1-1v-15.3c0-.19,0-.37,0-.56,0-.36-.17-.46-.51-.49-1.58-.13-1.58-.14-1.58,1.46v3.8a3.74,3.74,0,0,1-1.13-.36c-3-1-6,.14-7.18,3.27a9,9,0,0,0-.06,6.18A4.47,4.47,0,0,0,47.38,192a5.75,5.75,0,0,0,2.13-.86c.25-.15.45-.43.87-.44M80.9,188.8c-.39,0-.56.21-.77.32a7.66,7.66,0,0,1-4.07,1,3.92,3.92,0,0,1-4-3.63c-.1-.7-.06-.74.63-.76h.74c2.35,0,4.7,0,7,0,.46,0,.69-.1.65-.61s0-1.24-.09-1.85a4.58,4.58,0,0,0-4-4.25,8.48,8.48,0,0,0-1.48-.06,5.53,5.53,0,0,0-5.3,3.9,8.77,8.77,0,0,0-.19,4.66A5.22,5.22,0,0,0,74,191.72a9.68,9.68,0,0,0,6.52-.57.53.53,0,0,0,.38-.55c0-.58,0-1.17,0-1.8m80.42,1.75c.21,1.25.21,1.25,1.47,1.23h.28c.34,0,.52-.13.51-.49s0-.43,0-.65q0-5.1,0-10.2c0-1.2.18-1.12-1.16-1.12-1.18,0-1,0-1,1,0,2.5,0,5,0,7.51,0,.33.1.69-.25.93a5.56,5.56,0,0,1-4,1.25,2,2,0,0,1-1.74-1.56,6.72,6.72,0,0,1-.19-1.84c0-2,0-4,0-5.93,0-1.55.34-1.36-1.45-1.37-.64,0-.66,0-.66.68q0,3.75,0,7.51a8.45,8.45,0,0,0,.07,1,3.75,3.75,0,0,0,3.91,3.55,5.33,5.33,0,0,0,3.08-.84l1.09-.69m8.49-10.07c-.09-1.16-.09-1.16-1.22-1.16h-.09c-.85,0-.86,0-.86.86q0,5.33,0,10.67c0,.19,0,.37,0,.56s.05.34.24.34a3.15,3.15,0,0,0,1.72-.08c.34-.2.11-.74.15-1.13,0-.15,0-.31,0-.46,0-2.29,0-4.57,0-6.86,0-.3-.1-.63.21-.86a5.33,5.33,0,0,1,4.13-1.27,1.85,1.85,0,0,1,1.56,1.4,5.65,5.65,0,0,1,.21,1.56c0,2.16,0,4.33,0,6.49,0,1.38-.22,1.25,1.32,1.25.79,0,.8,0,.81-.84,0-2.44,0-4.89,0-7.33a8.34,8.34,0,0,0-.12-1.38,3.65,3.65,0,0,0-3.61-3.23,6,6,0,0,0-3.52.95,2.83,2.83,0,0,1-.95.53m-139.48,0c-.26-1.2-.26-1.2-1.52-1.17h-.18c-.44,0-.59.15-.58.59q0,5.61,0,11.21c0,.46.12.71.62.66.12,0,.25,0,.37,0,1.26,0,1.17.12,1.17-1.12,0-2.47,0-4.94,0-7.41,0-.33-.1-.69.25-.93a5.41,5.41,0,0,1,4-1.25,1.89,1.89,0,0,1,1.76,1.64,9.68,9.68,0,0,1,.19,1.93c0,1.95,0,3.89,0,5.84,0,1.47-.23,1.3,1.34,1.31.74,0,.75,0,.75-.78q0-3.43,0-6.85c0-.49,0-1,0-1.48a3.68,3.68,0,0,0-3-3.57,5.54,5.54,0,0,0-4,.73l-1.09.68m-21,2.92q0,3.71,0,7.41c0,.94,0,.95,1,.95h8.34c1.34,0,1.19.17,1.2-1.27,0-.72,0-.73-.7-.74H12.28c-.67,0-.68,0-.71-.66,0-.22,0-.43,0-.65,0-4,0-7.91,0-11.86,0-1.64.24-1.39-1.43-1.41-.8,0-.81,0-.82.82q0,3.71,0,7.41m131.46,0q0,3.75,0,7.51c0,.8,0,.81.83.81,2.75,0,5.5,0,8.25,0,1.52,0,1.36.34,1.37-1.47,0-.06,0-.12,0-.19,0-.22-.1-.35-.33-.35h-6.95c-1,0-.94.09-.94-1v-.55c0-3.89,0-7.78,0-11.68,0-1.57.27-1.37-1.46-1.38-.75,0-.76,0-.76.78q0,3.75,0,7.51M86.5,181a3.22,3.22,0,0,1-.08-.38c-.07-1.3-.07-1.3-1.39-1.27-.76,0-.77,0-.77.77q0,5.09,0,10.19c0,1.64,0,1.64,1.62,1.5H86c.31,0,.44-.16.44-.46s0-.43,0-.65q0-3.52,0-7c0-.33,0-.67.3-.91a5.52,5.52,0,0,1,3.4-1.28,6.42,6.42,0,0,1,1.47.14c.31.08.47,0,.46-.37s0-.86,0-1.3-.14-.49-.49-.53A5.49,5.49,0,0,0,88,180c-.47.29-.93.59-1.48.94m-62.55,4.64V180.8c0-1.59-.07-1.65-1.65-1.47-.31,0-.44.15-.43.46s0,.43,0,.65c0,3.33,0,6.67,0,10,0,1.5-.28,1.32,1.41,1.33.64,0,.66,0,.66-.69,0-1.82,0-3.64,0-5.46m-1-8.31h.28c.92,0,.92,0,.93-.89v-.18c0-1.25.15-1.14-1.14-1.13-1.46,0-1.24-.19-1.25,1.29,0,.91,0,.91.91.91h.28"/><path class="2905e0a9-bfe4-4ae9-952f-f7fa1b023e98" d="M87.53,105.52c0-.43,0-.86,0-1.3q0-30.23,0-60.46c0-1.37-.14-1.25,1.23-1.25h15.12c.36,0,.5.17.49.51s0,.56,0,.83q0,30.18,0,60.37c0,.43,0,.86,0,1.3s0,.68,0,1q0,5.41,0,10.82c0,.58,0,1.17,0,1.75,0,.37,0,.74,0,1.11q0,11.22,0,22.44c0,1.48-.18,1.36,1.32,1.36h59.54c1.74,0,1.47-.13,1.48,1.48,0,3.65,0,7.3,0,10.94,0,.22,0,.43,0,.65,0,.38-.12.59-.53.57-.25,0-.49,0-.74,0H88.88c-1.46,0-1.31.14-1.31-1.27q0-18,0-36.08c0-.4,0-.8,0-1.2s0-.68,0-1q0-5.32,0-10.64c0-.65,0-1.29,0-1.94"/><path class="cb479722-724c-4b2b-b677-736628765439" d="M219.52,113.82A28.47,28.47,0,1,1,248,142.34a28.52,28.52,0,0,1-28.47-28.52M266.88,130c-.11-.33-.19-.62-.3-.91L255.74,98.48c-.91-2.56-1.82-5.12-2.71-7.69-.15-.42-.31-.66-.83-.66-2.78,0-5.56,0-8.34,0a.66.66,0,0,0-.74.52c-.29.88-.62,1.75-.93,2.62q-6.4,17.93-12.79,35.86c-.11.31-.33.6-.22,1a1.29,1.29,0,0,0,.73.09h7c.83,0,.84,0,1.1-.78l2.21-6.68c.26-.8.27-.8,1.08-.8h13.07c.78,0,.79,0,1,.74l2.18,6.79c.24.73.24.74,1,.74h7.51a1.05,1.05,0,0,0,.72-.14"/><path class="c5002f6f-602d-4535-9654-4520773a6946" d="M310.58,108.24a.7.7,0,0,0,.4.29,8.69,8.69,0,0,1,5.42,7.2,12,12,0,0,1-2.62,9.72,11,11,0,0,1-6.6,3.83,27.5,27.5,0,0,1-5.26.48H284.77c-.15,0-.31,0-.46,0-.42,0-.65-.12-.6-.58a5.41,5.41,0,0,0,0-.56q0-18.88,0-37.75c0-1.22-.13-1.11,1.07-1.11H303a16.08,16.08,0,0,1,6.17,1.08,9.13,9.13,0,0,1,6,8.39,11.79,11.79,0,0,1-.22,3.5,7.48,7.48,0,0,1-3.34,4.82l-1.07.67m-12.89,4v0H292.5c-.76,0-.78,0-.78.75q0,4.54,0,9.08c0,.77,0,.79.75.79h9.27a10.42,10.42,0,0,0,2.75-.36,4.47,4.47,0,0,0,3.38-3.46,7.44,7.44,0,0,0,.21-2.3,4.29,4.29,0,0,0-3.46-4.16,7.41,7.41,0,0,0-1.92-.3h-5m-.18-15.51h-5c-.77,0-.78,0-.79.76q0,3.61,0,7.22c0,.82,0,.83.81.83,3.08,0,6.17,0,9.26,0a8.05,8.05,0,0,0,3.32-.7,3.31,3.31,0,0,0,2-2.4,6,6,0,0,0,0-2.84,3.16,3.16,0,0,0-2.29-2.33,12,12,0,0,0-2.36-.43c-1.63-.14-3.27-.11-4.9-.11"/><path class="c5002f6f-602d-4535-9654-4520773a6946" d="M392.74,116.24c-1.24,6.24-4.26,11.06-10.33,13.54a17.14,17.14,0,0,1-6.73,1.11,18.86,18.86,0,0,1-8.1-1.69,16.58,16.58,0,0,1-8.64-10,28.36,28.36,0,0,1-1.33-10.05,25.52,25.52,0,0,1,1.73-9.24c2.07-5,5.54-8.62,10.85-10.12a20.13,20.13,0,0,1,13.62.82c4.92,2.09,7.72,6,8.85,11.15,0,.09,0,.18,0,.27.12,1.14.12,1.14-1,1.14-2.2,0-4.39,0-6.59,0-.53,0-.79-.15-.9-.66a9.92,9.92,0,0,0-.72-1.9,7.18,7.18,0,0,0-5.78-4.25,11.23,11.23,0,0,0-3.14-.07,7.93,7.93,0,0,0-5.25,2.84,12.34,12.34,0,0,0-2.64,5.75,25.26,25.26,0,0,0,.24,11.57,10.46,10.46,0,0,0,3.07,5.09,9.2,9.2,0,0,0,10,1.23,7.31,7.31,0,0,0,3.09-3.11,13.5,13.5,0,0,0,1.15-2.93c.1-.37.25-.56.69-.56,2.5,0,5,0,7.51,0a1.63,1.63,0,0,1,.31.09"/><path class="c5002f6f-602d-4535-9654-4520773a6946" d="M333.15,109.74V91.11c0-.22,0-.43,0-.65,0-.67,0-.68.64-.69h7c.67,0,.67,0,.69.65,0,.18,0,.37,0,.56q0,18.81,0,37.63c0,1.28.14,1.16-1.12,1.16h-6.21c-1.06,0-1,.06-1-.94q0-7.51,0-15Z"/><path class="cb479722-724c-4b2b-b677-736628765439" d="M121.7,190.24c-2.33-.05-3.51-.91-3.91-2.44a4.12,4.12,0,0,1,1.49-4.45.5.5,0,0,1,.73,0q2.31,2.28,4.64,4.53c.31.3.22.52,0,.78a4.26,4.26,0,0,1-2.93,1.54"/><path class="cb479722-724c-4b2b-b677-736628765439" d="M122.83,178.73a2.86,2.86,0,0,1-.46,1.58,2.55,2.55,0,0,1-1.52,1.15c-.58.14-.93-.39-1.34-.67a2.52,2.52,0,0,1-1.16-2.1,2.28,2.28,0,0,1,2.25-2.42,2.17,2.17,0,0,1,2.23,2.47"/><path class="cb479722-724c-4b2b-b677-736628765439" d="M101.92,185.1c0,.86,0,1.73,0,2.59a1,1,0,0,1-.52,1,5.71,5.71,0,0,1-3.25.9,2.54,2.54,0,0,1-2.5-1.84,7.2,7.2,0,0,1,0-4.55,3.28,3.28,0,0,1,3.15-2.3,7.13,7.13,0,0,1,2.45.41.82.82,0,0,1,.68.93c0,1,0,1.91,0,2.87"/><path class="cb479722-724c-4b2b-b677-736628765439" d="M190,185.17q0,1.48,0,3c0,.28,0,.55-.26.74a5.17,5.17,0,0,1-3.88,1.14,2.38,2.38,0,0,1-2-1.51,7.21,7.21,0,0,1,0-5.58,3.2,3.2,0,0,1,3.07-2,6.56,6.56,0,0,1,2.53.45.68.68,0,0,1,.52.75c0,1,0,2,0,3.05"/><path class="cb479722-724c-4b2b-b677-736628765439" d="M58.69,185.94c0-1,0-2,0-3a.83.83,0,0,1,.33-.8A5.67,5.67,0,0,1,62.55,181a2.4,2.4,0,0,1,2.29,1.58,7.72,7.72,0,0,1,0,5.6,3,3,0,0,1-2.61,1.93,6.14,6.14,0,0,1-2.9-.38.85.85,0,0,1-.66-.94c0-1,0-1.91,0-2.87"/><path class="cb479722-724c-4b2b-b677-736628765439" d="M50.42,185.18c0,1,0,1.91,0,2.87a1,1,0,0,1-.53,1,5.1,5.1,0,0,1-3.66,1,2.35,2.35,0,0,1-1.91-1.43,7.09,7.09,0,0,1,0-5.75,3.2,3.2,0,0,1,3.13-1.91,6.82,6.82,0,0,1,2.35.43.78.78,0,0,1,.61.87c0,1,0,2,0,3"/><path class="cb479722-724c-4b2b-b677-736628765439" d="M75.52,184.15c-1,0-1.91,0-2.87,0-.62,0-.64,0-.51-.63a3.67,3.67,0,0,1,4.49-2.7A2.76,2.76,0,0,1,79,183.29c.12.78.06.85-.72.86H75.52"/><path class="c5002f6f-602d-4535-9654-4520773a6946" d="M266.88,130a1.05,1.05,0,0,1-.72.14h-7.51c-.79,0-.79,0-1-.74l-2.19-6.79c-.24-.73-.24-.74-1-.74H241.34c-.81,0-.82,0-1.08.8L238,129.4c-.26.77-.26.78-1.1.78h-7a1.29,1.29,0,0,1-.73-.09c-.11-.36.11-.65.22-1q6.39-17.93,12.79-35.86c.31-.87.64-1.74.93-2.62a.66.66,0,0,1,.74-.52c2.78,0,5.56,0,8.34,0,.52,0,.68.24.83.66.89,2.57,1.81,5.13,2.71,7.69l10.84,30.65c.1.29.19.58.3.91M248,99.61h-.16l-5,15.28a81.85,81.85,0,0,0,10.08-.06L248,99.61"/><path class="cb479722-724c-4b2b-b677-736628765439" d="M248,99.61l4.89,15.22a81.85,81.85,0,0,1-10.08.06l5-15.28H248"/></svg>