<svg id="f2b4fe5c-46eb-459b-9a21-cff4ea2271e1" data-name="Lager 1" xmlns="http://www.w3.org/2000/svg" viewBox="0 0 100 27.62"><defs><style>.\39 39f6737-9b7d-44e6-9f31-e3137c64b239{fill:#09367b;}</style></defs><title>camatec</title><polygon points="33.25 19.82 37.39 6.84 42.02 14.09 46.66 6.84 50.8 19.82 47.75 19.82 45.84 13.83 42.02 19.82 38.21 13.83 36.3 19.82 33.25 19.82"/><path d="M9.47,15.31c-6.21,0-6.75-10.78,0-10.85h6.45V0H9.51c-12.22,0-13.13,19.78,0,19.82h6.4V15.31Z"/><polygon class="939f6737-9b7d-44e6-9f31-e3137c64b239" points="77.46 6.84 87.08 6.84 87.08 9.63 80.55 9.63 80.55 11.94 85.26 11.94 85.26 14.81 80.55 14.81 80.55 17.03 87.08 17.03 87.08 19.82 77.46 19.82 77.46 6.84"/><polygon class="939f6737-9b7d-44e6-9f31-e3137c64b239" points="67.75 4.46 17.33 4.46 17.33 0 100 0 100 4.46 73.1 4.46 73.1 19.82 67.75 19.82 67.75 4.46"/><path d="M24.75,6.84l7,13h-3l-1.35-2.53H22.18l-1.35,2.53h-3Zm1.13,7.75-1.13-2.13-1.13,2.13Z"/><path d="M59.27,6.84l7,13h-3l-1.35-2.53H56.7l-1.35,2.53h-3Zm1.13,7.75-1.13-2.13-1.13,2.13Z"/><path class="939f6737-9b7d-44e6-9f31-e3137c64b239" d="M95.77,16.86c-4.05,0-4.42-7.06,0-7.1H100V6.84H95.82c-8,0-8.6,13,0,13H100v-3Z"/><path d="M18.53,24.46h.37v3.09h-.37Z"/><path d="M20.16,24.46h.48L22.49,27h0V24.46h.37v3.09h-.48L20.53,25h0v2.57h-.37Z"/><path d="M26.8,27.33a2.55,2.55,0,0,1-1.2.28A1.59,1.59,0,0,1,23.91,26a1.61,1.61,0,0,1,1.72-1.61,1.56,1.56,0,0,1,1.13.41l-.28.28a1.28,1.28,0,1,0-.85,2.22,1.88,1.88,0,0,0,.78-.17V26.2h-.74v-.35h1.11v1.48Z"/><path d="M28,24.46h2v.35H28.44v1h1.5v.35h-1.5V27.2h1.7v.35H28.06V24.46Z"/><path d="M31.14,24.46h.48L33.47,27h0V24.46h.37v3.09h-.48L31.51,25h0v2.57h-.37Z"/><path d="M36.45,26.74a.83.83,0,0,1-.91.87.78.78,0,0,1-.85-.65l.37-.07a.46.46,0,0,0,.48.39c.44,0,.52-.33.52-.65V24.48h.37v2.26Z"/><path d="M37.52,26a1.66,1.66,0,1,1,1.66,1.61A1.58,1.58,0,0,1,37.52,26Zm2.92,0a1.23,1.23,0,0,0-1.26-1.28,1.29,1.29,0,0,0,0,2.57A1.26,1.26,0,0,0,40.44,26ZM39,24a.24.24,0,1,1-.24-.24A.24.24,0,0,1,39,24Zm.89,0a.24.24,0,1,1-.24-.24A.24.24,0,0,1,39.87,24Z"/><path d="M41.89,24.46h.81c.61,0,1.26.09,1.26.85a.8.8,0,0,1-.78.81l.89,1.42h-.46l-.87-1.39h-.48v1.39h-.37Zm.37,1.35h.33c.41,0,1,0,1-.5s-.39-.5-.76-.5h-.52Z"/><path d="M45.1,24.46h2v.35H45.49v1H47v.35h-1.5V27.2h1.7v.35H45.12V24.46Z"/><path d="M48.19,24.46H49c.61,0,1.26.09,1.26.85a.8.8,0,0,1-.78.81l.89,1.42h-.46L49,26.13h-.48v1.39h-.37V24.46Zm.39,1.35h.33c.41,0,1,0,1-.5s-.39-.5-.76-.5h-.52Z"/><path d="M53.59,26.2a.26.26,0,1,1-.26-.26A.26.26,0,0,1,53.59,26.2Z"/><path d="M56.49,24.46h.57l1.07,2.42h0l1.09-2.42h.54v3.09h-.37V25h0l-1.13,2.59H58L56.88,25h0v2.59h-.37V24.46Z"/><path d="M62,24.46h.35l1.35,3.09H63.3L63,26.79H61.39l-.33.76h-.44Zm.17.48h0l-.68,1.52h1.31Z"/><path d="M66.11,25a.68.68,0,0,0-.59-.28c-.33,0-.68.15-.68.52s.15.41.68.57,1,.3,1,.91-.54.89-1.11.89a1.13,1.13,0,0,1-1-.44l.33-.26a.81.81,0,0,0,.68.35c.33,0,.7-.17.7-.54s-.26-.44-.83-.63-.78-.33-.78-.85.52-.89,1.09-.89a1.08,1.08,0,0,1,.89.37Z"/><path d="M67.55,24.46h.37v1.33h0l1.44-1.33h.54l-1.57,1.42L70,27.55h-.54L68,26h0v1.57h-.37V24.46Z"/><path d="M70.84,24.46h.37v3.09h-.37Z"/><path d="M72.45,24.46h.48L74.78,27h0V24.46h.37v3.09h-.48L72.82,25h0v2.57h-.37Z"/><path d="M76.39,24.46h2v.35H76.78v1h1.5v.35h-1.5V27.2h1.7v.35H76.41V24.46Z"/><path d="M79.51,24.46h.81c.61,0,1.26.09,1.26.85a.8.8,0,0,1-.78.81l.89,1.42h-.46l-.87-1.39h-.48v1.39h-.37V24.46Zm.37,1.35h.33c.41,0,1,0,1-.5s-.39-.5-.76-.5h-.52Z"/></svg>