<svg id="47d60d79-ebc0-48c9-98c6-79b5668c3a39" data-name="Layer 1" 
    xmlns="http://www.w3.org/2000/svg" viewBox="0 0 442.36 312.6">
    <defs>
        <style>.\30 4933e09-88a7-4885-bb80-11378b84398d{fill:#35a1c9;}.\30 40695ca-34f8-469a-a2ea-576315c3e882{fill:#ff1900;}.\38 f396fac-6f09-4fe1-a6ca-937167b41387{fill:#85c727;}.a5ce1730-d18f-4c1f-8fcd-50c881600756{fill:#2b2a2f;}</style>
    </defs>
    <title>eem</title>
    <path class="04933e09-88a7-4885-bb80-11378b84398d" d="M335.1,207.64c0-2-1.18-2.36-2.44-.76,0,0-12.07,14.25-26.56,14.25s-26.18-14.64-26.18-14.64a2.83,2.83,0,0,0-4.62,0s-11.69,14.64-26.2,14.64-26.17-14.64-26.17-14.64a2.82,2.82,0,0,0-4.61,0s-11.71,14.64-26.21,14.64-26.18-14.64-26.18-14.64a2.83,2.83,0,0,0-4.61,0s-11.69,14.64-26.2,14.64c-14.22,0-26-14.1-26-14.1-1.3-1.56-2.36-1.18-2.36.86v26.36a3,3,0,0,0,1.34,2l.64.45c8,5.18,16.82,7.29,26.61,7.29,10.34,0,25.28-7.26,25.28-7.26a8.63,8.63,0,0,1,6.64,0s14.35,7,24.66,7,25.26-7.24,25.26-7.24a8.48,8.48,0,0,1,6.63,0s15.27,7.65,25.3,7.65c9.71,0,25.5-7.33,25.5-7.33a8.44,8.44,0,0,1,6.63.17s13.23,7,25.3,6.93c12.24-.06,25.38-7.3,25.38-7.3a6.74,6.74,0,0,0,3.18-5.48Z" transform="translate(0 -0.26)"/>
    <path class="040695ca-34f8-469a-a2ea-576315c3e882" d="M209.18,28.28s.9-1.59,1.41-2.75c1.12-2.7,2.09-5,3.81-8.61,1.82-3.79,4.16-8.69,5.86-11.36,1.12-1.84-.32-2.41-1.11-2.41-.62,0-2.61,0-3.87.11A120.41,120.41,0,0,0,100.52,123.52c0,25.66,9.12,49.38,22.95,68.89a22.4,22.4,0,0,0,2.78,2.82,8.76,8.76,0,0,0,5.24,1.65H156.3c4.67,0,3.59-3.25,1.83-5-17.89-17.71-30.76-41.44-30.76-68.5A93.43,93.43,0,0,1,202,31.5c1.24-.25,1.5-.28,2.74-.52,1-.19,3.4-.79,4.42-2.7" transform="translate(0 -0.26)"/>
    <path class="040695ca-34f8-469a-a2ea-576315c3e882" d="M260.39,12.3c-6.85,3.87-16,10.54-20.1,16.09-1.26,1.73-.51,2.63.06,2.78,45,10.47,74.83,48.25,74.83,92.23,0,27.67-13.22,52.42-32.44,69.57-1.51,1.34-2,3.93,1.2,3.93l27,0a9.14,9.14,0,0,0,5.87-2.72c14.53-19.84,24.51-44.25,24.51-70.67A120.47,120.47,0,0,0,267.14,12.32c-1.16-.48-3.91-1.65-6.75,0" transform="translate(0 -0.26)"/>
    <path class="8f396fac-6f09-4fe1-a6ca-937167b41387" d="M166.08,136.69c.06.21.25.79.32,1,9.3,25.31,41.52,60.91,92.72,58.85a8.64,8.64,0,0,0,1,0,.82.82,0,0,0,.49-1.35,2.86,2.86,0,0,0-.28-.27c-10.78-9.15-15.54-17.94-15.54-32.09,0-11.12,4.88-23.43,11.88-32.12,8.24-10.26,18.77-17.55,18.77-38.08,0-29.4-28.42-52.4-54.11-52.11a89.54,89.54,0,0,1,16.82-21.79c8.66-8.58,21.15-16.1,21.15-16.1,2.23-1.34,1.93-2.37-.63-2.3,0,0-15.07.4-21,2.8a18.86,18.86,0,0,0-7.63,5.73,120,120,0,0,0-8,12.1,97.65,97.65,0,0,0-8.92,19.77C195.48,41,174,55.93,163.92,75.93c-1.26,2.5,1.3,2.77,1.3,2.77l34.61,0c2.58,0,3.72,1.08,3.44,3.63l-.5,4.66c-.3,2.55-1.58,2.85-4.18,2.85l-35.76,0c-2.58,0-3.56.46-3.94,3.49a19.46,19.46,0,0,0-.34,4.63c0,1.66,0,2.89,2.84,3h37.2c2.6,0,3.92,1.08,4.24,3.66l.17,3.77c.29,2.56-.59,3.67-3.16,3.67l-36.48,0c-2.58,0-3.59,1.21-3.14,4.62a36.14,36.14,0,0,0,.9,4.53c.52,2,3.68,2,3.68,2h36.25c2.6,0,4.06,1.32,4.82,3.79l1.1,3.58c.77,2.45.1,3.77-2.49,3.77,0,0-35.66,0-36.23,0s-2.77.41-2.18,2.37" transform="translate(0 -0.26)"/>
    <path class="a5ce1730-d18f-4c1f-8fcd-50c881600756" d="M0,273c0-.88,0-1.7,1.71-1.7h16c1.72,0,1.72.82,1.72,1.7v3.49c0,1.11-1.09,1.14-1.51,1.14H8.12c-.34,0-.88.06-.88.8v5.13c0,.4-.06.9.53.9H15.5c.94,0,1.15.55,1.15.92v4.44c0,.34,0,1-1,1H7.88c-.74,0-.64.46-.64.84v6.94c0,.34,0,.57.53.57h11c1.22,0,1.32.68,1.32,1.24v3.42c0,.91-.1,1.72-1.72,1.72H1.71c-.86,0-1.71,0-1.71-1.72Z" transform="translate(0 -0.26)"/>
    <path class="a5ce1730-d18f-4c1f-8fcd-50c881600756" d="M22.79,300.3c0-.38-.16-1.18.78-1.18a5.89,5.89,0,0,1,1.38.34,20.13,20.13,0,0,0,4.78.78c2,0,2.88-.92,2.88-2.1a3.29,3.29,0,0,0-1.8-2.73c-1.72-1.33-3.68-2.44-5.11-3.81a8.25,8.25,0,0,1-2.88-6.29,7.31,7.31,0,0,1,2.8-5.8,10.56,10.56,0,0,1,5.76-1.6,22.39,22.39,0,0,1,5.32.65c1.18.34,1.53.68,1.66.88a1.68,1.68,0,0,1,.2,1v3.09c0,.34,0,1-.95,1A7.74,7.74,0,0,1,35.2,284a8.24,8.24,0,0,0-3.09-.44c-1.86,0-2.16,1-2.16,1.62a2.7,2.7,0,0,0,1.18,1.95c.19.19,2.25,1.64,2.9,2l.54.34a29,29,0,0,1,3.26,2.94,8.55,8.55,0,0,1,1.9,5.51c0,4.9-3.72,7.93-9.82,7.93a23,23,0,0,1-5.23-.63c-1-.25-1.41-.44-1.6-.66a1.36,1.36,0,0,1-.3-1.1Z" transform="translate(0 -0.26)"/>
    <path class="a5ce1730-d18f-4c1f-8fcd-50c881600756" d="M61.54,278.31c.78,0,1.18.63.64,1.27l-6.25,7.65a1.26,1.26,0,0,0-.25.59.59.59,0,0,0,.08.33l6.72,15.49c.58,1.35.12,1.85-.6,1.85H57.06c-1.13,0-1.48-1.13-1.86-2.08l-4-9.67c-.14-.38-.46-.44-.63-.09l-1,1.33a1.28,1.28,0,0,0-.34,1v8.18c0,1.31-.74,1.37-1.36,1.37H43.93c-1.32,0-1.36-.76-1.36-1.37V272.63c0-1.32.74-1.35,1.36-1.35h3.94c1.31,0,1.36.72,1.36,1.35v12.72c0,.34.24.51.58.09L54.75,279a1.59,1.59,0,0,1,1.46-.72Z" transform="translate(0 -0.26)"/>
    <path class="a5ce1730-d18f-4c1f-8fcd-50c881600756" d="M71.86,274.89c0,.61-.06,1.36-1.38,1.36H66.57c-1.31,0-1.38-.74-1.38-1.36v-3c0-.61.06-1.34,1.38-1.34h3.91c.65,0,1.38,0,1.38,1.34Zm0,29.22c0,1.31-.72,1.37-1.38,1.37H66.57c-1.31,0-1.38-.76-1.38-1.37V279.68c0-1.31.75-1.37,1.38-1.37h3.91c.65,0,1.38.06,1.38,1.37Z" transform="translate(0 -0.26)"/>
    <path class="a5ce1730-d18f-4c1f-8fcd-50c881600756" d="M82.4,304.11c0,1.31-.7,1.37-1.38,1.37H77.12c-1.32,0-1.36-.76-1.36-1.37V272.63c0-1.32.73-1.35,1.36-1.35H81c1.34,0,1.38.72,1.38,1.35Z" transform="translate(0 -0.26)"/>
    <path class="a5ce1730-d18f-4c1f-8fcd-50c881600756" d="M85.36,300.3c0-.38-.16-1.18.76-1.18a6,6,0,0,1,1.4.34,19.86,19.86,0,0,0,4.76.78c2,0,2.9-.92,2.9-2.1a3.29,3.29,0,0,0-1.84-2.73c-1.69-1.33-3.66-2.44-5.07-3.81a8.24,8.24,0,0,1-2.88-6.29,7.39,7.39,0,0,1,2.77-5.8,10.68,10.68,0,0,1,5.78-1.6,22.63,22.63,0,0,1,5.34.65,3.11,3.11,0,0,1,1.66.88,1.68,1.68,0,0,1,.2,1v3.09c0,.34,0,1-.95,1a7.74,7.74,0,0,1-2.44-.55,8.33,8.33,0,0,0-3.09-.44c-1.83,0-2.14,1-2.14,1.62a2.73,2.73,0,0,0,1.17,1.95c.2.19,2.24,1.64,2.87,2l.56.34a28.91,28.91,0,0,1,3.28,2.94,8.65,8.65,0,0,1,1.9,5.51c0,4.9-3.72,7.93-9.82,7.93a23.44,23.44,0,0,1-5.24-.63,3.36,3.36,0,0,1-1.62-.66,1.42,1.42,0,0,1-.26-1.1Z" transform="translate(0 -0.26)"/>
    <path class="a5ce1730-d18f-4c1f-8fcd-50c881600756" d="M111.58,271.85c.34-.1,1.08-.33,1.08.72v5.49c0,.25-.08.65.63.65h1.91c.63,0,1.37,0,1.37,1.35v2.29c0,1.32-.74,1.37-1.37,1.37h-2a.5.5,0,0,0-.54.55v13.29c0,1.7.38,2.57,2.1,2.57,1,0,.5-.13,1.47-.13.38,0,.59.34.59.73v3.72c0,1-.46,1.41-3.38,1.41-5.28,0-7.43-1.7-7.43-6.35V284.39c0-.67-.48-.67-.64-.67h-.78c-.54,0-1-.06-1-1.37v-2.29c0-1.31.49-1.35,1-1.35h.78a.57.57,0,0,0,.64-.65v-3.63a.91.91,0,0,1,.74-1Z" transform="translate(0 -0.26)"/>
    <path class="a5ce1730-d18f-4c1f-8fcd-50c881600756" d="M137.13,304.11c0,1.31-.72,1.37-1.36,1.37h-4.34a.91.91,0,0,1-.94-.92v-.15c0-.4-.28-.34-.44-.34a.91.91,0,0,0-.34.25,6,6,0,0,1-4.29,1.55c-3,0-6.26-1.79-6.26-7.26V279.68c0-1.31.72-1.37,1.35-1.37h3.91c.63,0,1.37.06,1.37,1.37v17.49a2.17,2.17,0,0,0,2.29,2.29c2.5,0,2.4-2.48,2.4-3.62V279.68c0-1.31.74-1.37,1.36-1.37h3.93c.63,0,1.36.06,1.36,1.37Z" transform="translate(0 -0.26)"/>
    <path class="a5ce1730-d18f-4c1f-8fcd-50c881600756" d="M141.06,279.68c0-1.31.74-1.37,1.38-1.37h4.32a.9.9,0,0,1,.94.93v.13c0,.27.08.34.34.34a.53.53,0,0,0,.44-.25,6,6,0,0,1,4.3-1.56c3,0,6.26,1.81,6.26,7.28v18.92c0,1.31-.72,1.37-1.37,1.37h-3.91c-1.32,0-1.37-.76-1.37-1.37V286.61a2.17,2.17,0,0,0-2.29-2.27c-2.5,0-2.4,2.46-2.4,3.61v16.17c0,1.31-.74,1.37-1.38,1.37h-3.88c-1.32,0-1.38-.76-1.38-1.37Z" transform="translate(0 -0.26)"/>
    <path class="a5ce1730-d18f-4c1f-8fcd-50c881600756" d="M180.31,303.77v.59c0,.54-.35,1.13-1.45,1.13h-4.14c-.8,0-.9-.31-.9-.54s0-.59-.4-.59a.58.58,0,0,0-.42.25,6.81,6.81,0,0,1-4,1.26c-3.52,0-6.66-2.69-6.66-8.56,0-7.52,5.53-9.48,9.63-11l1.24-.46a.75.75,0,0,0,.48-.78c0-1.41-1.72-1.83-3.12-1.83a10.94,10.94,0,0,0-3.32.51,17.37,17.37,0,0,1-2.36.7.9.9,0,0,1-.92-.9v-3c0-.78.5-2.59,7.17-2.59,8.38,0,9.22,4.21,9.22,7.72Zm-6.66-11.88c0-.34-.34-.44-.66-.23l-.84.53c-1.62,1-2.88,2.15-2.88,4.71,0,1.58.57,3,2.14,3a2,2,0,0,0,2.25-1.77Z" transform="translate(0 -0.26)"/>
    <path class="a5ce1730-d18f-4c1f-8fcd-50c881600756" d="M195.6,273c0-.88,0-1.7,1.7-1.7h16.05c1.7,0,1.7.82,1.7,1.7v3.49c0,1.11-1.09,1.14-1.53,1.14h-9.8c-.34,0-.9.06-.9.8v5.13c0,.4-.06.9.55.9h7.7c.92,0,1.13.55,1.13.92v4.44c0,.34,0,1-1,1h-7.76c-.76,0-.65.46-.65.84v6.94c0,.34,0,.57.55.57h11c1.24,0,1.32.68,1.32,1.24v3.42c0,.91-.08,1.72-1.72,1.72H197.3c-.88,0-1.7,0-1.7-1.72Z" transform="translate(0 -0.26)"/>
    <path class="a5ce1730-d18f-4c1f-8fcd-50c881600756" d="M219.35,279.68c0-1.31.74-1.37,1.38-1.37h4.36a.9.9,0,0,1,.92.93v.13c0,.27.07.34.34.34s.28-.08.44-.25a6,6,0,0,1,4.29-1.56c3,0,6.28,1.81,6.28,7.28v18.92c0,1.31-.74,1.37-1.39,1.37h-3.89c-1.32,0-1.37-.76-1.37-1.37V286.61a2.16,2.16,0,0,0-2.28-2.27c-2.52,0-2.4,2.46-2.4,3.61v16.17c0,1.31-.73,1.37-1.38,1.37h-3.91c-1.34,0-1.38-.76-1.38-1.37Z" transform="translate(0 -0.26)"/>
    <path class="a5ce1730-d18f-4c1f-8fcd-50c881600756" d="M248.47,293.68a.53.53,0,0,0-.57.61v1.55c0,3.87,3.79,4.08,4.79,4.08a17.74,17.74,0,0,0,5.53-.93c.82-.25,1.22,0,1.22.76v4c0,.44-.15.74-.94,1.08a21,21,0,0,1-6.24,1c-3.83,0-11-1-11-9.88v-8.27c0-3.64,1-9.8,9.27-9.8,2.4,0,9.16.4,9.16,9.8v4.61c0,1.32-.75,1.36-1.37,1.36Zm4.06-5.36c.55,0,.5-.34.5-.5v-1.07c0-1.18-.21-3.49-2.5-3.49-2.53,0-2.63,2.52-2.63,3.49v1.07c0,.44.25.5.5.5Z" transform="translate(0 -0.26)"/>
    <path class="a5ce1730-d18f-4c1f-8fcd-50c881600756" d="M270,304.11c0,1.31-.72,1.37-1.37,1.37h-3.89c-1.34,0-1.38-.76-1.38-1.37V279.68c0-1.31.73-1.37,1.38-1.37h4.46c.32,0,.88-.06.88.69v.51c0,.38.17.42.23.42a3.47,3.47,0,0,0,.68-.46,6.41,6.41,0,0,1,4.37-1.56c1.39,0,1.49.55,1.49,1.16v4.77c0,.91-.82,1-1.18,1h-.92a4.33,4.33,0,0,0-3.22,1.26,6.21,6.21,0,0,0-1.52,4.31v13.73Z" transform="translate(0 -0.26)"/>
    <path class="a5ce1730-d18f-4c1f-8fcd-50c881600756" d="M295.61,278.31c.67,0,1.38.06,1.38,1.37V301c0,5.23.3,11.75-10.39,11.75-7.26,0-7.21-1.07-7.21-1.68v-3.87a.61.61,0,0,1,.59-.69,29.61,29.61,0,0,0,5.76.8c4.29,0,4.64-1.87,4.64-3.19v-.74c0-.1-.06-.13-.13-.19h-.15c-.88.23-1.55,1.5-4.5,1.5-6.25,0-6.75-6.2-6.75-10.09v-7.53c0-3.39.31-9.15,6.41-9.15,3.3,0,4.16,1.81,4.63,1.81.15,0,.44.06.44-.34V279c0-.4.13-.69.87-.69Zm-5.24,8.79c0-1-.13-3.2-2.38-3.2s-2.4,2.25-2.4,3.2v8.39c0,1,.15,3.24,2.4,3.24s2.38-2.23,2.38-3.24Z" transform="translate(0 -0.26)"/>
    <path class="a5ce1730-d18f-4c1f-8fcd-50c881600756" d="M307.61,274.89c0,.61-.1,1.36-1.43,1.36h-3.89c-1.34,0-1.37-.74-1.37-1.36v-3c0-.61,0-1.34,1.37-1.34h3.89c.67,0,1.43,0,1.43,1.34Zm0,29.22c0,1.31-.76,1.37-1.43,1.37h-3.89c-1.34,0-1.37-.76-1.37-1.37V279.68c0-1.31.76-1.37,1.37-1.37h3.89c.67,0,1.43.06,1.43,1.37Z" transform="translate(0 -0.26)"/>
    <path class="a5ce1730-d18f-4c1f-8fcd-50c881600756" d="M343.5,286.76c1.32,0,1.33.74,1.33,1.38v1.46a28.35,28.35,0,0,1-.27,5.38c-.4,2-.72,2.25-.9,3.38a1.31,1.31,0,0,0,0,.38,1.46,1.46,0,0,0,1.24.78h.55a1.09,1.09,0,0,1,1.12,1v4c0,.63-.08,1.35-1.39,1.35h-1.6a5.52,5.52,0,0,1-3.18-1.3,1.35,1.35,0,0,0-.76-.49.93.93,0,0,0-.55.19,13.48,13.48,0,0,1-6.66,1.6c-7.8,0-10.05-5.95-10.05-11.65a11,11,0,0,1,4.08-8.91c.15-.15.46-.32.46-.55,0-2.1-2.06-2-2.06-6.2,0-4.84,3.18-8,8.47-8,1.16,0,6.67.47,6.94,1.85v3.36c0,1.43-.74,1.53-1.07,1.53a4.06,4.06,0,0,1-1.34-.29,8.32,8.32,0,0,0-3.11-.57c-1.93,0-3.15.82-3.15,2.4a11.18,11.18,0,0,0,1.81,5.53l4,6.62c.33.59.64,1.18,1,1.18a.28.28,0,0,0,.27-.3v-3.76c0-.63,0-1.38,1.34-1.38ZM331.12,292c-.4-.63-.63-1-.7-1-.36,0-1.09,1.85-1.09,3.47,0,3.53,1.45,5.53,4,5.53,1,0,2.12-.31,2.12-.69a4.39,4.39,0,0,0-.27-.68Z" transform="translate(0 -0.26)"/>
    <path class="a5ce1730-d18f-4c1f-8fcd-50c881600756" d="M368.12,303.77c0,1.72-.82,1.72-1.7,1.72h-3.81c-.9,0-1.72,0-1.72-1.72V273c0-.88,0-1.7,1.72-1.7h4.33a2.12,2.12,0,0,1,1.77,1.16L374,283c.15.34.33.84.59.84s.36-.57.53-.78l5.28-10.49a2,2,0,0,1,1.85-1.3h4.1c1.72,0,1.72.82,1.72,1.7v30.8c0,1.72-.84,1.72-1.72,1.72h-3.81c-1.7,0-1.7-.84-1.7-1.72V286.36c0-.17-.08-.3-.19-.3s-.11.09-.15.12l-3.82,9.19c-.19.51-.55,1.26-1.31,1.26h-1.66c-.55,0-1-.44-1.34-1.26l-3.89-9.59c-.08-.21-.36-.1-.36,0Z" transform="translate(0 -0.26)"/>
    <path class="a5ce1730-d18f-4c1f-8fcd-50c881600756" d="M398.61,274.89c0,.61-.06,1.36-1.37,1.36h-3.89c-1.32,0-1.37-.74-1.37-1.36v-3c0-.61.06-1.34,1.37-1.34h3.89c.65,0,1.37,0,1.37,1.34Zm0,29.22c0,1.31-.72,1.37-1.37,1.37h-3.89c-1.32,0-1.37-.76-1.37-1.37V279.68c0-1.31.74-1.37,1.37-1.37h3.89c.65,0,1.37.06,1.37,1.37Z" transform="translate(0 -0.26)"/>
    <path class="a5ce1730-d18f-4c1f-8fcd-50c881600756" d="M409.2,304.11c0,1.31-.74,1.37-1.37,1.37h-3.91c-1.32,0-1.39-.76-1.39-1.37V272.63c0-1.32.74-1.35,1.39-1.35h3.91c1.3,0,1.37.72,1.37,1.35Z" transform="translate(0 -0.26)"/>
    <path class="a5ce1730-d18f-4c1f-8fcd-50c881600756" d="M410.17,308.14c0-.34,0-.9.63-.9a3.45,3.45,0,0,1,.76.13,3.32,3.32,0,0,0,.84.15c.78,0,1.56-.29,1.56-1.41a5.72,5.72,0,0,0-.38-1.7,7,7,0,0,1-.36-2.08V279.68c0-1.31.74-1.37,1.37-1.37h3.93c.63,0,1.36.06,1.36,1.37v22.81a7.08,7.08,0,0,0,.42,2.69,7.1,7.1,0,0,1,.61,3.09c0,1.33-.47,4.6-6.69,4.6a12,12,0,0,1-3.39-.42c-.51-.11-.65-.38-.65-1.2Zm9.71-33.24c0,.61-.06,1.36-1.36,1.36h-3.93c-.63,0-1.37,0-1.37-1.36v-3c0-.61.06-1.34,1.37-1.34h3.93c.63,0,1.36,0,1.36,1.34Z" transform="translate(0 -0.26)"/>
    <path class="a5ce1730-d18f-4c1f-8fcd-50c881600756" d="M423.8,287.71c0-3.7,1-9.8,9.27-9.8s9.29,6.1,9.29,9.8V296c0,3.72-1,9.84-9.29,9.84s-9.27-6.12-9.27-9.84Zm7.67-12.82c0,.61-.06,1.36-1.37,1.36h-3c-.63,0-1.35,0-1.35-1.36v-3c0-.61,0-1.34,1.35-1.34h3c.63,0,1.37,0,1.37,1.34Zm-1,22.28c0,2.53,1.4,3.24,2.62,3.24s2.65-.71,2.65-3.24V286.61c0-2.54-1.43-3.22-2.65-3.22s-2.62.69-2.62,3.22Zm10-22.28c0,.61-.06,1.36-1.39,1.36h-2.94c-.63,0-1.35,0-1.35-1.36v-3c0-1.3.72-1.34,1.35-1.34H439c.65,0,1.39,0,1.39,1.34Z" transform="translate(0 -0.26)"/>
</svg>