<svg id="db1a6bee-bc87-44e6-a0a3-b48769698e33" data-name="Lager 1" xmlns="http://www.w3.org/2000/svg" viewBox="0 0 100.5 21.92"><defs><style>.\37 0adbc78-aa3d-4c9b-ba3b-d5c0454972a7{fill:#f8ab10;}.a0a1e5f6-7a0a-4f51-953a-2c6529d716db{fill:#89888e;}.\34 b597648-1dbc-4c7a-bb38-46d236c27ce3{fill:none;stroke:#f8ab10;stroke-linecap:round;stroke-linejoin:round;}</style></defs><title>energiengagemang</title><path class="70adbc78-aa3d-4c9b-ba3b-d5c0454972a7" d="M20.09,16.16H17.21v2.69h3.22v.8H16.22V12.23h4V13H17.18v2.35h2.88l0,.77Z" transform="translate(-0.02 -0.03)"/><path class="70adbc78-aa3d-4c9b-ba3b-d5c0454972a7" d="M21.17,15.76c0-.56,0-1,0-1.46H22l.06.9h0a2,2,0,0,1,1.76-1c.74,0,1.89.43,1.89,2.26v3.19h-1V16.6c0-.87-.31-1.58-1.24-1.58a1.43,1.43,0,0,0-1.3,1,1.87,1.87,0,0,0-.06.46v3.22h-1Z" transform="translate(-0.02 -0.03)"/><path class="70adbc78-aa3d-4c9b-ba3b-d5c0454972a7" d="M27.55,17.15A1.71,1.71,0,0,0,29.37,19a3.62,3.62,0,0,0,1.49-.28l.19.68a4.32,4.32,0,0,1-1.8.34,2.49,2.49,0,0,1-2.63-2.69,2.6,2.6,0,0,1,2.51-2.88,2.23,2.23,0,0,1,2.2,2.51,2.05,2.05,0,0,1,0,.46Zm2.85-.68c0-.62-.25-1.58-1.33-1.58a1.58,1.58,0,0,0-1.49,1.58Z" transform="translate(-0.02 -0.03)"/><path class="70adbc78-aa3d-4c9b-ba3b-d5c0454972a7" d="M32.22,16c0-.62,0-1.18,0-1.67H33l0,1.05h0a1.63,1.63,0,0,1,1.49-1.18.86.86,0,0,1,.28,0v.93a1.06,1.06,0,0,0-.34,0,1.34,1.34,0,0,0-1.3,1.24,2.19,2.19,0,0,0,0,.46v2.85h-1V16Z" transform="translate(-0.02 -0.03)"/><path class="70adbc78-aa3d-4c9b-ba3b-d5c0454972a7" d="M40,18.86a3,3,0,0,1-.77,2.45,3,3,0,0,1-2,.65,3.46,3.46,0,0,1-1.76-.43l.25-.74a3,3,0,0,0,1.58.43c1,0,1.73-.53,1.73-1.89v-.59h0a1.88,1.88,0,0,1-1.7.9A2.37,2.37,0,0,1,35.1,17a2.55,2.55,0,0,1,2.41-2.82,1.76,1.76,0,0,1,1.67.93h0l0-.8h.87c0,.37,0,.8,0,1.46v3.07Zm-1-2.45A1,1,0,0,0,39,16a1.4,1.4,0,0,0-1.36-1.05c-.93,0-1.58.77-1.58,2,0,1.05.53,1.92,1.58,1.92a1.36,1.36,0,0,0,1.33-1,1.45,1.45,0,0,0,.09-.53v-.93Z" transform="translate(-0.02 -0.03)"/><path class="70adbc78-aa3d-4c9b-ba3b-d5c0454972a7" d="M42.38,12.82a.56.56,0,0,1-.62.59.59.59,0,0,1-.59-.59.6.6,0,0,1,.62-.62A.6.6,0,0,1,42.38,12.82Zm-1.08,6.84V14.31h1v5.36Z" transform="translate(-0.02 -0.03)"/><path class="a0a1e5f6-7a0a-4f51-953a-2c6529d716db" d="M47.39,16.16H44.51v2.69h3.22v.8H43.55V12.23h4V13H44.51v2.35h2.88v.77Z" transform="translate(-0.02 -0.03)"/><path class="a0a1e5f6-7a0a-4f51-953a-2c6529d716db" d="M48.48,14.31h.86l.06.9h0a2,2,0,0,1,1.76-1c.74,0,1.89.43,1.89,2.26v3.19h-1V16.6c0-.87-.31-1.58-1.24-1.58a1.43,1.43,0,0,0-1.3,1,1.87,1.87,0,0,0-.06.46v3.22h-1V15.76A5.44,5.44,0,0,1,48.48,14.31Z" transform="translate(-0.02 -0.03)"/><path class="a0a1e5f6-7a0a-4f51-953a-2c6529d716db" d="M58.88,18.86a3,3,0,0,1-.77,2.45,3,3,0,0,1-2,.65,3.46,3.46,0,0,1-1.76-.43l.25-.74a3,3,0,0,0,1.58.43c1,0,1.73-.53,1.73-1.89v-.59h0a1.88,1.88,0,0,1-1.7.9A2.37,2.37,0,0,1,54,17a2.55,2.55,0,0,1,2.41-2.82,1.76,1.76,0,0,1,1.67.93h0l0-.8H59c0,.37,0,.8,0,1.46v3.07Zm-1-2.45a1,1,0,0,0-.06-.43,1.4,1.4,0,0,0-1.36-1.05c-.93,0-1.58.77-1.58,2,0,1.05.53,1.92,1.58,1.92a1.36,1.36,0,0,0,1.33-1,1.45,1.45,0,0,0,.06-.53v-.93Z" transform="translate(-0.02 -0.03)"/><path class="a0a1e5f6-7a0a-4f51-953a-2c6529d716db" d="M63.89,18.36c0,.46,0,.93.06,1.27h-.87L63,19h0a2,2,0,0,1-1.64.8,1.54,1.54,0,0,1-1.64-1.55c0-1.3,1.15-2,3.22-2v-.09a1.1,1.1,0,0,0-1.21-1.24,2.62,2.62,0,0,0-1.39.4l-.22-.65a3.39,3.39,0,0,1,1.76-.46,1.89,1.89,0,0,1,2,2.17v2ZM63,16.94c-1.05,0-2.26.15-2.26,1.21a.85.85,0,0,0,.9.93,1.31,1.31,0,0,0,1.3-.9,1.16,1.16,0,0,0,0-.31l0-.93Z" transform="translate(-0.02 -0.03)"/><path class="a0a1e5f6-7a0a-4f51-953a-2c6529d716db" d="M69.71,18.86a3,3,0,0,1-.77,2.45A3,3,0,0,1,67,22a3.46,3.46,0,0,1-1.76-.43l.25-.74a3,3,0,0,0,1.58.43c1,0,1.73-.53,1.73-1.89v-.59h0a1.88,1.88,0,0,1-1.7.9A2.37,2.37,0,0,1,64.79,17a2.55,2.55,0,0,1,2.41-2.82,1.76,1.76,0,0,1,1.67.93h0l0-.8h.87c0,.37,0,.8,0,1.46v3.07Zm-1-2.45a1,1,0,0,0-.06-.43,1.4,1.4,0,0,0-1.36-1.05c-.93,0-1.58.77-1.58,2,0,1.05.53,1.92,1.58,1.92a1.36,1.36,0,0,0,1.33-1,1.45,1.45,0,0,0,.09-.53v-.93Z" transform="translate(-0.02 -0.03)"/><path class="a0a1e5f6-7a0a-4f51-953a-2c6529d716db" d="M71.54,17.15A1.71,1.71,0,0,0,73.37,19a3.62,3.62,0,0,0,1.49-.28l.19.68a4.32,4.32,0,0,1-1.8.34,2.49,2.49,0,0,1-2.63-2.69,2.6,2.6,0,0,1,2.51-2.88,2.23,2.23,0,0,1,2.2,2.51,2,2,0,0,1,0,.46Zm2.85-.68c0-.62-.25-1.58-1.33-1.58a1.58,1.58,0,0,0-1.49,1.58Z" transform="translate(-0.02 -0.03)"/><path class="a0a1e5f6-7a0a-4f51-953a-2c6529d716db" d="M76.22,15.76c0-.56,0-1,0-1.46H77l0,.87h0a1.91,1.91,0,0,1,1.7-1,1.53,1.53,0,0,1,1.49,1.08h0a1.66,1.66,0,0,1,.62-.68,1.73,1.73,0,0,1,1.18-.37c.71,0,1.76.46,1.76,2.32v3.13h-1v-3c0-1.05-.37-1.64-1.15-1.64a1.24,1.24,0,0,0-1.15.87,2.41,2.41,0,0,0-.06.5v3.31h-1V16.44c0-.84-.37-1.46-1.11-1.46a1.37,1.37,0,0,0-1.21,1,1.13,1.13,0,0,0-.06.46v3.22h-1l0-3.87Z" transform="translate(-0.02 -0.03)"/><path class="a0a1e5f6-7a0a-4f51-953a-2c6529d716db" d="M88.85,18.36a7.6,7.6,0,0,0,.09,1.27H88L88,19h0a2,2,0,0,1-1.64.8,1.54,1.54,0,0,1-1.64-1.55c0-1.3,1.15-2,3.22-2v-.09a1.1,1.1,0,0,0-1.21-1.24,2.62,2.62,0,0,0-1.39.4l-.22-.65a3.39,3.39,0,0,1,1.76-.46,1.89,1.89,0,0,1,2,2.17v2Zm-.93-1.42c-1.05,0-2.26.15-2.26,1.21a.85.85,0,0,0,.9.93,1.31,1.31,0,0,0,1.3-.9,1.16,1.16,0,0,0,0-.31l0-.93Z" transform="translate(-0.02 -0.03)"/><path class="a0a1e5f6-7a0a-4f51-953a-2c6529d716db" d="M90.05,15.76c0-.56,0-1,0-1.46h.87l.06.9h0a2,2,0,0,1,1.76-1c.74,0,1.89.43,1.89,2.26v3.19h-1V16.6c0-.87-.31-1.58-1.24-1.58a1.44,1.44,0,0,0-1.3,1,1.87,1.87,0,0,0-.06.46v3.22h-1V15.76Z" transform="translate(-0.02 -0.03)"/><path class="a0a1e5f6-7a0a-4f51-953a-2c6529d716db" d="M100.43,18.86a3,3,0,0,1-.77,2.45,3,3,0,0,1-2,.65,3.46,3.46,0,0,1-1.76-.43l.25-.74a3,3,0,0,0,1.58.43c1,0,1.73-.53,1.73-1.89v-.59h0a1.88,1.88,0,0,1-1.7.9A2.37,2.37,0,0,1,95.5,17a2.55,2.55,0,0,1,2.41-2.82,1.76,1.76,0,0,1,1.67.93h0l0-.8h.87c0,.37,0,.8,0,1.46v3.07Zm-1-2.45A1,1,0,0,0,99.4,16,1.4,1.4,0,0,0,98,14.93c-.93,0-1.58.77-1.58,2,0,1.05.53,1.92,1.58,1.92a1.36,1.36,0,0,0,1.33-1,1.45,1.45,0,0,0,.09-.53v-.93Z" transform="translate(-0.02 -0.03)"/><path class="70adbc78-aa3d-4c9b-ba3b-d5c0454972a7" d="M7.92,8.39a.84.84,0,1,1-.84-.84A.83.83,0,0,1,7.92,8.39Z" transform="translate(-0.02 -0.03)"/><path class="70adbc78-aa3d-4c9b-ba3b-d5c0454972a7" d="M10.43,8.39a.84.84,0,1,1-.84-.84A.81.81,0,0,1,10.43,8.39Z" transform="translate(-0.02 -0.03)"/><path class="4b597648-1dbc-4c7a-bb38-46d236c27ce3" d="M12.44,9.26a4.17,4.17,0,0,1-8,.53" transform="translate(-0.02 -0.03)"/><path class="4b597648-1dbc-4c7a-bb38-46d236c27ce3" d="M4.3,7.46a4.17,4.17,0,0,1,8-.53" transform="translate(-0.02 -0.03)"/><polyline class="4b597648-1dbc-4c7a-bb38-46d236c27ce3" points="12.95 6.01 12.51 7.4 10.99 6.94"/><polyline class="4b597648-1dbc-4c7a-bb38-46d236c27ce3" points="5.73 9.85 4.25 9.29 3.69 10.81"/><line class="4b597648-1dbc-4c7a-bb38-46d236c27ce3" x1="8.33" y1="2.88" x2="8.33" y2="0.5"/><line class="4b597648-1dbc-4c7a-bb38-46d236c27ce3" x1="12.2" y1="4.46" x2="13.87" y2="2.79"/><line class="4b597648-1dbc-4c7a-bb38-46d236c27ce3" x1="13.78" y1="8.33" x2="16.17" y2="8.33"/><line class="4b597648-1dbc-4c7a-bb38-46d236c27ce3" x1="12.2" y1="12.2" x2="13.87" y2="13.91"/><line class="4b597648-1dbc-4c7a-bb38-46d236c27ce3" x1="8.33" y1="13.81" x2="8.33" y2="16.2"/><line class="4b597648-1dbc-4c7a-bb38-46d236c27ce3" x1="4.46" y1="12.2" x2="2.79" y2="13.91"/><line class="4b597648-1dbc-4c7a-bb38-46d236c27ce3" x1="2.85" y1="8.33" x2="0.5" y2="8.33"/><line class="4b597648-1dbc-4c7a-bb38-46d236c27ce3" x1="4.46" y1="4.46" x2="2.79" y2="2.79"/></svg>