<svg id="c8793665-cf56-445c-b8c2-e44860515cfb" data-name="Layer 1" 
    xmlns="http://www.w3.org/2000/svg" viewBox="0 0 500 143.41">
    <defs>
        <style>.\36 c823470-92f9-4550-83d1-c9cc56a109e6{fill:#ff0d00;}</style>
    </defs>
    <title>kanthal</title>
    <polygon class="6c823470-92f9-4550-83d1-c9cc56a109e6" points="0 73.67 22.81 73.67 22.81 51.63 28.23 45.93 44.95 73.67 72.31 73.67 44.18 30.26 69.6 4.07 42.82 4.07 22.81 26.59 22.81 4.07 0 4.07 0 73.67"/>
    <path class="6c823470-92f9-4550-83d1-c9cc56a109e6" d="M88.63,73.87l2.61-9.18H114l2.71,9.18h22.72L114.44,4.27H91.24L66.3,73.87ZM110,50.19H95.59l7-24.94Z" transform="translate(0 -0.2)"/>
    <polygon class="6c823470-92f9-4550-83d1-c9cc56a109e6" points="165.28 4.07 143.92 4.07 143.92 73.67 165.77 73.67 165.77 51.63 164.9 35.77 189.74 73.67 211.1 73.67 211.1 4.07 189.25 4.07 189.25 26.2 190.12 42.06 165.28 4.07"/>
    <polygon class="6c823470-92f9-4550-83d1-c9cc56a109e6" points="217.57 22.34 238.06 22.34 238.06 73.67 260.87 73.67 260.87 22.34 281.37 22.34 281.37 4.07 217.57 4.07 217.57 22.34"/>
    <polygon class="6c823470-92f9-4550-83d1-c9cc56a109e6" points="310.66 73.67 310.66 46.7 332.22 46.7 332.22 73.67 355.04 73.67 355.04 4.07 332.22 4.07 332.22 27.56 310.66 27.56 310.66 4.07 287.85 4.07 287.85 73.67 310.66 73.67"/>
    <path class="6c823470-92f9-4550-83d1-c9cc56a109e6" d="M381.9,73.87l2.61-9.18h22.71l2.7,9.18h22.72L407.71,4.27h-23.2l-24.94,69.6Zm21.36-23.68h-14.4l7.05-24.94Z" transform="translate(0 -0.2)"/>
    <polygon class="6c823470-92f9-4550-83d1-c9cc56a109e6" points="490.79 73.67 490.79 57.43 460.68 57.43 460.68 4.07 437.86 4.07 437.86 73.67 490.79 73.67"/>
    <path class="6c823470-92f9-4550-83d1-c9cc56a109e6" d="M490.75.2a9.52,9.52,0,0,1,4.56,1.19,8.53,8.53,0,0,1,3.45,3.42,9.32,9.32,0,0,1,0,9.25,8.55,8.55,0,0,1-3.42,3.43,9.32,9.32,0,0,1-9.21,0,8.71,8.71,0,0,1-3.43-3.43,9.29,9.29,0,0,1,0-9.25A8.55,8.55,0,0,1,486.2,1.4,9.48,9.48,0,0,1,490.75.2Zm0,1.53a7.9,7.9,0,0,0-3.8,1,7.2,7.2,0,0,0-2.88,2.86,7.67,7.67,0,0,0,0,7.71,7.17,7.17,0,0,0,2.87,2.85,7.67,7.67,0,0,0,7.67,0,7.19,7.19,0,0,0,2.86-2.85,7.72,7.72,0,0,0,0-7.71,7.12,7.12,0,0,0-2.88-2.86A7.89,7.89,0,0,0,490.75,1.73Z" transform="translate(0 -0.2)"/>
    <path class="6c823470-92f9-4550-83d1-c9cc56a109e6" d="M486.7,4.18h3.92a7.39,7.39,0,0,1,2.27.29,3.88,3.88,0,0,1,1.36.73,2.12,2.12,0,0,1,.65,1,4.65,4.65,0,0,1,.16,1.2,3.53,3.53,0,0,1-.39,1.8,2.84,2.84,0,0,1-1.44,1.07l2.3,4.44h-2.35l-2-4h-2.35v4H486.7Zm4.12,4.75c.94,0,1.53-.17,1.75-.5a2,2,0,0,0,.34-1.18,1.24,1.24,0,0,0-.45-1,3.24,3.24,0,0,0-2-.39h-1.68v3Z" transform="translate(0 -0.2)"/>
    <path d="M177.53,118.44a7.94,7.94,0,0,1-.56,3,6.45,6.45,0,0,1-1.57,2.3,7.19,7.19,0,0,1-2.42,1.46,8.92,8.92,0,0,1-3.12.52h-6.58V136h-2.65v-24.8h9.23a9.23,9.23,0,0,1,3.12.51,6.81,6.81,0,0,1,2.42,1.46,6.64,6.64,0,0,1,1.57,2.3A7.79,7.79,0,0,1,177.53,118.44Zm-2.65,0a4.53,4.53,0,0,0-1.46-3.69,5.73,5.73,0,0,0-3.79-1.22h-6.34v9.86h6.34a5.67,5.67,0,0,0,3.79-1.24A4.59,4.59,0,0,0,174.88,118.44Z" transform="translate(0 -0.2)"/>
    <path d="M191.5,136v-1.64a6,6,0,0,1-2.14,1.45,8.27,8.27,0,0,1-2.8.4,9.71,9.71,0,0,1-2.91-.37,4.56,4.56,0,0,1-1.93-1.2,4.14,4.14,0,0,1-1-1.55,5.67,5.67,0,0,1-.33-1.93,4.58,4.58,0,0,1,1.51-3.61,6.46,6.46,0,0,1,4.41-1.34h5.15v-1.64a3.69,3.69,0,0,0-1-2.82,4.91,4.91,0,0,0-3.38-.94,6.28,6.28,0,0,0-2.61.44,4.41,4.41,0,0,0-1.71,1.51l-1.71-1.57a5.86,5.86,0,0,1,2.56-2,10.15,10.15,0,0,1,3.5-.52,7.83,7.83,0,0,1,5.17,1.45,5.32,5.32,0,0,1,1.69,4.27V136Zm0-7.91h-4.81q-3.83,0-3.83,3a2.6,2.6,0,0,0,.94,2.21,5,5,0,0,0,3,.71,11.32,11.32,0,0,0,2.07-.17,3.29,3.29,0,0,0,1.76-1,4,4,0,0,0,.87-3Z" transform="translate(0 -0.2)"/>
    <path d="M209.67,122.1a4.56,4.56,0,0,0-1.32-1,4.13,4.13,0,0,0-1.64-.28,4.05,4.05,0,0,0-1.71.35,3.56,3.56,0,0,0-1.29,1,4.75,4.75,0,0,0-.82,1.46,5.42,5.42,0,0,0-.3,1.81V136H200.1V118.82h2.51v2.09a4.65,4.65,0,0,1,2-1.69,6.53,6.53,0,0,1,2.8-.61,6.73,6.73,0,0,1,2.21.35,5.13,5.13,0,0,1,1.9,1.25Z" transform="translate(0 -0.2)"/>
    <path d="M219.57,136a4.74,4.74,0,0,1-1.93-.37,3.81,3.81,0,0,1-1.36-1,4.34,4.34,0,0,1-.82-1.47,5.6,5.6,0,0,1-.28-1.77V120.84H213V119h2.16v-5.4h2.51V119h3.66v1.88h-3.66v10.45a2.77,2.77,0,0,0,.56,1.85,2.2,2.2,0,0,0,1.78.66h1.32V136Z" transform="translate(0 -0.2)"/>
    <path d="M248.09,127.39a16.88,16.88,0,0,1-.4,3.74,6.38,6.38,0,0,1-1.69,3.08,6.71,6.71,0,0,1-2.13,1.43,7.68,7.68,0,0,1-5.57,0,6.72,6.72,0,0,1-2.12-1.43,5.6,5.6,0,0,1-1.06-1.45,8.06,8.06,0,0,1-.63-1.64,10.81,10.81,0,0,1-.31-1.79c-.06-.63-.09-1.28-.09-2s0-1.3.09-1.93a10.91,10.91,0,0,1,.31-1.81,8.14,8.14,0,0,1,.63-1.64,5.67,5.67,0,0,1,1.06-1.45,6.72,6.72,0,0,1,2.12-1.43,7.68,7.68,0,0,1,5.57,0,6.71,6.71,0,0,1,2.13,1.43,6.39,6.39,0,0,1,1.69,3.08A16.91,16.91,0,0,1,248.09,127.39Zm-2.51,0c0-.49,0-1,0-1.46a9.51,9.51,0,0,0-.17-1.43,5.86,5.86,0,0,0-.42-1.31,4,4,0,0,0-.73-1.1,4.5,4.5,0,0,0-6.23,0,3.41,3.41,0,0,0-.75,1.1,7.35,7.35,0,0,0-.42,1.31,8.08,8.08,0,0,0-.19,1.43c0,.48,0,1,0,1.46s0,1,0,1.46a8.09,8.09,0,0,0,.19,1.43,7.9,7.9,0,0,0,.42,1.32,3,3,0,0,0,.75,1.08,4.5,4.5,0,0,0,6.23,0,3.54,3.54,0,0,0,.73-1.08,6.23,6.23,0,0,0,.42-1.32,9.52,9.52,0,0,0,.17-1.43C245.57,128.36,245.58,127.87,245.58,127.39Z" transform="translate(0 -0.2)"/>
    <path d="M256.52,120.84V136H254V120.84h-2.19V119H254v-3.25a6,6,0,0,1,.26-1.79,4,4,0,0,1,2.18-2.47,4.6,4.6,0,0,1,1.92-.37h1.81v2.16h-1.36a2.14,2.14,0,0,0-1.76.66,2.88,2.88,0,0,0-.54,1.86V119h3.66v1.88Z" transform="translate(0 -0.2)"/>
    <path d="M289,129.13a6.93,6.93,0,0,1-.61,2.95,6.13,6.13,0,0,1-1.74,2.21,8,8,0,0,1-2.72,1.39,11.78,11.78,0,0,1-3.5.49,13.28,13.28,0,0,1-4.77-.76,10.75,10.75,0,0,1-3.73-2.51l1.81-1.81a8.9,8.9,0,0,0,3.1,2.13,10.32,10.32,0,0,0,3.66.59,6.87,6.87,0,0,0,4.29-1.2,4,4,0,0,0,1.57-3.39,5.14,5.14,0,0,0-.3-1.78,3.22,3.22,0,0,0-.89-1.32,3.72,3.72,0,0,0-1.24-.75,12,12,0,0,0-2-.44l-2.89-.45a9.08,9.08,0,0,1-4.56-1.88,5.87,5.87,0,0,1-1.88-4.63,7.2,7.2,0,0,1,.56-2.87,6,6,0,0,1,1.59-2.21,7.32,7.32,0,0,1,2.49-1.41,10.13,10.13,0,0,1,3.31-.51,11.56,11.56,0,0,1,4.08.65,10.65,10.65,0,0,1,3.31,2.07l-1.7,1.71a8.36,8.36,0,0,0-2.47-1.59,8.77,8.77,0,0,0-3.31-.54,5.48,5.48,0,0,0-3.86,1.25,4.32,4.32,0,0,0-1.36,3.34,3.59,3.59,0,0,0,1.11,2.86,5.55,5.55,0,0,0,1.48.84,10,10,0,0,0,1.87.52l2.72.42c.58.09,1.1.19,1.55.29a8.82,8.82,0,0,1,1.2.37,6.66,6.66,0,0,1,1,.47,5.59,5.59,0,0,1,.82.61A6.11,6.11,0,0,1,289,129.13Z" transform="translate(0 -0.2)"/>
    <path d="M303.76,136v-1.64a6,6,0,0,1-2.14,1.45,8.26,8.26,0,0,1-2.8.4,9.69,9.69,0,0,1-2.91-.37,4.54,4.54,0,0,1-1.93-1.2,4.11,4.11,0,0,1-1-1.55,5.68,5.68,0,0,1-.33-1.93,4.58,4.58,0,0,1,1.51-3.61,6.46,6.46,0,0,1,4.4-1.34h5.16v-1.64a3.67,3.67,0,0,0-1-2.82,4.9,4.9,0,0,0-3.38-.94,6.32,6.32,0,0,0-2.61.44,4.42,4.42,0,0,0-1.7,1.51l-1.71-1.57a5.87,5.87,0,0,1,2.56-2,10.14,10.14,0,0,1,3.5-.52,7.82,7.82,0,0,1,5.17,1.45,5.31,5.31,0,0,1,1.69,4.27V136Zm0-7.91H299q-3.83,0-3.83,3a2.6,2.6,0,0,0,.94,2.21,5,5,0,0,0,3,.71,11.27,11.27,0,0,0,2.07-.17,3.3,3.3,0,0,0,1.76-1,4,4,0,0,0,.87-3Z" transform="translate(0 -0.2)"/>
    <path d="M323.34,136V125.4a4.67,4.67,0,0,0-1.13-3.43,4.77,4.77,0,0,0-6.19,0,4.64,4.64,0,0,0-1.15,3.41V136h-2.51V118.82h2.51v1.88a5.83,5.83,0,0,1,2.13-1.57,6.73,6.73,0,0,1,2.68-.52,5.94,5.94,0,0,1,4.39,1.6,6.39,6.39,0,0,1,1.78,4.77v11Z" transform="translate(0 -0.2)"/>
    <path d="M342.18,136V133.9a5.25,5.25,0,0,1-2.25,1.81,7.37,7.37,0,0,1-2.63.45,6.82,6.82,0,0,1-2.4-.4,4.85,4.85,0,0,1-1.78-1.1,5.42,5.42,0,0,1-1.06-1.5,8.93,8.93,0,0,1-.63-1.79,13.56,13.56,0,0,1-.31-2c-.06-.67-.09-1.35-.09-2s0-1.35.09-2a13.48,13.48,0,0,1,.31-2,8.93,8.93,0,0,1,.63-1.79,5.36,5.36,0,0,1,1.06-1.5,4.74,4.74,0,0,1,1.78-1.1,6.83,6.83,0,0,1,2.4-.4,7.52,7.52,0,0,1,2.61.44,5.21,5.21,0,0,1,2.23,1.76v-9.65h2.5V136Zm0-8.57a20.73,20.73,0,0,0-.14-2.44,6.4,6.4,0,0,0-.59-2.09,3.71,3.71,0,0,0-1.31-1.46,4.8,4.8,0,0,0-4.49,0,3.69,3.69,0,0,0-1.31,1.46,6.63,6.63,0,0,0-.61,2.09,19,19,0,0,0,0,4.88,6.63,6.63,0,0,0,.61,2.09,3.71,3.71,0,0,0,1.31,1.46,4.8,4.8,0,0,0,4.49,0,3.74,3.74,0,0,0,1.31-1.46,6.4,6.4,0,0,0,.59-2.09A20.66,20.66,0,0,0,342.15,127.39Z" transform="translate(0 -0.2)"/>
    <path d="M356.67,136h-2.23l-6.27-17.13h2.72l4.67,13.75,4.7-13.75H363Z" transform="translate(0 -0.2)"/>
    <path d="M366.35,113.95v-2.82h2.82v2.82Zm.14,22V118.82H369V136Z" transform="translate(0 -0.2)"/>
    <path d="M386.58,136l-5.43-8.77L377.81,131V136H375.3v-24.8h2.51v16.58l7.73-8.92h3.13l-5.82,6.55L389.68,136Z" transform="translate(0 -0.2)"/>
    <path d="M419.08,130.56a7.22,7.22,0,0,1-1.64,2.74,8.73,8.73,0,0,1-3,2.15,9.45,9.45,0,0,1-7.07.06,8.67,8.67,0,0,1-2.87-1.92,7.15,7.15,0,0,1-1.34-1.81,8.19,8.19,0,0,1-.7-2.11,16,16,0,0,1-.26-2.64c0-1,0-2.14,0-3.46s0-2.48,0-3.46a16,16,0,0,1,.26-2.65,8.24,8.24,0,0,1,.7-2.11,7.16,7.16,0,0,1,1.34-1.81,8.63,8.63,0,0,1,6.34-2.58,9.49,9.49,0,0,1,3.26.54,8,8,0,0,1,2.6,1.53,8.29,8.29,0,0,1,1.83,2.35,10,10,0,0,1,1,3h-2.64a6.54,6.54,0,0,0-2.11-3.71,5.85,5.85,0,0,0-3.92-1.34,6.06,6.06,0,0,0-2.35.47,5.64,5.64,0,0,0-1.93,1.31,5,5,0,0,0-.94,1.27,5.74,5.74,0,0,0-.52,1.62,16.17,16.17,0,0,0-.23,2.28q-.05,1.34-.05,3.29t.05,3.29a16.65,16.65,0,0,0,.23,2.3,5.73,5.73,0,0,0,.52,1.64,4.89,4.89,0,0,0,.94,1.27,5.38,5.38,0,0,0,1.93,1.29,6.28,6.28,0,0,0,2.35.45,6.41,6.41,0,0,0,2.6-.54,5.62,5.62,0,0,0,2.1-1.59,5.39,5.39,0,0,0,1.08-2,9,9,0,0,0,.31-2.52V125.3h-6.1v-2.37h8.75v3.95A12.21,12.21,0,0,1,419.08,130.56Z" transform="translate(0 -0.2)"/>
    <path d="M434.86,122.1a4.56,4.56,0,0,0-1.32-1,4.14,4.14,0,0,0-1.64-.28,4.05,4.05,0,0,0-1.71.35,3.56,3.56,0,0,0-1.29,1,4.66,4.66,0,0,0-.82,1.46,5.32,5.32,0,0,0-.3,1.81V136h-2.51V118.82h2.51v2.09a4.63,4.63,0,0,1,2-1.69,6.54,6.54,0,0,1,2.81-.61,6.72,6.72,0,0,1,2.21.35,5.13,5.13,0,0,1,1.9,1.25Z" transform="translate(0 -0.2)"/>
    <path d="M451.85,127.39a16.75,16.75,0,0,1-.4,3.74,6.37,6.37,0,0,1-1.69,3.08,6.73,6.73,0,0,1-2.13,1.43,7.68,7.68,0,0,1-5.57,0,6.67,6.67,0,0,1-2.13-1.43,5.65,5.65,0,0,1-1.06-1.45,8.2,8.2,0,0,1-.63-1.64,10.76,10.76,0,0,1-.31-1.79q-.09-.94-.09-2c0-.65,0-1.3.09-1.93a10.85,10.85,0,0,1,.31-1.81,8.28,8.28,0,0,1,.63-1.64,5.72,5.72,0,0,1,1.06-1.45,6.67,6.67,0,0,1,2.13-1.43,7.68,7.68,0,0,1,5.57,0,6.73,6.73,0,0,1,2.13,1.43,6.38,6.38,0,0,1,1.69,3.08A16.78,16.78,0,0,1,451.85,127.39Zm-2.5,0c0-.49,0-1,0-1.46a9.24,9.24,0,0,0-.17-1.43,5.64,5.64,0,0,0-.42-1.31,4.08,4.08,0,0,0-.73-1.1,4.24,4.24,0,0,0-3.13-1.25,4.2,4.2,0,0,0-3.1,1.25,3.4,3.4,0,0,0-.75,1.1,7.58,7.58,0,0,0-.42,1.31,8.74,8.74,0,0,0-.19,1.43c0,.48,0,1,0,1.46s0,1,0,1.46a8.75,8.75,0,0,0,.19,1.43,8.15,8.15,0,0,0,.42,1.32,3,3,0,0,0,.75,1.08,4.2,4.2,0,0,0,3.1,1.25,4.24,4.24,0,0,0,3.13-1.25,3.58,3.58,0,0,0,.73-1.08,6,6,0,0,0,.42-1.32,9.24,9.24,0,0,0,.17-1.43C449.34,128.36,449.35,127.87,449.35,127.39Z" transform="translate(0 -0.2)"/>
    <path d="M468.05,136V134a5.93,5.93,0,0,1-2.14,1.59,6.64,6.64,0,0,1-2.7.54,6,6,0,0,1-4.42-1.6,5.47,5.47,0,0,1-1.32-2.1,8.13,8.13,0,0,1-.42-2.7V118.82h2.51v10.55a4.71,4.71,0,0,0,1.11,3.43,4.12,4.12,0,0,0,3.07,1.13,4.25,4.25,0,0,0,3.12-1.15,4.59,4.59,0,0,0,1.17-3.41V118.82h2.51V136Z" transform="translate(0 -0.2)"/>
    <path d="M490.41,127.39c0,.67,0,1.35-.09,2a13.56,13.56,0,0,1-.31,2,8.92,8.92,0,0,1-.63,1.79,5.43,5.43,0,0,1-1.06,1.5,4.89,4.89,0,0,1-1.78,1.1,6.84,6.84,0,0,1-2.4.4,7.27,7.27,0,0,1-2.61-.45,5.4,5.4,0,0,1-2.23-1.78v9.68h-2.51V118.82h2.51v2a5.16,5.16,0,0,1,2.23-1.79,7.57,7.57,0,0,1,2.61-.44,6.85,6.85,0,0,1,2.4.4,4.78,4.78,0,0,1,1.78,1.1,5.37,5.37,0,0,1,1.06,1.5,8.92,8.92,0,0,1,.63,1.79,13.48,13.48,0,0,1,.31,2C490.38,126,490.41,126.71,490.41,127.39Zm-2.5,0a20.72,20.72,0,0,0-.14-2.44,6.29,6.29,0,0,0-.6-2.09,3.67,3.67,0,0,0-1.31-1.46,4.8,4.8,0,0,0-4.49,0,3.68,3.68,0,0,0-1.31,1.46,6.62,6.62,0,0,0-.61,2.09,19,19,0,0,0,0,4.88,6.62,6.62,0,0,0,.61,2.09,3.71,3.71,0,0,0,1.31,1.46,4.8,4.8,0,0,0,4.49,0,3.7,3.7,0,0,0,1.31-1.46,6.29,6.29,0,0,0,.6-2.09A20.66,20.66,0,0,0,487.9,127.39Z" transform="translate(0 -0.2)"/>
</svg>