<svg id="70b6ce1f-cf71-4ccc-bec1-e953c49fa83f" data-name="Lager 1" xmlns="http://www.w3.org/2000/svg" viewBox="0 0 100 28.75"><defs><style>.e73e4507-c43b-47ba-b9b1-a3c89c4b27ca{fill:#e41b13;}</style></defs><title>kanthal</title><polygon class="e73e4507-c43b-47ba-b9b1-a3c89c4b27ca" points="0 14.72 4.53 14.72 4.53 10.28 5.66 9.15 8.97 14.72 14.46 14.72 8.8 6.01 13.94 0.78 8.54 0.78 4.53 5.31 4.53 0.78 0 0.78 0 14.72"/><path class="e73e4507-c43b-47ba-b9b1-a3c89c4b27ca" d="M17.68,14.72l.52-1.83h4.53l.52,1.83h4.53L22.82.78H18.21l-5,13.94ZM22,9.93H19.08l1.39-5Z"/><polygon class="e73e4507-c43b-47ba-b9b1-a3c89c4b27ca" points="33.01 0.78 28.75 0.78 28.75 14.72 33.19 14.72 33.19 10.28 33.01 7.14 37.98 14.72 42.25 14.72 42.25 0.78 37.89 0.78 37.89 5.23 37.98 8.36 33.01 0.78"/><polygon class="e73e4507-c43b-47ba-b9b1-a3c89c4b27ca" points="43.55 4.44 47.65 4.44 47.65 14.72 52.18 14.72 52.18 4.44 56.27 4.44 56.27 0.78 43.55 0.78 43.55 4.44"/><polygon class="e73e4507-c43b-47ba-b9b1-a3c89c4b27ca" points="62.11 14.72 62.11 9.32 66.46 9.32 66.46 14.72 70.99 14.72 70.99 0.78 66.46 0.78 66.46 5.49 62.11 5.49 62.11 0.78 57.58 0.78 57.58 14.72 62.11 14.72"/><path class="e73e4507-c43b-47ba-b9b1-a3c89c4b27ca" d="M76.39,14.72l.52-1.83h4.53L82,14.72H86.5L81.53.78H76.92L72,14.72Zm4.27-4.79H77.79l1.39-5Z"/><polygon class="e73e4507-c43b-47ba-b9b1-a3c89c4b27ca" points="98.17 14.72 98.17 11.5 92.16 11.5 92.16 0.78 87.63 0.78 87.63 14.72 98.17 14.72"/><path class="e73e4507-c43b-47ba-b9b1-a3c89c4b27ca" d="M98.17,0A1.47,1.47,0,0,1,99,.26a1.78,1.78,0,0,1,.7.7,1.76,1.76,0,0,1,.26,1,2,2,0,0,1-.26,1,1.78,1.78,0,0,1-.7.7,1.76,1.76,0,0,1-1,.26,2,2,0,0,1-1-.26,1.78,1.78,0,0,1-.7-.7,1.76,1.76,0,0,1-.26-1,2,2,0,0,1,.26-1,2.65,2.65,0,0,1,.7-.7A2.62,2.62,0,0,1,98.17,0Zm0,.26a2.54,2.54,0,0,0-.78.17,2,2,0,0,0-.61.61,1.29,1.29,0,0,0-.17.78,2.54,2.54,0,0,0,.17.78,2,2,0,0,0,.61.61,1.29,1.29,0,0,0,.78.17A2.54,2.54,0,0,0,99,3.22a2,2,0,0,0,.61-.61,1.29,1.29,0,0,0,.17-.78A2.54,2.54,0,0,0,99.56,1,2,2,0,0,0,99,.44,2.54,2.54,0,0,0,98.17.26Z"/><path class="e73e4507-c43b-47ba-b9b1-a3c89c4b27ca" d="M97.39.78h.78a.65.65,0,0,1,.44.09c.09,0,.17.09.26.17l.17.17v.26c0,.17,0,.26-.09.35s-.17.17-.26.17l.44.87h-.44l-.44-.78h-.44v.78h-.44Zm.78,1c.17,0,.35,0,.35-.09a.32.32,0,0,0,.09-.26c0-.09,0-.17-.09-.17s-.17-.09-.35-.09h-.35v.61Z"/><path d="M35.54,23.61a1.29,1.29,0,0,1-.09.61.87.87,0,0,1-.35.44c-.17.09-.26.26-.52.26A1.48,1.48,0,0,1,34,25H32.67v2h-.52V22H34a1.29,1.29,0,0,1,.61.09l.52.26a.87.87,0,0,1,.35.44C35.45,23.17,35.54,23.43,35.54,23.61Zm-.61,0c0-.35-.09-.61-.26-.7a1.06,1.06,0,0,0-.78-.26H32.58v2h1.31a1.22,1.22,0,0,0,.78-.26A1.06,1.06,0,0,0,34.93,23.61Z"/><path d="M38.33,27.09v-.35c-.17.17-.26.26-.44.26a1.1,1.1,0,0,1-.52.09,1.29,1.29,0,0,1-.61-.09c-.17-.09-.26-.09-.35-.26a.45.45,0,0,1-.17-.35.52.52,0,0,1-.09-.35,1,1,0,0,1,.26-.7,1.3,1.3,0,0,1,.87-.26h1v-.35a.74.74,0,0,0-.17-.52,1.35,1.35,0,0,0-.7-.17c-.26,0-.44,0-.52.09s-.26.17-.35.26L36.24,24a2.31,2.31,0,0,1,.52-.44,1.7,1.7,0,0,1,.7-.09,1.86,1.86,0,0,1,1,.26.92.92,0,0,1,.35.87V27l-.52.09Zm0-1.57h-1c-.52,0-.78.17-.78.61a.67.67,0,0,0,.17.44,1,1,0,0,0,.61.17h.44a.66.66,0,0,0,.35-.17,1,1,0,0,0,.17-.61v-.44Z"/><path d="M41.9,24.39c-.09-.09-.17-.17-.26-.17s-.17-.09-.35-.09a.52.52,0,0,0-.35.09c-.09.09-.17.09-.26.17s-.09.17-.17.26-.09.26-.09.35v2.09H39.9v-3.4h.52v.44a.87.87,0,0,1,.44-.35,1.1,1.1,0,0,1,.52-.09.65.65,0,0,1,.44.09c.17.09.26.09.35.26Z"/><path d="M43.9,27.09c-.17,0-.26,0-.35-.09s-.17-.09-.26-.17-.09-.17-.17-.26-.09-.26-.09-.35V24.13H42.6v-.35H43V22.65h.52v1h.7V24h-.7v2.09c0,.17,0,.26.09.35a.45.45,0,0,0,.35.17h.26v.44Z"/><path d="M49.65,25.44a2.41,2.41,0,0,1-.09.78,1.4,1.4,0,0,1-.35.61,1.9,1.9,0,0,1-.44.26,1.1,1.1,0,0,1-.52.09c-.17,0-.44,0-.52-.09s-.26-.17-.44-.26-.17-.17-.17-.26-.09-.17-.09-.35S47,26,47,25.87v-.7a.52.52,0,0,1,.09-.35c0-.09.09-.26.09-.35s.09-.17.17-.26a1.9,1.9,0,0,1,.44-.26,1.1,1.1,0,0,1,.52-.09c.17,0,.44,0,.52.09s.26.17.44.26a1.4,1.4,0,0,1,.35.61A4.91,4.91,0,0,1,49.65,25.44Zm-.52,0v-.52c0-.09-.09-.17-.09-.26s-.09-.17-.17-.26a.84.84,0,0,0-1.22,0c-.09.09-.09.17-.17.26s-.09.17-.09.26v1c0,.09.09.17.09.26a.19.19,0,0,0,.17.17.84.84,0,0,0,1.22,0c.09-.09.09-.17.17-.17s.09-.17.09-.26v-.52Z"/><path d="M51.31,24.13v3h-.52v-3h-.44v-.35h.44v-.61a.52.52,0,0,1,.09-.35c0-.09.09-.17.17-.26s.17-.17.26-.17a.52.52,0,0,1,.35-.09H52v.44h-.26a.45.45,0,0,0-.35.17c-.09.09-.09.17-.09.35v.61H52v.35h-.7Z"/><path d="M57.84,25.78a1.29,1.29,0,0,1-.09.61.87.87,0,0,1-.35.44l-.52.26a1.7,1.7,0,0,1-.7.09,3.13,3.13,0,0,1-1-.17,2.06,2.06,0,0,1-.78-.52l.35-.35a2.65,2.65,0,0,0,.61.44,1.7,1.7,0,0,0,.7.09,1.47,1.47,0,0,0,.87-.26.91.91,0,0,0,.35-.7.52.52,0,0,0-.09-.35c0-.09-.09-.17-.17-.26s-.17-.09-.26-.17a3.77,3.77,0,0,0-.44-.09l-.61-.09a1.64,1.64,0,0,1-.87-.35,1.19,1.19,0,0,1-.35-1,1.48,1.48,0,0,1,.09-.61.87.87,0,0,1,.35-.44,2.9,2.9,0,0,1,.52-.26,1.7,1.7,0,0,1,.7-.09,1.93,1.93,0,0,1,.78.09,3.06,3.06,0,0,1,.7.44l-.35.35a1.82,1.82,0,0,0-.52-.35,1.7,1.7,0,0,0-.7-.09,1.06,1.06,0,0,0-.78.26.86.86,0,0,0-.26.7.79.79,0,0,0,.26.61c.09.09.17.09.26.17a.52.52,0,0,0,.35.09l.52.09a.52.52,0,0,1,.35.09c.09,0,.17.09.26.09a.3.3,0,0,1,.17.09c.09,0,.09.09.17.09A1.44,1.44,0,0,1,57.84,25.78Z"/><path d="M60.8,27.09v-.35c-.17.17-.26.26-.44.26a1.1,1.1,0,0,1-.52.09,1.29,1.29,0,0,1-.61-.09c-.17-.09-.26-.09-.35-.26a.45.45,0,0,1-.17-.35.52.52,0,0,1-.09-.35,1,1,0,0,1,.26-.7,1.3,1.3,0,0,1,.87-.26h1v-.35a.74.74,0,0,0-.17-.52,1.35,1.35,0,0,0-.7-.17c-.26,0-.44,0-.52.09s-.26.17-.35.26L58.71,24a2.31,2.31,0,0,1,.52-.44,1.7,1.7,0,0,1,.7-.09,1.86,1.86,0,0,1,1,.26.92.92,0,0,1,.35.87V27l-.52.09Zm0-1.57h-1c-.52,0-.78.17-.78.61a.67.67,0,0,0,.17.44,1,1,0,0,0,.61.17h.44a.66.66,0,0,0,.35-.17A1,1,0,0,0,60.8,26v-.44Z"/><path d="M64.63,27.09V25a.86.86,0,0,0-.26-.7.84.84,0,0,0-1.22,0,.86.86,0,0,0-.26.7v2.09h-.52v-3.4h.52V24a.87.87,0,0,1,.44-.35,1.1,1.1,0,0,1,.52-.09,1,1,0,0,1,.87.35,1.19,1.19,0,0,1,.35,1v2.18Z"/><path d="M68.47,27.09v-.44A1.53,1.53,0,0,1,68,27a1.61,1.61,0,0,1-1,0c-.17-.09-.26-.09-.35-.26s-.17-.17-.17-.26a.52.52,0,0,1-.09-.35,3.77,3.77,0,0,1-.09-.44v-.87a.79.79,0,0,1,.09-.44c0-.09.09-.26.09-.35s.09-.17.17-.26a1.2,1.2,0,0,1,.35-.26.94.94,0,0,1,.52-.09,1.1,1.1,0,0,1,.52.09.87.87,0,0,1,.44.35V22H69v5h-.52Zm0-1.66v-.52c0-.17-.09-.26-.09-.44s-.17-.26-.26-.26a1.13,1.13,0,0,0-.87,0l-.26.26a.65.65,0,0,0-.09.44v1c0,.17.09.26.09.44s.17.26.26.26a1.13,1.13,0,0,0,.87,0l.26-.26a.65.65,0,0,0,.09-.44Z"/><path d="M71.34,27.09h-.44l-1.22-3.4h.52l1,2.79,1-2.79h.52Z"/><path d="M73.26,22.74v-.52h.52v.52Zm.09,4.36v-3.4h.52v3.4Z"/><path d="M77.35,27.09l-1-1.74-.7.78v1h-.52v-5h.52v3.31l1.57-1.74h.61L76.66,25,78,27.09Z"/><path d="M83.8,26a1.82,1.82,0,0,1-.35.52,1.56,1.56,0,0,1-.61.44,1.48,1.48,0,0,1-1.39,0,2.18,2.18,0,0,1-.61-.35c-.09-.09-.17-.26-.26-.35s-.09-.26-.17-.44-.09-.35-.09-.52V24a1.1,1.1,0,0,1,.09-.52c0-.17.09-.26.17-.44s.17-.26.26-.35a1.77,1.77,0,0,1,1.31-.52,1.29,1.29,0,0,1,.61.09,1.82,1.82,0,0,1,.52.35,1.53,1.53,0,0,1,.35.44,1.26,1.26,0,0,1,.17.61h-.52a1.41,1.41,0,0,0-.44-.78,1.06,1.06,0,0,0-.78-.26.65.65,0,0,0-.44.09,1.2,1.2,0,0,0-.35.26c-.09.09-.17.17-.17.26s-.09.17-.09.35a1,1,0,0,1-.09.44v1.39a.65.65,0,0,0,.09.44c0,.09.09.26.09.35s.09.17.17.26.26.17.35.26a1,1,0,0,0,.44.09,1.1,1.1,0,0,0,.52-.09.87.87,0,0,0,.44-.35.67.67,0,0,0,.17-.44c0-.17.09-.35.09-.52V25H82.06v-.44H83.8v.78A.66.66,0,0,1,83.8,26Z"/><path d="M87,24.39c-.09-.09-.17-.17-.26-.17s-.17-.09-.35-.09a.52.52,0,0,0-.35.09c-.09.09-.17.09-.26.17s-.09.17-.17.26-.09.26-.09.35v2.09H85v-3.4h.52v.44a.87.87,0,0,1,.44-.35,1.1,1.1,0,0,1,.52-.09.65.65,0,0,1,.44.09c.17.09.26.09.35.26Z"/><path d="M90.42,25.44a2.41,2.41,0,0,1-.09.78,1.4,1.4,0,0,1-.35.61,1.9,1.9,0,0,1-.44.26,1.1,1.1,0,0,1-.52.09c-.17,0-.44,0-.52-.09s-.26-.17-.44-.26-.17-.17-.17-.26-.09-.17-.09-.35-.09-.26-.09-.35v-.7a.52.52,0,0,1,.09-.35c0-.09.09-.26.09-.35s.09-.17.17-.26A1.9,1.9,0,0,1,88.5,24a1.1,1.1,0,0,1,.52-.09c.17,0,.44,0,.52.09s.26.17.44.26a1.4,1.4,0,0,1,.35.61A4.91,4.91,0,0,1,90.42,25.44Zm-.52,0v-.52c0-.09-.09-.17-.09-.26s-.09-.17-.17-.26a.84.84,0,0,0-1.22,0c-.09.09-.09.17-.17.26s-.09.17-.09.26v1c0,.09.09.17.09.26a.19.19,0,0,0,.17.17.84.84,0,0,0,1.22,0c.09-.09.09-.17.17-.17s.09-.17.09-.26v-.52Z"/><path d="M93.64,27.09v-.35a.87.87,0,0,1-.44.35,1.1,1.1,0,0,1-.52.09,1,1,0,0,1-.87-.35,1.9,1.9,0,0,1-.26-.44,1.1,1.1,0,0,1-.09-.52V23.69H92v2.09a.86.86,0,0,0,.26.7.84.84,0,0,0,1.22,0,.86.86,0,0,0,.26-.7V23.69h.52v3.4Z"/><path d="M98.08,25.44v.44a.79.79,0,0,1-.09.44c0,.09-.09.26-.09.35s-.09.17-.17.26a1.2,1.2,0,0,1-.35.26.94.94,0,0,1-.52.09,1.1,1.1,0,0,1-.52-.09.87.87,0,0,1-.44-.35v1.92h-.52v-5h.52v.44a1.53,1.53,0,0,1,.44-.35,1.61,1.61,0,0,1,1,0c.17.09.26.09.35.26s.17.17.17.26a.52.52,0,0,1,.09.35,3.77,3.77,0,0,1,.09.44Zm-.44,0v-.52c0-.17-.09-.26-.09-.44s-.17-.26-.26-.26a1.13,1.13,0,0,0-.87,0l-.26.26a.65.65,0,0,0-.09.44v1c0,.17.09.26.09.44s.17.26.26.26a1.13,1.13,0,0,0,.87,0l.26-.26a.65.65,0,0,0,.09-.44C97.56,25.78,97.65,25.61,97.65,25.44Z"/></svg>