<svg id="fd1dc4ab-e0cc-4a51-8b76-6914a2f6d32e" data-name="Layer 1" xmlns="http://www.w3.org/2000/svg" xmlns:xlink="http://www.w3.org/1999/xlink" viewBox="0 0 500 213.95"><defs><style>.\33 aa5efd5-9aef-43e2-b7f2-3e342cf6166c,.\34 9cf7a24-e012-43cd-b6bd-6da4df5f6413{fill:none;}.\32 cc93ba9-bf54-4b32-a56a-106fe3313fc8{clip-path:url(#9eb01915-beaa-4eb4-912e-c76d3a2c3301);}.\34 e14bacc-5e81-41e5-b5b0-1a2d28502656{clip-path:url(#c4e22ade-91fa-4c15-941a-36623d8f3e54);}.d2f5c928-b2a0-42da-8db2-83404b415fc2,.fabd842a-a07c-4e46-b137-c5d6eaea0027{fill:#f39800;}.fabd842a-a07c-4e46-b137-c5d6eaea0027{fill-rule:evenodd;}.\36 47adaf1-4c7a-4ca5-9a4e-fe7ea2fe5e70{fill:#fff;}.\33 aa5efd5-9aef-43e2-b7f2-3e342cf6166c{stroke:#fff;stroke-miterlimit:10;stroke-width:1.59px;}</style><clipPath id="9eb01915-beaa-4eb4-912e-c76d3a2c3301" transform="translate(0 1.56)"><rect class="49cf7a24-e012-43cd-b6bd-6da4df5f6413" width="500" height="212.39"/></clipPath><clipPath id="c4e22ade-91fa-4c15-941a-36623d8f3e54" transform="translate(0 1.56)"><rect class="49cf7a24-e012-43cd-b6bd-6da4df5f6413" width="500" height="160.08"/></clipPath></defs><title>kfast</title><g class="2cc93ba9-bf54-4b32-a56a-106fe3313fc8"><path d="M21.16,211.68,12.69,196.6l-5,5.89v9.19H1.44V180.46H7.69v8.88c0,1.16,0,4-.09,5,.45-.71,1.6-2.14,2.45-3.17l8.74-10.66h7.54l-9.14,10.79,11.46,20.43Z" transform="translate(0 1.56)"/><path d="M47.48,212.17c-8.52,0-13.56-6.6-13.56-16.1S39,180,47.48,180,61,186.57,61,196.07s-5,16.1-13.56,16.1m0-26c-5,0-7.14,4.33-7.14,9.9s2.1,9.9,7.14,9.9,7.14-4.33,7.14-9.9-2.1-9.9-7.14-9.9" transform="translate(0 1.56)"/><path d="M94.85,211.68V200.22c0-1.7.09-5.67.09-6.87-.45,1.16-1.38,3.39-2.19,5.17l-6.33,13.87-6.33-13.87c-.8-1.78-1.74-4-2.19-5.17,0,1.2.09,5.17.09,6.87v11.46H71.88V180.46h6l6.51,14.14c.8,1.74,1.74,4.1,2.14,5.22.4-1.16,1.29-3.43,2.1-5.22l6.29-14.14h6.16v31.22Z" transform="translate(0 1.56)"/><path d="M136.55,211.68V200.22c0-1.7.09-5.67.09-6.87-.45,1.16-1.38,3.39-2.19,5.17l-6.33,13.87-6.33-13.87c-.8-1.78-1.74-4-2.19-5.17,0,1.2.09,5.17.09,6.87v11.46h-6.11V180.46h6l6.51,14.14c.8,1.74,1.74,4.1,2.14,5.22.4-1.16,1.29-3.43,2.1-5.22l6.29-14.14h6.16v31.22Z" transform="translate(0 1.56)"/><path d="M167.69,212.17c-7.54,0-12.62-5.08-12.62-14.18V180.46h6.24V197.9c0,5,2.41,8.16,6.38,8.16s6.42-3.08,6.42-8.07V180.46h6.25V197.9c0,9.05-4.73,14.27-12.67,14.27" transform="translate(0 1.56)"/><path d="M212.34,211.68l-11.46-17c-.76-1.16-1.78-2.72-2.19-3.52,0,1.16.09,5.08.09,6.82v13.74h-6.16V180.46h6L209.66,197c.76,1.16,1.78,2.72,2.19,3.52,0-1.16-.09-5.08-.09-6.82v-13.2h6.16v31.22Z" transform="translate(0 1.56)"/><polygon points="236.65 188.13 236.65 194.01 246.06 194.01 246.06 200.08 236.65 200.08 236.65 213.24 230.4 213.24 230.4 182.02 252.75 182.02 252.75 188.13 236.65 188.13"/><path d="M276.39,211.68l-2.45-7H262.52l-2.45,7h-6.69l12-31.22h6.07l11.86,31.22Zm-6.6-18.56c-.63-1.83-1.25-3.7-1.56-4.86-.31,1.16-.94,3-1.56,4.86l-2,5.67h7.14Z" transform="translate(0 1.56)"/><path d="M301,212.17c-5.22,0-9.77-2.19-12.13-5.67l4.51-4a10.11,10.11,0,0,0,8,3.57c3.7,0,5.44-1,5.44-3.39,0-2-1.07-2.9-7-4.24s-9.77-3.17-9.77-9.32c0-5.67,5-9.14,11.15-9.14a14.92,14.92,0,0,1,11.37,4.91l-4.51,4.37A9.52,9.52,0,0,0,301,186c-3.35,0-4.46,1.43-4.46,2.81,0,2,1.34,2.59,6.29,3.75s10.44,2.85,10.44,9.63c0,5.93-3.75,9.95-12.27,9.95" transform="translate(0 1.56)"/><polygon points="335.5 188.17 335.5 213.24 329.25 213.24 329.25 188.17 320.28 188.17 320.28 182.02 344.46 182.02 344.46 188.17 335.5 188.17"/><rect x="355.39" y="182.02" width="6.24" height="31.22"/><path d="M385.68,212.17c-8.16,0-13.65-6.24-13.65-16.1,0-9.5,5.71-16.1,13.87-16.1,6.38,0,9.77,3,11.82,7.81l-5.93,2.45c-1.16-2.32-2.59-4.06-6-4.06-4.68,0-7.36,4.1-7.36,9.9s2.72,10,7.4,10c4.28,0,5.75-2,6.11-4.73h-5v-5.84h11.2v4.1c0,8-5.31,12.58-12.53,12.58" transform="translate(0 1.56)"/><polygon points="428.32 213.24 428.32 200.13 415.52 200.13 415.52 213.24 409.27 213.24 409.27 182.02 415.52 182.02 415.52 193.97 428.32 193.97 428.32 182.02 434.56 182.02 434.56 213.24 428.32 213.24"/><polygon points="445.27 213.24 445.27 182.02 466.95 182.02 466.95 188.13 451.51 188.13 451.51 193.53 460.48 193.53 460.48 199.59 451.51 199.59 451.51 207.13 467.62 207.13 467.62 213.24 445.27 213.24"/><polygon points="491.03 188.17 491.03 213.24 484.79 213.24 484.79 188.17 475.82 188.17 475.82 182.02 500 182.02 500 188.17 491.03 188.17"/></g><g class="4e14bacc-5e81-41e5-b5b0-1a2d28502656"><path class="d2f5c928-b2a0-42da-8db2-83404b415fc2" d="M4.18,47.35A4.17,4.17,0,1,0,0,43.18a4.17,4.17,0,0,0,4.17,4.17" transform="translate(0 1.56)"/><path class="d2f5c928-b2a0-42da-8db2-83404b415fc2" d="M4.18,84A4.17,4.17,0,1,0,0,79.83,4.17,4.17,0,0,0,4.18,84" transform="translate(0 1.56)"/><path class="d2f5c928-b2a0-42da-8db2-83404b415fc2" d="M4.18,120.3A4.17,4.17,0,1,0,0,116.13a4.17,4.17,0,0,0,4.17,4.17" transform="translate(0 1.56)"/><path class="d2f5c928-b2a0-42da-8db2-83404b415fc2" d="M43.85,49A5.82,5.82,0,1,0,38,43.18,5.82,5.82,0,0,0,43.85,49" transform="translate(0 1.56)"/><path class="d2f5c928-b2a0-42da-8db2-83404b415fc2" d="M43.85,85.47A5.82,5.82,0,1,0,38,79.66a5.82,5.82,0,0,0,5.81,5.82" transform="translate(0 1.56)"/><path class="d2f5c928-b2a0-42da-8db2-83404b415fc2" d="M43.85,122.12A5.82,5.82,0,1,0,38,116.3a5.82,5.82,0,0,0,5.81,5.82" transform="translate(0 1.56)"/><path class="d2f5c928-b2a0-42da-8db2-83404b415fc2" d="M83.17,50.94a7.59,7.59,0,1,0-7.58-7.59,7.59,7.59,0,0,0,7.58,7.59" transform="translate(0 1.56)"/><path class="d2f5c928-b2a0-42da-8db2-83404b415fc2" d="M83.17,87.42a7.58,7.58,0,1,0-7.58-7.59,7.59,7.59,0,0,0,7.58,7.59" transform="translate(0 1.56)"/><path class="d2f5c928-b2a0-42da-8db2-83404b415fc2" d="M83.17,123.89a7.59,7.59,0,1,0-7.58-7.59,7.59,7.59,0,0,0,7.58,7.59" transform="translate(0 1.56)"/><path class="d2f5c928-b2a0-42da-8db2-83404b415fc2" d="M123,52.78A9.73,9.73,0,1,0,113.29,43,9.73,9.73,0,0,0,123,52.78" transform="translate(0 1.56)"/><path class="d2f5c928-b2a0-42da-8db2-83404b415fc2" d="M123,89.44a9.74,9.74,0,1,0-9.73-9.74A9.74,9.74,0,0,0,123,89.44" transform="translate(0 1.56)"/><path class="d2f5c928-b2a0-42da-8db2-83404b415fc2" d="M123,125.91a9.73,9.73,0,1,0-9.73-9.74,9.74,9.74,0,0,0,9.73,9.74" transform="translate(0 1.56)"/><path class="d2f5c928-b2a0-42da-8db2-83404b415fc2" d="M158.94,54.13A10.9,10.9,0,1,0,148,43.23a10.89,10.89,0,0,0,10.9,10.9" transform="translate(0 1.56)"/><path class="d2f5c928-b2a0-42da-8db2-83404b415fc2" d="M158.94,90.78A10.91,10.91,0,1,0,148,79.88a10.9,10.9,0,0,0,10.9,10.9" transform="translate(0 1.56)"/><path class="d2f5c928-b2a0-42da-8db2-83404b415fc2" d="M158.94,127.25a10.9,10.9,0,1,0-10.9-10.9,10.9,10.9,0,0,0,10.9,10.9" transform="translate(0 1.56)"/><path class="d2f5c928-b2a0-42da-8db2-83404b415fc2" d="M192.36,56.4A13.4,13.4,0,1,0,179,43a13.4,13.4,0,0,0,13.39,13.4" transform="translate(0 1.56)"/><path class="d2f5c928-b2a0-42da-8db2-83404b415fc2" d="M192.36,93.23A13.4,13.4,0,1,0,179,79.83a13.39,13.39,0,0,0,13.39,13.4" transform="translate(0 1.56)"/><path class="d2f5c928-b2a0-42da-8db2-83404b415fc2" d="M192.36,129.88A13.4,13.4,0,1,0,179,116.48a13.39,13.39,0,0,0,13.39,13.4" transform="translate(0 1.56)"/><path class="d2f5c928-b2a0-42da-8db2-83404b415fc2" d="M43.85,158.42A5.82,5.82,0,1,0,38,152.6a5.81,5.81,0,0,0,5.81,5.82" transform="translate(0 1.56)"/><path class="d2f5c928-b2a0-42da-8db2-83404b415fc2" d="M4.18,157.13A4.17,4.17,0,1,0,0,153a4.17,4.17,0,0,0,4.17,4.17" transform="translate(0 1.56)"/><path class="fabd842a-a07c-4e46-b137-c5d6eaea0027" d="M4.44,2.49A4.17,4.17,0,1,0,8.61,6.66,4.17,4.17,0,0,0,4.44,2.49" transform="translate(0 1.56)"/><path class="fabd842a-a07c-4e46-b137-c5d6eaea0027" d="M43.85.58A5.82,5.82,0,1,0,49.66,6.4,5.81,5.81,0,0,0,43.85.58" transform="translate(0 1.56)"/><path class="fabd842a-a07c-4e46-b137-c5d6eaea0027" d="M75.76,6.75A7.59,7.59,0,1,0,84.92-.67H81.78a7.59,7.59,0,0,0-6,7.42" transform="translate(0 1.56)"/><path class="fabd842a-a07c-4e46-b137-c5d6eaea0027" d="M113.11,6.57A9.73,9.73,0,1,0,129.33-.67h-13a9.71,9.71,0,0,0-3.24,7.24" transform="translate(0 1.56)"/><path class="d2f5c928-b2a0-42da-8db2-83404b415fc2" d="M148,7A10.9,10.9,0,1,0,166.71-.67H151.13A10.84,10.84,0,0,0,148,7" transform="translate(0 1.56)"/><path class="fabd842a-a07c-4e46-b137-c5d6eaea0027" d="M179,6.57A13.39,13.39,0,1,0,203.62-.67H181.1A13.33,13.33,0,0,0,179,6.57" transform="translate(0 1.56)"/><path class="fabd842a-a07c-4e46-b137-c5d6eaea0027" d="M205.76,152.6a13.4,13.4,0,1,0-23.92,8.27h21.06a13.35,13.35,0,0,0,2.87-8.27" transform="translate(0 1.56)"/><path class="d2f5c928-b2a0-42da-8db2-83404b415fc2" d="M169.85,153a10.91,10.91,0,1,0-18.44,7.86h15.07a10.87,10.87,0,0,0,3.37-7.86" transform="translate(0 1.56)"/><path class="fabd842a-a07c-4e46-b137-c5d6eaea0027" d="M132.75,153a9.73,9.73,0,1,0-15.45,7.86h11.42a9.7,9.7,0,0,0,4-7.86" transform="translate(0 1.56)"/><path class="d2f5c928-b2a0-42da-8db2-83404b415fc2" d="M83.17,160.37a7.58,7.58,0,1,0-7.58-7.59,7.59,7.59,0,0,0,7.58,7.59" transform="translate(0 1.56)"/><path class="fabd842a-a07c-4e46-b137-c5d6eaea0027" d="M311.09,100.36a21.7,21.7,0,0,0-2.94-2.42,22.21,22.21,0,0,0,3.09-2.57,22,22,0,0,0,2.93,2.48,23.36,23.36,0,0,0-3.08,2.51M310.92,137a22.41,22.41,0,0,0-2.85-2.37,23.1,23.1,0,0,0,3-2.45,20.94,20.94,0,0,0,2.79,2.31,23.14,23.14,0,0,0-2.91,2.51m3.23-75.47a23.36,23.36,0,0,0-2.83,2.39,21.13,21.13,0,0,0-3-2.51,23.2,23.2,0,0,0,2.85-2.31,22.78,22.78,0,0,0,3,2.44m-2.81-39.79a22.73,22.73,0,0,0,2.73,3,22.76,22.76,0,0,0-2.72,2.2,22.6,22.6,0,0,0-3.13-2.54,22.84,22.84,0,0,0,3.12-2.68M276.17,68.68a19.88,19.88,0,0,0-8.33-7.54,19.8,19.8,0,0,0,8.44-7.71,22.44,22.44,0,0,0,6.84,7.72,22.35,22.35,0,0,0-7,7.53m.06,36.56A20,20,0,0,0,267,97.32a19.89,19.89,0,0,0,8.86-7.4,22.37,22.37,0,0,0,7.09,8,22.33,22.33,0,0,0-6.7,7.3m-.2,36.34a20,20,0,0,0-9-7.66,19.83,19.83,0,0,0,8.78-7.29,22.46,22.46,0,0,0,6.84,7.78,22.54,22.54,0,0,0-6.67,7.17M276,17.14A22.25,22.25,0,0,0,283,24.82a22.52,22.52,0,0,0-6.94,8,19.89,19.89,0,0,0-9.46-8A19.83,19.83,0,0,0,276,17.14m58.54-18L211-.76A16.41,16.41,0,1,0,240.67,13.3a19.94,19.94,0,0,0,11.22,11.55,19.9,19.9,0,0,0-11.16,11.33,16.43,16.43,0,1,0-.07,14,19.92,19.92,0,0,0,10,11,19.9,19.9,0,0,0-10.09,11.2,16.44,16.44,0,1,0,.21,14,19.92,19.92,0,0,0,10.82,11,19.9,19.9,0,0,0-10.82,11.25,16.44,16.44,0,1,0,0,14.18,19.93,19.93,0,0,0,10.69,11.1,19.93,19.93,0,0,0-11,11.72,16.42,16.42,0,1,0-29.11,15.18H500V-.85Z" transform="translate(0 1.56)"/><path class="647adaf1-4c7a-4ca5-9a4e-fe7ea2fe5e70" d="M319.05,160.92,369.89-.77h20.57l-26.65,85,4.43-.19C381.09,83.5,391,71.19,399,59.21c9.69-14.21,19.28-21.32,29.31-21.74,9.39-.41,14.92,5,15.35,15,.19,4.37-1,8-3.3,10.6A11.71,11.71,0,0,1,432,66.73c-6.52.28-10.75-2.71-11-7.67a12.74,12.74,0,0,1,1-5.61,8.28,8.28,0,0,0,.75-3.59c0-1-.44-2.2-3.16-2.2h-.39c-4,.16-8.54,5.78-14.44,13.71l-6.42,8.34C393,77.2,386.6,83.41,381.88,85.88c7.74.82,18.19,3.09,22.61,21l8.57,35.36c1.51,6.1,3.71,12.35,8.62,12.35h.26c4.34-.18,11.12-4.56,18.74-24.43l.28-.72,5.58,1.33-.38.95c-3.91,9.85-9.59,24.22-22.52,29.19l-19.27,0c-5.14-2.56-8.81-8.35-11.43-18l-9.1-34.55c-2.79-10.77-4.93-19.2-16.72-18.72l-5.33.23-22.27,71.08Z" transform="translate(0 1.56)"/><path class="3aa5efd5-9aef-43e2-b7f2-3e342cf6166c" d="M319.05,160.92,369.89-.77h20.57l-26.65,85,4.43-.19C381.09,83.5,391,71.19,399,59.21c9.69-14.21,19.28-21.32,29.31-21.74,9.39-.41,14.92,5,15.35,15,.19,4.37-1,8-3.3,10.6A11.71,11.71,0,0,1,432,66.73c-6.52.28-10.75-2.71-11-7.67a12.74,12.74,0,0,1,1-5.61,8.28,8.28,0,0,0,.75-3.59c0-1-.44-2.2-3.16-2.2h-.39c-4,.16-8.54,5.78-14.44,13.71l-6.42,8.34C393,77.2,386.6,83.41,381.88,85.88c7.74.82,18.19,3.09,22.61,21l8.57,35.36c1.51,6.1,3.71,12.35,8.62,12.35h.26c4.34-.18,11.12-4.56,18.74-24.43l.28-.72,5.58,1.33-.38.95c-3.91,9.85-9.59,24.22-22.52,29.19l-19.27,0c-5.14-2.56-8.81-8.35-11.43-18l-9.1-34.55c-2.79-10.77-4.93-19.2-16.72-18.72l-5.33.23-22.27,71.08Z" transform="translate(0 1.56)"/></g></svg>