<svg id="ea295c92-8c26-4a8e-b19e-3e4b3bdfbb42" data-name="Lager 1" 
    xmlns="http://www.w3.org/2000/svg" viewBox="0 0 100 51.96">
    <defs>
        <style>.\33 f394fcc-3a16-4d5a-b934-6961b7e280ea{fill:#f18700;}</style>
    </defs>
    <title>mdh</title>
    <path d="M43,13.67H32.1C30.93,19.92,34.27,24.84,40,24.84a12.08,12.08,0,0,0,5.77-1.54c-2.49-2-3.6-5.56-2.81-9.64"/>
    <path d="M51.85,1.54A7.92,7.92,0,0,0,46.93,0C41.37,0,35.49,4.56,33.05,10.54H44a17.85,17.85,0,0,1,7.89-9"/>
    <path d="M45.76,23.31c.05,0,.11-.05.16-.11l-.11-.11Z"/>
    <path d="M57.84,0a12.23,12.23,0,0,0-5.93,1.64c2.44,1.8,3.65,5,3.07,8.9H65.89C66.68,4.56,63.35,0,57.84,0"/>
    <path d="M45.92,23.2a8.15,8.15,0,0,0,5,1.59c5.72,0,11.81-4.87,14.14-11.18H54.18a18.51,18.51,0,0,1-8.26,9.59"/>
    <polygon points="70.82 12.87 71.45 11.23 27.23 11.23 26.59 12.87 70.82 12.87"/>
    <polygon class="3f394fcc-3a16-4d5a-b934-6961b7e280ea" points="0 40.73 1.43 32.52 3.6 32.52 3.6 37.34 3.6 37.34 5.3 32.52 7.47 32.52 6.04 40.73 4.55 40.73 5.83 34.27 5.83 34.27 3.6 40.73 2.44 40.73 2.49 34.27 2.44 34.27 1.48 40.73 0 40.73"/>
    <polygon class="3f394fcc-3a16-4d5a-b934-6961b7e280ea" points="12.02 40.73 13.4 32.52 14.99 32.52 13.88 39.09 15.78 39.09 15.47 40.73 12.02 40.73"/>
    <path class="3f394fcc-3a16-4d5a-b934-6961b7e280ea" d="M16,40.73l2.86-8.21h1.85l.05,8.21H19.17l.05-1.59H18l-.48,1.59ZM19.54,34h0l-1.11,3.71h.9L19.54,34Z"/>
    <path class="3f394fcc-3a16-4d5a-b934-6961b7e280ea" d="M22.88,40.73H21.35l1.43-8.21h2.28c1.27,0,1.8.64,1.54,2.28a2.2,2.2,0,0,1-1.17,1.85h0c.42.11.64.48.58,1.06s-.32,2.07-.32,2.6a.4.4,0,0,0,.11.26v.11H24.1a1.44,1.44,0,0,1,0-.48c.11-.74.26-1.43.32-1.91s0-.85-.37-.85h-.53l-.64,3.28ZM23.73,36h.53c.48,0,.64-.53.74-1,.16-1-.16-1-.9-1l-.37,2Z"/>
    <path class="3f394fcc-3a16-4d5a-b934-6961b7e280ea" d="M26.43,40.73l1.43-8.21h1.69a2.6,2.6,0,0,1,1.69.37c.53.42.48,1.22.37,2L31,38.56a2.82,2.82,0,0,1-1,1.8,2.42,2.42,0,0,1-1.43.37Zm1.8-1.48c1,.11,1.11-.42,1.27-1.54L30,35c.16-1-.11-1-.85-1.06l-.9,5.3Z"/>
    <path class="3f394fcc-3a16-4d5a-b934-6961b7e280ea" d="M30.93,40.73l2.86-8.21h1.85l.05,8.21H34.11l.05-1.59H32.94l-.48,1.59ZM34.48,34h0l-1.11,3.71h.9L34.48,34Z"/>
    <polygon class="3f394fcc-3a16-4d5a-b934-6961b7e280ea" points="36.39 40.73 37.82 32.52 39.35 32.52 38.24 39.09 40.15 39.09 39.88 40.73 36.39 40.73"/>
    <polygon class="3f394fcc-3a16-4d5a-b934-6961b7e280ea" points="40.57 40.73 41.95 32.52 45.55 32.52 45.29 34.16 43.27 34.16 43.01 35.65 44.91 35.65 44.65 37.29 42.69 37.29 42.43 39.09 44.54 39.09 44.23 40.73 40.57 40.73"/>
    <polygon class="3f394fcc-3a16-4d5a-b934-6961b7e280ea" points="47.14 36.12 47.09 36.12 46.45 40.73 44.97 40.73 46.4 32.52 47.99 32.52 48.41 37.08 48.41 37.08 49.05 32.52 50.53 32.52 49.15 40.73 47.56 40.73 47.14 36.12"/>
    <path class="3f394fcc-3a16-4d5a-b934-6961b7e280ea" d="M6.67,40.73l2.86-8.21h1.85l.05,8.21H9.85l.05-1.59H8.69l-.48,1.59ZM10.22,34h0L9.11,37.71H10L10.22,34Z"/>
    <polygon class="3f394fcc-3a16-4d5a-b934-6961b7e280ea" points="11.07 30.61 12.5 30.61 12.23 32.04 10.86 32.04 11.07 30.61"/>
    <polygon class="3f394fcc-3a16-4d5a-b934-6961b7e280ea" points="10.54 30.61 10.33 32.04 8.9 32.04 9.16 30.61 10.54 30.61"/>
    <path class="3f394fcc-3a16-4d5a-b934-6961b7e280ea" d="M77.81,40.73H76.27l1.43-8.21H80c1.27,0,1.8.64,1.54,2.28a2.2,2.2,0,0,1-1.17,1.85h0c.42.11.64.48.58,1.06s-.32,2.07-.32,2.6a.4.4,0,0,0,.11.26v.11H79a1.44,1.44,0,0,1,0-.48c.11-.74.26-1.43.32-1.91s0-.85-.37-.85h-.53l-.64,3.28ZM78.65,36h.53c.48,0,.64-.53.74-1,.16-1-.16-1-.9-1l-.37,2Z"/>
    <polygon class="3f394fcc-3a16-4d5a-b934-6961b7e280ea" points="63.82 40.73 65.2 32.52 66.79 32.52 65.36 40.73 63.82 40.73"/>
    <polygon class="3f394fcc-3a16-4d5a-b934-6961b7e280ea" points="86.12 40.73 87.55 32.52 89.09 32.52 87.71 40.73 86.12 40.73"/>
    <polygon class="3f394fcc-3a16-4d5a-b934-6961b7e280ea" points="89.88 32.52 89.62 34.16 91 34.16 89.83 40.73 91.42 40.73 92.53 34.16 93.91 34.16 94.23 32.52 89.88 32.52"/>
    <polygon class="3f394fcc-3a16-4d5a-b934-6961b7e280ea" points="71.66 40.73 73.09 32.52 76.69 32.52 76.38 34.16 74.36 34.16 74.1 35.65 76.06 35.65 75.79 37.29 73.83 37.29 73.52 39.09 75.64 39.09 75.37 40.73 71.66 40.73"/>
    <polygon class="3f394fcc-3a16-4d5a-b934-6961b7e280ea" points="60.43 36.12 60.43 36.12 59.8 40.73 58.32 40.73 59.69 32.52 61.34 32.52 61.76 37.08 61.76 37.08 62.39 32.52 63.88 32.52 62.45 40.73 60.86 40.73 60.43 36.12"/>
    <path class="3f394fcc-3a16-4d5a-b934-6961b7e280ea" d="M83.16,38l-.11.58c-.11.48,0,.9.48.9s.58-.42.69-.85c.11-.69-.32-1-.64-1.27a3.18,3.18,0,0,1-1-1.06,2.31,2.31,0,0,1-.16-1.64c.26-1.54,1.17-2.33,2.38-2.33,1.38,0,1.85,1.11,1.54,2.65H84.9c.05-.48.21-1.17-.32-1.17-.32-.05-.53.21-.64.53a1,1,0,0,0,.32,1,9.47,9.47,0,0,1,1.27,1.17,2.43,2.43,0,0,1,.21,2c-.26,1.59-1.11,2.44-2.44,2.44a1.61,1.61,0,0,1-1.69-2.07l.16-.9,1.38.05Z"/>
    <path class="3f394fcc-3a16-4d5a-b934-6961b7e280ea" d="M70.71,32.52l-2,6.73.37-6.73H67.53l.05,8.21h1.85l2.86-8.21Z"/>
    <path class="3f394fcc-3a16-4d5a-b934-6961b7e280ea" d="M56.09,38.29c-.11.48-.21,1.17-.74,1.17s-.42-.69-.37-1.17l1-5.77H54.45l-1,5.61c-.32,1.85.05,2.81,1.64,2.81s2.28-1,2.6-2.81l1-5.61H57.1Z"/>
    <polygon class="3f394fcc-3a16-4d5a-b934-6961b7e280ea" points="96.98 35.17 96.98 35.17 98.36 32.52 100 32.52 97.35 37.29 96.77 40.73 95.18 40.73 95.82 37.29 94.92 32.52 96.56 32.52 96.98 35.17"/>
    <path class="3f394fcc-3a16-4d5a-b934-6961b7e280ea" d="M31.57,49l-.11.58c-.11.48,0,.9.48.9s.58-.42.69-.85c.11-.69-.32-1-.64-1.27a3.18,3.18,0,0,1-1-1.06,2.31,2.31,0,0,1-.16-1.64c.26-1.54,1.17-2.33,2.38-2.33,1.38,0,1.85,1.11,1.54,2.65H33.26c.05-.48.21-1.17-.32-1.17-.32-.05-.53.21-.64.53a1,1,0,0,0,.32,1,9.47,9.47,0,0,1,1.27,1.17,2.43,2.43,0,0,1,.21,2C33.85,51.11,33,52,31.67,52A1.61,1.61,0,0,1,30,49.89l.16-.9,1.43.05Z"/>
    <polygon class="3f394fcc-3a16-4d5a-b934-6961b7e280ea" points="42.74 51.8 44.17 43.59 47.77 43.59 47.46 45.23 45.45 45.23 45.18 46.72 47.14 46.72 46.88 48.36 44.91 48.36 44.6 50.16 46.72 50.16 46.45 51.8 42.74 51.8"/>
    <path class="3f394fcc-3a16-4d5a-b934-6961b7e280ea" d="M47.46,51.8l1.43-8.21h1.69a2.6,2.6,0,0,1,1.69.37c.53.42.48,1.22.37,2L52,49.63a2.82,2.82,0,0,1-1,1.8,2.42,2.42,0,0,1-1.43.37Zm1.8-1.48c1,.11,1.11-.42,1.27-1.54l.48-2.7c.16-1-.11-1-.85-1.06l-.9,5.3Z"/>
    <polygon class="3f394fcc-3a16-4d5a-b934-6961b7e280ea" points="52.44 51.8 53.87 43.54 57.41 43.54 57.15 45.23 55.14 45.23 54.87 46.72 56.83 46.72 56.52 48.36 54.55 48.36 54.29 50.16 56.41 50.16 56.09 51.8 52.44 51.8"/>
    <polygon class="3f394fcc-3a16-4d5a-b934-6961b7e280ea" points="59.06 47.19 59 47.19 58.37 51.75 56.89 51.75 58.32 43.54 59.91 43.54 60.33 48.15 60.38 48.15 61.02 43.54 62.5 43.54 61.07 51.75 59.48 51.75 59.06 47.19"/>
    <path class="3f394fcc-3a16-4d5a-b934-6961b7e280ea" d="M38.72,43.54l-2,6.73.37-6.73H35.54l.05,8.21h1.85l2.86-8.21Z"/>
    <path class="3f394fcc-3a16-4d5a-b934-6961b7e280ea" d="M41.95,43.54l-2,6.73.37-6.73H38.77l.05,8.21h1.85l2.86-8.21Z"/>
</svg>