<svg id="4ccc0c32-434e-4f0a-8355-4ecc90484f99" data-name="Layer 1" 
    xmlns="http://www.w3.org/2000/svg" 
    xmlns:xlink="http://www.w3.org/1999/xlink" viewBox="0 0 100.01 21.73">
    <defs>
        <style>.af42bb58-4239-4523-964a-2d7d7e5c0a55{fill:none;}.\34 7dc8d38-064a-4380-8f3d-e37bd4465430{clip-path:url(#54a162d0-d6ec-4eb5-8dd8-ca3e930b512c);}.\36 23c710c-050d-41dd-ac71-811e6e52d545{fill:#f78d2e;}.\35 88c9967-0b58-4a2f-ae5c-7289168854f4{fill:#4f4c4d;}</style>
        <clipPath id="54a162d0-d6ec-4eb5-8dd8-ca3e930b512c" transform="translate(0 0)">
            <rect class="af42bb58-4239-4523-964a-2d7d7e5c0a55" x="0.01" width="100" height="21.72"/>
        </clipPath>
    </defs>
    <title>mecatrade</title>
    <g class="47dc8d38-064a-4380-8f3d-e37bd4465430">
        <path class="623c710c-050d-41dd-ac71-811e6e52d545" d="M26.52,21.72H22.16a.27.27,0,0,1-.26-.33l1.82-8.54a.1.1,0,0,0-.19-.07l-4.83,8.8a.27.27,0,0,1-.24.14h-2.6a.27.27,0,0,1-.27-.25l-.91-9a.1.1,0,0,0-.2,0l-1.94,9a.27.27,0,0,1-.26.22H10.5l3-14a0,0,0,0,1,0,0h5.1a.56.56,0,0,1,.56.51l.61,7.06a.1.1,0,0,0,.19,0L23.91,8a.56.56,0,0,1,.49-.29h5.31a0,0,0,0,1,0,0l-3,13.8a.27.27,0,0,1-.26.21" transform="translate(0 0)"/>
    </g>
    <g class="47dc8d38-064a-4380-8f3d-e37bd4465430">
        <path class="623c710c-050d-41dd-ac71-811e6e52d545" d="M10.49,21.72S0,18.67,0,11.42,10.18,1.24,10.18,1.24a30.61,30.61,0,0,1,17.29,0C36.72,4,37.41,9.9,37.41,9.9s1.76,5.92-6.5,10.28c0,0,7.38-4.53,5.9-10.13S27.27,2,27.27,2a30.47,30.47,0,0,0-17.05.36c-9.09,2.92-9,8.78-8.93,9.06s0,5.54,9.62,8.39l-.41,1.91" transform="translate(0 0)"/>
    </g>
    <path class="588c9967-0b58-4a2f-ae5c-7289168854f4" d="M44.42,21.61H42.53a0,0,0,0,1,0,0l.13-6.32c0-.06-.1-.05-.11,0l-1.23,6.3a.07.07,0,0,1-.07.05h-2a0,0,0,0,1,0-.05L41,12a.07.07,0,0,1,.07-.05h3.26a0,0,0,0,1,0,0l-.05,4.71c0,.05.08.05.1,0L46.22,12a.07.07,0,0,1,.06,0h3.29a0,0,0,0,1,0,.05l-1.87,9.56a.07.07,0,0,1-.07.05h-2a0,0,0,0,1,0-.05l1.22-6.26c0-.07-.08-.07-.1,0l-2.24,6.28a.07.07,0,0,1-.06,0" transform="translate(0 0)"/>
    <path class="588c9967-0b58-4a2f-ae5c-7289168854f4" d="M48.83,21.56,50.7,12a.07.07,0,0,1,.06-.05h4.3a0,0,0,0,1,0,.05l-.34,1.77a.07.07,0,0,1-.07.05H52.63a.06.06,0,0,0-.06.05l-.35,1.78a0,0,0,0,0,0,.05h2a0,0,0,0,1,0,.05l-.33,1.71a.07.07,0,0,1-.06.05h-2a.07.07,0,0,0-.07.05l-.41,2.1a0,0,0,0,0,0,.05h2.2a0,0,0,0,1,0,.05l-.35,1.78a.07.07,0,0,1-.07.05H48.87s0,0,0-.07" transform="translate(0 0)"/>
    <path class="588c9967-0b58-4a2f-ae5c-7289168854f4" d="M60.29,17.45a0,0,0,0,1,0,.05L60,19.28a2.77,2.77,0,0,1-1.1,1.85,3.77,3.77,0,0,1-2.18.59,2.34,2.34,0,0,1-1.79-.65,2,2,0,0,1-.38-1.85l.87-4.48a3.79,3.79,0,0,1,1.07-2.15,3.15,3.15,0,0,1,2.18-.71,3.57,3.57,0,0,1,1,.14,2.17,2.17,0,0,1,.78.4,1.38,1.38,0,0,1,.45.7,2.13,2.13,0,0,1,0,1l-.32,1.65a.07.07,0,0,1-.06.05H58.48a0,0,0,0,1,0-.05l.21-1.07c.11-.58,0-.87-.36-.87a.52.52,0,0,0-.45.19,1.45,1.45,0,0,0-.2.53l-.88,4.56a.87.87,0,0,0,0,.52.34.34,0,0,0,.33.22.58.58,0,0,0,.4-.16,1,1,0,0,0,.27-.57l.31-1.61a.07.07,0,0,1,.07-.05h2.12" transform="translate(0 0)"/>
    <path class="588c9967-0b58-4a2f-ae5c-7289168854f4" d="M64.45,13.76h-.2l-1.19,4.58a0,0,0,0,0,0,.05h.67a.07.07,0,0,0,.07-.05Zm2-1.77-.78,9.56a.06.06,0,0,1-.07.05h-2a0,0,0,0,1,0,0l.12-1.37a0,0,0,0,0,0,0h-1a.06.06,0,0,0-.06,0l-.4,1.36a.07.07,0,0,1-.06,0h-2a0,0,0,0,1,0-.06L63,12a.07.07,0,0,1,.06,0H66.4a.07.07,0,0,1,0,.06" transform="translate(0 0)"/>
    <path class="588c9967-0b58-4a2f-ae5c-7289168854f4" d="M66.82,18.47l.25-1.31a.07.07,0,0,1,.06-.05h3.12a0,0,0,0,1,0,.05L70,18.47a.07.07,0,0,1-.07.05H66.86a0,0,0,0,1,0-.05" transform="translate(0 0)"/>
    <path class="588c9967-0b58-4a2f-ae5c-7289168854f4" d="M71.64,11.94h4.71a0,0,0,0,1,0,.05L76,13.76a.07.07,0,0,1-.06.05h-1.2a.07.07,0,0,0-.07.05l-1.5,7.7a.07.07,0,0,1-.07.05H71.06a0,0,0,0,1,0-.05l1.5-7.7a0,0,0,0,0,0-.05h-1.2a0,0,0,0,1,0-.05L71.58,12a.06.06,0,0,1,.06,0" transform="translate(0 0)"/>
    <path class="588c9967-0b58-4a2f-ae5c-7289168854f4" d="M79,13.74l-.34,1.75a0,0,0,0,0,0,.05h.5c.29,0,.49-.29.61-.88.08-.39.07-.64,0-.75s-.31-.16-.67-.16Zm-.7,3.51-.84,4.31a.07.07,0,0,1-.07.05H75.24a0,0,0,0,1,0-.05L77.07,12a.07.07,0,0,1,.06-.05h3.32a2.34,2.34,0,0,1,.86.14,1.19,1.19,0,0,1,.51.36A1.25,1.25,0,0,1,82,13a3.33,3.33,0,0,1,0,.73,8.43,8.43,0,0,1-.14.89c0,.18-.07.33-.1.45a3.85,3.85,0,0,1-.15.44,1.69,1.69,0,0,1-.25.44,1.73,1.73,0,0,1-.39.34,1.91,1.91,0,0,1-.57.26.94.94,0,0,1,.47.2.64.64,0,0,1,.22.37,2,2,0,0,1,0,.4,2.75,2.75,0,0,1,0,.42q-.46,2.35-.72,3.59a.06.06,0,0,1-.06,0h-2a0,0,0,0,1,0-.05L79,17.84a1.11,1.11,0,0,0,0-.36.24.24,0,0,0-.14-.19.88.88,0,0,0-.23-.07l-.3,0a.07.07,0,0,0-.07.05" transform="translate(0 0)"/>
    <path class="588c9967-0b58-4a2f-ae5c-7289168854f4" d="M85.46,13.76h-.2l-1.19,4.58a0,0,0,0,0,0,.05h.67a.07.07,0,0,0,.07-.05Zm2-1.77-.78,9.56a.06.06,0,0,1-.07.05h-2s0,0,0,0l.12-1.37a0,0,0,0,0,0,0h-1a.06.06,0,0,0-.06,0l-.4,1.36a.07.07,0,0,1-.06,0h-2a0,0,0,0,1,0-.06L84,12a.07.07,0,0,1,.06,0h3.35a.07.07,0,0,1,0,.06" transform="translate(0 0)"/>
    <g class="47dc8d38-064a-4380-8f3d-e37bd4465430">
        <path class="588c9967-0b58-4a2f-ae5c-7289168854f4" d="M91.11,13.66l-1.2,6.19h.38c.42,0,.67-.17.73-.52l.93-4.77a1.06,1.06,0,0,0,0-.73.64.64,0,0,0-.56-.2l-.25,0Zm-3.75,7.9L89.22,12a.07.07,0,0,1,.06-.05h3a2,2,0,0,1,1.68.61,2.11,2.11,0,0,1,.25,1.67l-.85,4.51a4,4,0,0,1-1,2.16,2.75,2.75,0,0,1-2,.71H87.4a0,0,0,0,1,0,0" transform="translate(0 0)"/>
    </g>
    <g class="47dc8d38-064a-4380-8f3d-e37bd4465430">
        <path class="588c9967-0b58-4a2f-ae5c-7289168854f4" d="M93.74,21.56,95.6,12a.07.07,0,0,1,.07-.05H100a0,0,0,0,1,0,.05l-.34,1.77a.07.07,0,0,1-.07.05H97.54a.07.07,0,0,0-.07.05l-.35,1.78a0,0,0,0,0,0,.05h2a0,0,0,0,1,0,.05l-.33,1.71a.07.07,0,0,1-.07.05h-2a.07.07,0,0,0-.07.05l-.41,2.1a0,0,0,0,0,0,.05h2.2a0,0,0,0,1,0,.05l-.35,1.78a.07.07,0,0,1-.06.05H93.77s0,0,0-.07" transform="translate(0 0)"/>
    </g>
</svg>