<svg id="297d4110-72d9-4172-98c1-924ee260164a" data-name="Lager 1" xmlns="http://www.w3.org/2000/svg" viewBox="0 0 100.5 9.7"><defs><style>.\32 59b2c60-cc6e-453e-9cd1-36b0bfc768d0,.b7eb965c-5523-40f8-b7f5-0d918993bfc5{fill:#5b358c;}.b7eb965c-5523-40f8-b7f5-0d918993bfc5{stroke:#5b358c;}.aabc78c3-8374-4eb3-b9a7-1293e1ad0025{fill:#858584;stroke:#858584;}</style></defs><title>nodellteknik</title><path class="b7eb965c-5523-40f8-b7f5-0d918993bfc5" d="M5.32,7.24,7.59.52h2.68V9.14H8.54V2.66L6.27,9.14H4.38L2.23,2.66V9.14H.5V.52H3.18Z" transform="translate(0 -0.02)"/><path class="b7eb965c-5523-40f8-b7f5-0d918993bfc5" d="M19.26,1.8a5.25,5.25,0,0,1,.82,3.13c0,2.8-1.4,4.29-4.12,4.29A4.19,4.19,0,0,1,12.34,7.7a4.8,4.8,0,0,1-.74-2.8,4.29,4.29,0,0,1,1.32-3.55,4.8,4.8,0,0,1,3-.82A4.13,4.13,0,0,1,19.26,1.8ZM14,2.79a3.7,3.7,0,0,0-.41,2c0,2,.7,2.93,2.23,2.93S18,6.83,18,4.81s-.7-2.89-2.23-2.89A2.05,2.05,0,0,0,14,2.79Z" transform="translate(0 -0.02)"/><path class="b7eb965c-5523-40f8-b7f5-0d918993bfc5" d="M25,.52c1.77,0,2.8.33,3.46,1.2a5.16,5.16,0,0,1,.87,3.13A6.71,6.71,0,0,1,29,7.12a2.67,2.67,0,0,1-1.81,1.81,6.22,6.22,0,0,1-2.1.21H21.41V.52ZM23.18,7.61H25A2.14,2.14,0,0,0,26.73,7a3.72,3.72,0,0,0,.58-2.19,3.45,3.45,0,0,0-.78-2.39A2.18,2.18,0,0,0,25,2H23.18V7.61Z" transform="translate(0 -0.02)"/><path class="b7eb965c-5523-40f8-b7f5-0d918993bfc5" d="M37.08,2.09H34.69c-1.24,0-1.69.12-2.06.62-.25.33-.33.54-.37,1.4h4.82V5.63H32.25c.12,1.48.78,2,2.52,2h2.31V9.14H34.69c-1.81,0-2.72-.25-3.38-.95a4.79,4.79,0,0,1-1.15-3.38,4.48,4.48,0,0,1,1.44-3.55,3.1,3.1,0,0,1,2.35-.7H37V2.09Z" transform="translate(0 -0.02)"/><path class="b7eb965c-5523-40f8-b7f5-0d918993bfc5" d="M40.29.52V5.34c.08,1.48.08,1.57.41,1.86s.74.37,1.9.37h1.77V9.1H42.44A9,9,0,0,1,40.5,9a2.61,2.61,0,0,1-1.81-1.65,7.36,7.36,0,0,1-.21-2V.52Z" transform="translate(0 -0.02)"/><path class="b7eb965c-5523-40f8-b7f5-0d918993bfc5" d="M47.18.52V5.34c.08,1.48.08,1.57.41,1.86s.74.37,1.9.37h1.77V9.1H49.32A9,9,0,0,1,47.39,9a2.61,2.61,0,0,1-1.81-1.65,7.36,7.36,0,0,1-.21-2V.52Z" transform="translate(0 -0.02)"/><path class="aabc78c3-8374-4eb3-b9a7-1293e1ad0025" d="M51,2.09V.56h7.42V2.09H55.59V9.18H53.78V2.09Z" transform="translate(0 -0.02)"/><path class="aabc78c3-8374-4eb3-b9a7-1293e1ad0025" d="M65.86,2.09H63.47c-1.24,0-1.69.12-2.06.62-.25.33-.33.54-.37,1.4h4.82V5.63H61c.12,1.48.78,2,2.52,2h2.31V9.14H63.47c-1.81,0-2.72-.25-3.38-.95a4.79,4.79,0,0,1-1.15-3.38,4.48,4.48,0,0,1,1.44-3.55,3.1,3.1,0,0,1,2.35-.7h3.09V2.09Z" transform="translate(0 -0.02)"/><path class="aabc78c3-8374-4eb3-b9a7-1293e1ad0025" d="M69.08,9.14H67.26V.52h1.81ZM72.46.52h2.39L71.26,4.77l3.42,4.37H72.25L69.16,4.77Z" transform="translate(0 -0.02)"/><path class="aabc78c3-8374-4eb3-b9a7-1293e1ad0025" d="M77.53,9.14H75.8V.52h2.35L81.57,7V.52H83.3V9.14H81.08L77.57,2.83l0,6.31Z" transform="translate(0 -0.02)"/><path class="aabc78c3-8374-4eb3-b9a7-1293e1ad0025" d="M85,.52h1.81V9.14H85Z" transform="translate(0 -0.02)"/><path class="aabc78c3-8374-4eb3-b9a7-1293e1ad0025" d="M90.52,9.14H88.66V.52h1.81l0,8.62ZM93.82.52h2.39L92.62,4.77,96,9.14H93.61L90.52,4.77Z" transform="translate(0 -0.02)"/><polygon class="259b2c60-cc6e-453e-9cd1-36b0bfc768d0" points="100.5 9.33 96.05 4.83 100.5 0.34 100.5 9.33"/></svg>