<svg id="46b1006e-699f-46de-86db-5298d2c3df52" data-name="Layer 1" 
    xmlns="http://www.w3.org/2000/svg" viewBox="0 0 500 503.4">
    <defs>
        <style>.\31 b1ed582-962a-4f22-85da-6b27e24883a7{fill:#ef373e;}.a50263a1-42bd-4bee-8cf6-1d7b71901c8a{fill:#fff;}</style>
    </defs>
    <title>motormannen</title>
    <g transform="scale(0.6) translate(160, 80)">
        <path class="1b1ed582-962a-4f22-85da-6b27e24883a7" d="M407.58.06C417.3.19,451.44,2,459,37.46l38.44,380.65c.79,16.48,1.58,23,2.37,44.51,2.66,29.4-17,42.19-52.46,40.65H60.47C25.88,504.81-1.15,491,0,462.24L2.6,418.41c5.3-52.93,38.9-380.15,38.9-380.15C47.74,4.08,85.59-.08,92.35.06c0,0,305.68-.15,315.23,0"/>
        <path class="a50263a1-42bd-4bee-8cf6-1d7b71901c8a" d="M398.21,9.14c37.63-.51,48,11.89,51.95,32.23C458.4,118.77,486,410.7,486,410.7l3.71,48.58c1.06,29.66-18.55,36.33-53.14,34.78H62.06c-34.58,0-52.61-9.72-51.55-36.82l3.66-47.51S40.57,131.46,50.92,43.21C53,24,69.41,9.14,99.1,9.14Z"/>
        <path class="1b1ed582-962a-4f22-85da-6b27e24883a7" d="M403,21.42c22.79,0,32.85,9.72,35.24,28.27L473,412.36l3.49,41.11c2.08,19.12-3.76,29.88-26.55,28.33H51.85c-22.26.51-28.62-10.23-27-27.1l2.49-34.8s-4.71,0,36.78-373c1.61-16.27,12.33-26.05,32.72-26.05Z"/>
        <path class="a50263a1-42bd-4bee-8cf6-1d7b71901c8a" d="M225.83,197.9c-.85,14.31,0,2.69-.85,14.31l24.44,57.36,25.92-57.1-1.19-14.39h58.44l-2.8,8.43,2.63,18.24,35.2,117.58c9.45,31.43,18.36,63.85,29.4,94.76l8.17,9.2H338.68c6.84-11.33,2.07-14.78-9.94-62.92L289.11,253.2l-39.66,91.68c-43.3-92.45-.8-1.54-43-92.19,0,0-31,110.5-37.82,129-13.52,50.27-17.5,52.94-11,64.57l-63.09-.12,8.47-8c11.56-35,22.06-70.95,31-106.92l33-105.69,2.52-18.4-2.93-9.21Z"/>
        <polygon class="a50263a1-42bd-4bee-8cf6-1d7b71901c8a" points="228.04 122.12 222.88 148.33 244.75 148.33 238.57 122.31 264.53 122.43 257.87 148.72 280.9 148.61 275.36 122.25 296.62 122.12 285.8 177.49 218.51 177.5 205.59 122.25 228.04 122.12"/>
        <polygon class="a50263a1-42bd-4bee-8cf6-1d7b71901c8a" points="160.76 52.8 155.45 78.98 177.31 78.98 170.99 52.69 197.63 52.69 190.39 79.08 213.33 78.97 207.37 52.69 229.5 52.71 218.36 108.16 151.08 108.16 138 52.69 160.76 52.8"/>
        <polygon class="a50263a1-42bd-4bee-8cf6-1d7b71901c8a" points="293.5 52.71 288.24 78.98 310.09 78.98 303.88 52.99 329.82 52.87 323.45 79.16 346.18 79.19 340.55 52.69 362.27 52.71 351.14 108.16 283.87 108.16 270.79 52.69 293.5 52.71"/>
    </g>
</svg>