<svg id="e75b97d0-62fc-495f-b3f8-65d92b67a80c" data-name="Lager 1" xmlns="http://www.w3.org/2000/svg" viewBox="0 0 100.13 47.22"><defs><style>.\31 3ab0d09-4085-42f3-94aa-b216d7a19704{fill:#454545;}.\32 5bcbae9-6ee2-4a18-970a-1c3134e56016{fill:none;stroke:#454545;stroke-width:0.25px;}.\34 4c8fdfe-6508-4519-944b-a69aeb031cbe{fill:#f3971b;}</style></defs><title>nep</title><path class="13ab0d09-4085-42f3-94aa-b216d7a19704" d="M98.37,17.38V16.08h.57a.61.61,0,0,1,.29,0,.56.56,0,0,1,.16.12.31.31,0,0,1,0,.2.33.33,0,0,1-.08.25.39.39,0,0,1-.29.12s.08,0,.12.08.08.12.16.16l.25.37h-.2l-.16-.29A.56.56,0,0,0,99.1,17L99,16.89s0,0-.08,0h-.32v.54Zm.32-.74h.21a.37.37,0,0,0,.2,0s.08,0,.12-.08a.15.15,0,0,0,0-.12.21.21,0,0,0-.08-.16.31.31,0,0,0-.2,0H98.6v.45Z"/><circle class="25bcbae9-6ee2-4a18-970a-1c3134e56016" cx="98.9" cy="16.69" r="1.1"/><path class="44c8fdfe-6508-4519-944b-a69aeb031cbe" d="M34.65,4.79a1,1,0,0,1-1.63,0A.88.88,0,1,1,34.65,4.79Z"/><path class="44c8fdfe-6508-4519-944b-a69aeb031cbe" d="M8.53,6.23c.86-.16.94,1.35,0,1.23S7.76,6.06,8.53,6.23Z"/><path class="44c8fdfe-6508-4519-944b-a69aeb031cbe" d="M27.29,8.11a1.08,1.08,0,0,1,2,0C29.87,10,26.92,9.66,27.29,8.11Z"/><path class="44c8fdfe-6508-4519-944b-a69aeb031cbe" d="M35,7.78c.45.45-.45,2.17-1.63,1.23C32.36,8.06,34,7,35,7.78Z"/><path class="44c8fdfe-6508-4519-944b-a69aeb031cbe" d="M11,8.68c1.27-.45,1.84,1.51.69,1.92C10.49,10.84,10,9.49,11,8.68Z"/><path class="44c8fdfe-6508-4519-944b-a69aeb031cbe" d="M44.58,8.8c.45-.29,1.31-.08,1.47,1.35-.12.37-1.06,1-1.63.41A1.09,1.09,0,0,1,44.58,8.8Z"/><path class="44c8fdfe-6508-4519-944b-a69aeb031cbe" d="M15.72,12.15C16,14,13.8,13.5,13.44,13.3a1.16,1.16,0,0,1-.16-1.63C13.84,11.13,15.72,11,15.72,12.15Z"/><path class="44c8fdfe-6508-4519-944b-a69aeb031cbe" d="M24,12.19c.49,1.68-2.86,1.63-2.86.41C20.63,10.93,23.94,11,24,12.19Z"/><path class="44c8fdfe-6508-4519-944b-a69aeb031cbe" d="M29.29,11.37c1,.94.49,1.72,0,2-.65.37-2.41.25-2.45-.82C26.6,11.17,28.93,10.93,29.29,11.37Z"/><path class="44c8fdfe-6508-4519-944b-a69aeb031cbe" d="M34.44,11.37c.45.29,1.39,1.06.53,2.08-.53.41-2.41.25-2.45-.82C32.32,11.17,33.22,11.33,34.44,11.37Z"/><path class="44c8fdfe-6508-4519-944b-a69aeb031cbe" d="M43.19,12.19c.49,1.68-2.86,1.63-2.86.41C39.84,10.93,43.15,11,43.19,12.19Z"/><path class="44c8fdfe-6508-4519-944b-a69aeb031cbe" d="M36.65,16.69V31H19.89c-.08-4.21,0-9.28,0-14.3C25.82,16.65,30.89,16.61,36.65,16.69Z"/><path class="44c8fdfe-6508-4519-944b-a69aeb031cbe" d="M10.74,18.4c.2,1.27-.65,1.59-1.59,1a.86.86,0,0,1-.25-1.35C9.39,17.59,10.66,18,10.74,18.4Z"/><path class="44c8fdfe-6508-4519-944b-a69aeb031cbe" d="M15.89,18.16c.41,1.92-.45,2-2.21,1.76-.53-.25-.49-.86-.41-1.63C13.6,17.38,15.77,17.59,15.89,18.16Z"/><path class="44c8fdfe-6508-4519-944b-a69aeb031cbe" d="M4.36,18.32A1,1,0,0,1,6,18C6.9,19.34,4,19.92,4.36,18.32Z"/><path class="44c8fdfe-6508-4519-944b-a69aeb031cbe" d="M10.9,23.23a1.15,1.15,0,0,1-1.76,1.14c-.33-.25-.61-.78-.29-1.14C9.39,22.74,10.74,22.7,10.9,23.23Z"/><path class="44c8fdfe-6508-4519-944b-a69aeb031cbe" d="M15.6,22.94c.86,2.82-2.94,2.37-2.66.33C13.15,22.25,15.28,22.29,15.6,22.94Z"/><path class="44c8fdfe-6508-4519-944b-a69aeb031cbe" d="M4.36,23.23c.2-.65,1.51-.65,1.63,0C5.71,24.9,4.12,24.37,4.36,23.23Z"/><path class="44c8fdfe-6508-4519-944b-a69aeb031cbe" d="M15.81,27.72c.41.41.41,1.39,0,1.63-1.23.53-2.25.45-2.53-.53C13.11,27.31,14.78,26.86,15.81,27.72Z"/><path class="44c8fdfe-6508-4519-944b-a69aeb031cbe" d="M10.9,28.95c-.61.65-2.33.61-2-.82C9.47,27.52,11.19,27.56,10.9,28.95Z"/><path class="44c8fdfe-6508-4519-944b-a69aeb031cbe" d="M4.36,28.13a.86.86,0,0,1,1.63,0C6.32,29.4,4,29.73,4.36,28.13Z"/><path class="44c8fdfe-6508-4519-944b-a69aeb031cbe" d="M15.81,34.26c.86,2.82-2.82,2.53-2.53.45C13.35,34,15.28,33.57,15.81,34.26Z"/><path class="44c8fdfe-6508-4519-944b-a69aeb031cbe" d="M20.79,35c0-.25.12-.41.33-.74.69-.33,2.82-.41,2.86.82.37,1.68-2.21,1.76-2.86.82A1.29,1.29,0,0,1,20.79,35Z"/><path class="44c8fdfe-6508-4519-944b-a69aeb031cbe" d="M32.56,34.26s.25-.45,1.39-.45c.37,0,1.43.25,1.47,1.27C35.22,36.76,31.71,37,32.56,34.26Z"/><path class="44c8fdfe-6508-4519-944b-a69aeb031cbe" d="M40.33,34.26c.45-1,2.74-.53,2.86.41C43.44,36.76,39.43,37.08,40.33,34.26Z"/><path class="44c8fdfe-6508-4519-944b-a69aeb031cbe" d="M11.84,36.92c.74.2.49,1.63,0,1.63-1.19.08-1.72.08-1.51-1.23A1.41,1.41,0,0,1,11.84,36.92Z"/><path class="44c8fdfe-6508-4519-944b-a69aeb031cbe" d="M45.89,37.65c.2,1.27-.74,1.63-1.88,1.14a.93.93,0,0,1,0-1.23C44.54,37,45.72,37.08,45.89,37.65Z"/><path class="44c8fdfe-6508-4519-944b-a69aeb031cbe" d="M23.57,38.76c.2,1.27-.86,1.31-2,1.23-.37-.33-.16-.82,0-1.23A1.6,1.6,0,0,1,23.57,38.76Z"/><path class="44c8fdfe-6508-4519-944b-a69aeb031cbe" d="M29,38.92c.2,1.27-.74,1.55-1.8,1.06a1.33,1.33,0,0,1-.2-1.23C27.41,37.86,29,38.55,29,38.92Z"/><path class="44c8fdfe-6508-4519-944b-a69aeb031cbe" d="M33.38,38.35c2.17-.25,1.88,2.33-.41,1.63A1,1,0,0,1,33.38,38.35Z"/><path class="44c8fdfe-6508-4519-944b-a69aeb031cbe" d="M28.89,42.44c.57.2.29.94,0,1.23-.86.16-1.14.16-1.47-.45S28.15,42.19,28.89,42.44Z"/><path class="44c8fdfe-6508-4519-944b-a69aeb031cbe" d="M34.61,43.66c-.12.53-1.43.94-1.63,0A.87.87,0,1,1,34.61,43.66Z"/><path class="44c8fdfe-6508-4519-944b-a69aeb031cbe" d="M23.25,9c-.61.65-2.17.61-1.88-.78A1,1,0,0,1,23.25,9Z"/><path class="44c8fdfe-6508-4519-944b-a69aeb031cbe" d="M28.64,3.69c1.14,0,1.06,1.76,0,1.76S27.7,3.57,28.64,3.69Z"/><path class="44c8fdfe-6508-4519-944b-a69aeb031cbe" d="M21.9,3.94a.94.94,0,0,1,1.39.49,1,1,0,0,1-1.39.74A.76.76,0,0,1,21.9,3.94Z"/><path class="44c8fdfe-6508-4519-944b-a69aeb031cbe" d="M21.86,42.4c.12-.37,1.19-.29,1.63.41-.08.74-.69.94-1.63.82C21.45,43.21,21.73,42.72,21.86,42.4Z"/><path class="44c8fdfe-6508-4519-944b-a69aeb031cbe" d="M7.88,39.86c.86-.16,1.1.08,1.31.45-.08.74-.37.9-1.31.78A.71.71,0,0,1,7.88,39.86Z"/><path class="44c8fdfe-6508-4519-944b-a69aeb031cbe" d="M47.24,40.43a1.06,1.06,0,0,1,1.35.53c-.08.74-.41.82-1.35.69A.74.74,0,0,1,47.24,40.43Z"/><path class="44c8fdfe-6508-4519-944b-a69aeb031cbe" d="M.28,23c1.1-.25,1.27.2,1.31.53-.08.74-.37.82-1.31.69C-.09,23.84-.09,23.1.28,23Z"/><path class="44c8fdfe-6508-4519-944b-a69aeb031cbe" d="M27.74,46c.86-.16,1.31.12,1.39.53-.08.74-.45.82-1.39.69C27.41,46.93,27.29,46.07,27.74,46Z"/><path class="44c8fdfe-6508-4519-944b-a69aeb031cbe" d="M27.13,34.51s0-.69,1.19-.69c.37,0,1.43.25,1.47,1.27C29.62,36.88,26.31,37.16,27.13,34.51Z"/><path class="44c8fdfe-6508-4519-944b-a69aeb031cbe" d="M29.42.67A.72.72,0,0,1,28,.54C27.95-.31,29.46-.07,29.42.67Z"/><path class="44c8fdfe-6508-4519-944b-a69aeb031cbe" d="M47.28,6.51A.94.94,0,0,1,48.67,7a1,1,0,0,1-1.39.74A.72.72,0,0,1,47.28,6.51Z"/><path class="13ab0d09-4085-42f3-94aa-b216d7a19704" d="M41.76,16.28h4.78l5.89,6.95a9.6,9.6,0,0,1,.78,1l.49.78h.16l-.12-1.51a15.71,15.71,0,0,1-.08-1.72V16.24h4.62V31.12H54.14l-6.09-7.23a19.58,19.58,0,0,1-1.72-2.45h-.16c0,.41.16,2.33.16,2.7v7H41.76Z"/><path class="13ab0d09-4085-42f3-94aa-b216d7a19704" d="M61.95,16.28H77.28V19H66.89v3.15H74V24.9H67v3.51H78V31.2H61.95V16.28Z"/><path class="13ab0d09-4085-42f3-94aa-b216d7a19704" d="M81.28,16.28H88.8c3.35,0,5.15.45,6.38,1.19A3.85,3.85,0,0,1,97.26,21a4.22,4.22,0,0,1-3,3.8,15,15,0,0,1-5.23.74l-2.74,0v5.6h-5V16.28Zm5.07,6.83a18.36,18.36,0,0,0,3.88-.16,2.17,2.17,0,0,0,1.84-2.08,1.74,1.74,0,0,0-1.51-1.92c-.82-.2-1.19-.2-4.21-.2Z"/></svg>