<svg id="37e7b460-c3fb-4404-8f1f-60a0657d581e" data-name="Layer 1" xmlns="http://www.w3.org/2000/svg" viewBox="0 0 500.1 125.26"><defs><style>.\35 2086f48-ff8e-4285-b13d-df820b38e7d7{fill:#bf1f10;}.\31 2353e15-a3ef-434c-a56f-41975748dd78{fill:#f9b800;}.c26aba9b-f44c-4089-bcb9-38fbbc5d8c53{fill:#e45900;}.d4200052-189b-4fca-b5e4-ce0bc70cd8fe{fill:#d63408;}.e996e642-18b1-46be-bfd3-a8a0bf321818{fill:#f39200;}.\39 318ed1a-c1eb-4443-8f0e-643eba9c99d9{fill:#fefefe;}</style></defs><title>solargis</title><path class="52086f48-ff8e-4285-b13d-df820b38e7d7" d="M341.6.16c.75,0,1.5-.06,2.24-.06,41.82,0,83.65,0,125.47-.1a7.94,7.94,0,0,1,6.75,3.26c2.63,3.22,5.45,6.28,7.89,9.68a90.8,90.8,0,0,1,10.52,19.49,82.21,82.21,0,0,1,4.4,16.09,69.21,69.21,0,0,1,.92,8.61c.13,2.53.38,5.07.27,7.6a87.75,87.75,0,0,1-6.31,30,92.18,92.18,0,0,1-13.84,23c-2,2.4-4.25,4.51-6.35,6.79a2,2,0,0,1-1.64.64l-130.15,0-.18,0c-2.32-1.23-3.94-3.26-5.61-5.17a86.63,86.63,0,0,1-17.14-29.21,88.66,88.66,0,0,1-4.4-21.2A82.83,82.83,0,0,1,317,40.67a86.31,86.31,0,0,1,18.7-34.84c1.28-1.45,2.51-2.94,3.91-4.28A6.13,6.13,0,0,1,341.6.16Z"/><path class="12353e15-a3ef-434c-a56f-41975748dd78" d="M104.8,125.17c-.62,0-1.25.06-1.87.06q-37.07,0-74.15,0a3.73,3.73,0,0,1-2.93-1.19A89.22,89.22,0,0,1,7.8,98.27,84.19,84.19,0,0,1,.93,74.85,82.07,82.07,0,0,1,0,63.08,85.12,85.12,0,0,1,7.45,28a89,89,0,0,1,13-20.55c2-2.37,4.19-4.49,6.34-6.68A2.08,2.08,0,0,1,28.41.08L105,.13l.19,0c.14.9-.56,1.35-1.08,1.84A82.88,82.88,0,0,0,84.35,31.65c-.33.79-.53,1.7-1.49,2a8.85,8.85,0,0,1-3.25-.81,42,42,0,0,0-21.44-1.15c-8.64,1.82-14.24,7.78-14.94,16.46-.72,8.87,3.53,15.42,13.37,18.37a63.65,63.65,0,0,0,10.66,2,24.83,24.83,0,0,1,5.29,1.17c3.23,1.14,4.9,3.12,5,5.85A7.22,7.22,0,0,1,73,82.28c-3.33,1.49-6.83,1.36-10.31.89A26.87,26.87,0,0,1,51,78.28c-2.24-1.55-2.5-1.45-4.46.41-1.77,1.68-3.22,3.65-4.93,5.38-1.25,1.26-1.16,1.95.25,3.07a30.19,30.19,0,0,0,9.19,5,43.33,43.33,0,0,0,26.32,1.07c1.86-.52,3.48-1.71,5.45-1.86,1.56,1.41,1.82,3.49,2.61,5.28a87,87,0,0,0,14.72,22.88c1.24,1.4,2.46,2.82,3.79,4.14C104.42,124,105,124.43,104.8,125.17Z"/><path class="c26aba9b-f44c-4089-bcb9-38fbbc5d8c53" d="M183.86.16c.75,0,1.49-.06,2.24-.06h74.57c.75,0,1.49,0,2.24.06.14.9-.55,1.35-1.07,1.85a83.78,83.78,0,0,0-16.53,22.48,79.69,79.69,0,0,0-6.4,16.92c-.19.75,0,1.88-1.34,1.91-.81-.42-1-1.26-1.24-2-.88-2.47-1.85-4.9-2.68-7.39a2.91,2.91,0,0,0-3.21-2.21c-2.87.05-5.74,0-8.61,0-2.35,0-2.7.29-3.54,2.53-2.63,7-5.19,14-7.83,21C206,67.19,201.58,79.14,197.12,91c-.9,2.4-.78,2.56,1.73,2.57,3.12,0,6.24,0,9.36,0a2.36,2.36,0,0,0,2.59-1.89c.82-2.62,1.76-5.2,2.57-7.82a2.91,2.91,0,0,1,3.15-2.3q9.36,0,18.71,0a2.82,2.82,0,0,1,3,2.2,66.85,66.85,0,0,0,3.77,10,90.8,90.8,0,0,0,19.58,29.7c.46.47,1.09.88.94,1.71-.75,0-1.49.06-2.24.06H186.1c-.75,0-1.49,0-2.24-.06-2.16-1.12-3.66-3-5.21-4.76a86.31,86.31,0,0,1-15.38-24.16c-.33-.8-1.27-1.8.2-2.53a95.47,95.47,0,0,1,9.73-.16c4.24,0,8.49-.08,12.73,0a3.13,3.13,0,0,0,3.47-2.4c.73-2.12,1.81-4.14,2.35-6.32s.38-2.48-1.76-2.5c-5,0-10,0-15,0-.69,0-1.37,0-2.06,0A2.21,2.21,0,0,1,170.58,80c0-.75,0-1.5,0-2.25q0-21,0-41.94c0-.69,0-1.37,0-2.06,0-1.33-.67-1.89-2-1.94a35.43,35.43,0,0,1-5-.16c-1.37-.5-.63-1.43-.35-2.15a71.81,71.81,0,0,1,5.46-10.83A90.69,90.69,0,0,1,181.78,1.7,5.9,5.9,0,0,1,183.86.16Z"/><path class="d4200052-189b-4fca-b5e4-ce0bc70cd8fe" d="M262.54,125.17a119.88,119.88,0,0,1-11.75-14.1A89.77,89.77,0,0,1,242,94.94a2.51,2.51,0,0,1-.07-.74c.61-.74,1.48-.55,2.26-.56,3,0,6,0,9,0,2.07,0,2.28-.27,1.6-2.14q-4.78-13-9.55-26-3.7-10.09-7.39-20.19c-.25-.68-.62-1.4-.06-2.12,1.06-2.25,1.41-4.72,2.2-7.06a87.43,87.43,0,0,1,16.42-29c2.07-2.43,4.52-4.47,6.52-6.94.75,0,1.49-.06,2.24-.06h74.21c.75,0,1.49,0,2.24.06a101.51,101.51,0,0,0-14,17.39,86.19,86.19,0,0,0-11.49,29.14,80.5,80.5,0,0,0-1.46,20,87,87,0,0,0,7,29.91,95.73,95.73,0,0,0,12.7,20.78c2.2,2.81,4.91,5.11,7.25,7.78-.75,0-1.49.06-2.24.06H264.78C264,125.23,263.29,125.19,262.54,125.17Z"/><path class="e996e642-18b1-46be-bfd3-a8a0bf321818" d="M162.89,94.2a88,88,0,0,0,14.88,24.46c1.94,2.27,4.23,4.19,6.09,6.51-.75,0-1.49.06-2.24.06H107c-.75,0-1.49,0-2.24-.06A102.6,102.6,0,0,1,91.45,108.7a76.73,76.73,0,0,1-8.39-17.23c-.07-1,.74-1.22,1.32-1.65a18.51,18.51,0,0,0,3.36-26c-2.07-2.58-5-3.89-7.91-5.16-.79-.34-1.72-.47-2-1.48a33.66,33.66,0,0,1,1.41-10.6,1.36,1.36,0,0,1,1.57-.15c1.32.56,2.12-.06,2.8-1.11,1.32-2,2.79-4,4.19-6,1.08-1.53,1-1.94-.57-3a30.87,30.87,0,0,0-2.76-1.56c-.56-.31-1.36-.43-1.39-1.32A110.19,110.19,0,0,1,89.9,19.26,84.67,84.67,0,0,1,104.32,1.14a12.56,12.56,0,0,0,.85-1c.75,0,1.49-.06,2.24-.06h74.21c.75,0,1.49,0,2.24.06a108.87,108.87,0,0,0-11.69,13.89,82.85,82.85,0,0,0-8.78,16.08c-.14.34-.34.66-.51,1-1,1-2.23.58-3.38.66-1.9.13-2.25.45-2.38,2.37,0,.62,0,1.25,0,1.87q0,26.76,0,53.52c0,.25,0,.5,0,.75,0,3,.19,3.16,3.15,3.26C161.17,93.58,162.16,93.39,162.89,94.2Z"/><path class="9318ed1a-c1eb-4443-8f0e-643eba9c99d9" d="M359.65,58.92c3.43,0,6.87,0,10.3,0,1.44,0,2.09.45,2,2-.11,3.18.1,6.37-.06,9.55-.37,7.52-2.49,14.32-8.58,19.33a24.87,24.87,0,0,1-11.93,5,31.86,31.86,0,0,1-16.29-1.46c-7.85-2.81-12.44-8.46-14.12-16.53a70.86,70.86,0,0,1-1.06-18.27c.27-5,.41-10,2.48-14.72,2.82-6.47,7.68-10.29,14.25-12.31a34.79,34.79,0,0,1,13.58-1c8,.76,14.69,4.23,18.86,11.52,1.41,2.46,1.25,2.92-1.45,4s-5.38,2.17-8.07,3.27a1.9,1.9,0,0,1-2.58-.73c-4-6.42-9.39-6.49-15-5.4-3.26.63-6.41,5.13-6.81,8.76-.68,6.15-.4,12.31-.26,18.46.08,3.48.62,7,3.6,9.66s6.07,3.06,9.57,2.68a10.91,10.91,0,0,0,4.29-1.36c3.55-2,5.79-6.84,5-10.64-.2-.92-.81-.61-1.28-.62-2.37,0-4.75-.09-7.12,0-1.47.06-1.81-.55-1.76-1.88.08-2.49.11-5,0-7.49-.08-1.56.66-1.91,2-1.9C352.66,58.93,356.15,58.92,359.65,58.92Z"/><path class="9318ed1a-c1eb-4443-8f0e-643eba9c99d9" d="M432.15,30.42A37.78,37.78,0,0,1,453,36c2,1.22,2.11,1.53.84,3.38-1.61,2.36-3.2,4.72-4.85,7.05-.76,1.07-1.63,1.16-2.86.43-4.68-2.77-9.68-4.7-15.22-4.37-2.47.15-5,.62-6.55,3-2.38,3.63-1.15,7.22,2.89,8.89a28.47,28.47,0,0,0,7.46,1.57c5.57.69,11.07,1.59,15.85,4.87,4.3,3,6.37,7.08,6.83,12.27a20,20,0,0,1-2.21,11.55c-2.64,5-7.08,7.49-12.07,9.07a36,36,0,0,1-12.35,1.57,43.33,43.33,0,0,1-23-7.15,12.49,12.49,0,0,1-1.63-1.53,1.33,1.33,0,0,1,0-2.1c2.29-2.5,4.51-5.07,6.86-7.52a1.91,1.91,0,0,1,2.68,0c5.55,4.19,11.71,6.53,18.76,5.9,3.65-.32,6.76-1.95,8-5.37a5.61,5.61,0,0,0-3.1-6.82c-3-1.31-6.2-1.64-9.4-2-6.49-.81-12.71-2.29-17.49-7.27A15.1,15.1,0,0,1,408.35,52c-.56-6.21,1-11.78,5.86-16.1a23.68,23.68,0,0,1,11.1-5.12A37.23,37.23,0,0,1,432.15,30.42Z"/><path class="9318ed1a-c1eb-4443-8f0e-643eba9c99d9" d="M382.44,62.85c0-9.8.06-19.6,0-29.4,0-1.92.72-2.31,2.37-2.28,3.43.07,6.87,0,10.3,0,1.44,0,2,.47,2,2q-.07,29.5,0,59c0,1.44-.35,2-1.88,2-3.62-.1-7.24-.1-10.86,0-1.48,0-1.94-.41-1.93-1.91C382.47,82.46,382.44,72.66,382.44,62.85Z"/><path class="9318ed1a-c1eb-4443-8f0e-643eba9c99d9" d="M78.18,57.46A44.91,44.91,0,0,1,85.6,61.2a15.17,15.17,0,0,1,6,9.69A19.19,19.19,0,0,1,89.82,84.4a16.89,16.89,0,0,1-6,6.35,1.92,1.92,0,0,0-.79.73c-3.2,1.35-6.38,2.71-9.89,3.12A46.85,46.85,0,0,1,62.33,95a55.09,55.09,0,0,1-11.26-2.38,33.62,33.62,0,0,1-9.66-5.14c-1.81-1.37-1.81-2-.24-3.71q3-3.17,6-6.38a2,2,0,0,1,3-.28c3.83,2.79,8,5.1,12.75,5.6,4.45.46,9.06.9,12.61-3a5.55,5.55,0,0,0-.86-8.44c-2.25-1.54-4.85-1.94-7.45-2.26-4.85-.61-9.67-1.3-14.22-3.26-7.48-3.21-11.25-10.44-10.16-19,1.06-8.33,8-14.15,15.59-15.63a44.77,44.77,0,0,1,24.59,2.32c1.63,1.16,3.56,1.79,5.17,3,1,.75,1.13,1.44.45,2.41-1.7,2.44-3.45,4.86-5.08,7.35-1.22,1.87-2.55.65-3.87.29-1.51-.41-2.88-1.17-4.33-1.72-4.13-1.57-8.34-2.56-12.76-1.3a5.82,5.82,0,0,0-3.8,2.8,4.75,4.75,0,0,0,2.06,7c3.39,1.81,7.18,1.9,10.85,2.55C73.93,56.2,76.24,56.13,78.18,57.46Z"/><path class="9318ed1a-c1eb-4443-8f0e-643eba9c99d9" d="M237.78,43.2c.88,3.6,2.39,7,3.62,10.46,2.58,7.3,5.35,14.53,8,21.8q3,8.26,6,16.54c.76,2.12.7,2.13-1.52,2.14l-12,.06a3,3,0,0,1-1.21-1.73c-1-3.05-2.24-6-3.2-9.09a1.44,1.44,0,0,0-1.66-1.24c-6.68,0-13.36,0-20,0-1.07,0-1.45.36-1.77,1.38-1,3.13-2.17,6.19-3.1,9.32a1.54,1.54,0,0,1-1.81,1.32c-4,0-8-.07-12,0-1.48,0-1.58-.73-1.22-1.71,2.64-7.1,5.35-14.18,8-21.27s5.34-14.18,8-21.29c2.07-5.57,4.09-11.15,6.13-16.73a2.74,2.74,0,0,1,3-2c3.24.12,6.49.11,9.74,0a2.87,2.87,0,0,1,3.24,2.23A77.26,77.26,0,0,0,237.78,43.2Z"/><path class="9318ed1a-c1eb-4443-8f0e-643eba9c99d9" d="M162.89,94.2,159,94.14c-2.25,0-2.45-.21-2.45-2.47q0-25.14,0-50.29c0-2.55,0-5.11,0-7.66,0-2.15.39-2.51,2.45-2.52l3.92-.06,5.8.06c2.44,0,2.44,0,2.44,2.52,0,15.28,0,30.57,0,45.85,0,1.69.38,2.28,2.17,2.25,5.92-.11,11.85,0,17.78,0,1.82,0,2.22.52,1.59,2.28-1.08,3-2.28,6-3.36,9-.39,1.09-1.16,1.07-2.06,1.07Q175.05,94.16,162.89,94.2Z"/><path class="9318ed1a-c1eb-4443-8f0e-643eba9c99d9" d="M300.8,68.46l12.07,23a4.78,4.78,0,0,1,.57,1.14c.19.91.23,1.63-1.18,1.6q-6.65-.13-13.29,0c-1.23,0-1.55-.68-2-1.53-3.36-6.89-6.77-13.76-10.1-20.66a2.17,2.17,0,0,0-2.39-1.48,45.78,45.78,0,0,1-5.8,0c-1.39-.09-1.61.44-1.6,1.68.06,6.49,0,13,0,19.47,0,2.48,0,2.48-2.48,2.48-3.5,0-7,0-10.49,0-1.18,0-1.67-.33-1.66-1.59q0-29.87,0-59.74c0-1.43.77-1.63,1.85-1.63,8.74,0,17.48-.18,26.21.06,5.06.14,10,1.17,14.22,4.42a18.22,18.22,0,0,1,7.26,12.24A18.91,18.91,0,0,1,309,61.82,19.42,19.42,0,0,1,300.8,68.46Z"/><path class="9318ed1a-c1eb-4443-8f0e-643eba9c99d9" d="M97.33,62.91c0-5-.13-10,1.06-14.93,2.1-8.78,7.51-14.3,16.12-16.53,7.37-1.91,14.78-1.75,21.81,1.49,7.63,3.51,11.32,9.88,12.35,18a86.5,86.5,0,0,1,.68,15.57c-.28,5.05-.36,10.17-2.45,15-3.14,7.22-8.78,11.3-16.26,13a32.54,32.54,0,0,1-18-.91c-7.65-2.66-12.31-8-14.24-15.89C97.23,72.79,97.25,67.86,97.33,62.91Z"/><path class="12353e15-a3ef-434c-a56f-41975748dd78" d="M78.18,57.46c-5.11-.89-10.24-1.65-15.31-2.72-3.56-.75-5.3-3-5.27-5.92a6.22,6.22,0,0,1,4.23-5.62c4.81-1.59,9.45-.62,13.93,1.23,1.36.56,3,.77,4,2.1-.82,1.63-.76,3.46-1.09,5.19A49.23,49.23,0,0,0,78.18,57.46Z"/><path class="c26aba9b-f44c-4089-bcb9-38fbbc5d8c53" d="M226.13,49.71l7,20.75H218.63l7.09-20.83Z"/><path class="d4200052-189b-4fca-b5e4-ce0bc70cd8fe" d="M277.16,50.89c0-2.05,0-4.11,0-6.16,0-1.1.33-1.59,1.5-1.56,4.14.1,8.32-.33,12.42.42s6.43,2.86,6.63,7-2.07,6.53-5.85,7.55c-3.51.95-7.15.31-10.72.39-4,.09-4,0-4-3.9Q277.16,52.76,277.16,50.89Z"/><path class="e996e642-18b1-46be-bfd3-a8a0bf321818" d="M134.41,62.72c-.09,4.49.29,9-1.08,13.41-1.74,5.61-7.49,7.26-11.87,6.64a9.72,9.72,0,0,1-7.79-5.38,12.63,12.63,0,0,1-1.32-4.71A85.52,85.52,0,0,1,112,58.36c.31-3.49,0-7.1,1.79-10.41a9.32,9.32,0,0,1,8.43-5.16c3.39-.17,6.51.29,8.95,2.94A11.78,11.78,0,0,1,134,51.95C134.63,55.52,134.35,59.13,134.41,62.72Z"/></svg>