<svg id="f109070e-40cf-4039-a537-8ba3f7648ac9" data-name="Lager 1" xmlns="http://www.w3.org/2000/svg" viewBox="0 0 100 22.21"><defs><style>.dc1b7877-3db9-41ce-8e3a-40c4eb4f54fc{fill:#e30613;}.\31 44ccb63-94ca-45ba-8fde-3aabe37f43c6,.\34 85366c1-05cc-421f-8f67-af7c93b438ac{fill:#fff;}.\34 85366c1-05cc-421f-8f67-af7c93b438ac{stroke:#fff;stroke-width:0.5px;}</style></defs><title>thisab</title><path class="dc1b7877-3db9-41ce-8e3a-40c4eb4f54fc" d="M97.11,22.21c-.81,0,2.89-.13,2.89-2.89V2.89A2.92,2.92,0,0,0,97.11,0H2.89A2.92,2.92,0,0,0,0,2.89V19.31a2.92,2.92,0,0,0,2.89,2.89Z"/><path class="485366c1-05cc-421f-8f67-af7c93b438ac" d="M16.82,16.55c0,2.09-.34,2.62,1.88,2.69H12.11C14,19.25,14,18.1,14,16.55V4.71c0-.67.07-1.28-.54-1.28-2.09,0-3.63.27-4.58,2.36l-.27-.13L9.22,3.1h.67c.4.13.74-.13,1.14,0h8.75A7.31,7.31,0,0,1,21,3.16h.61l.61,2.49-.27.13C21,3.63,19.45,3.5,17.36,3.5c-.61,0-.54.61-.54,1.28Z"/><path class="485366c1-05cc-421f-8f67-af7c93b438ac" d="M27.73,11v5.52c0,2.29-.2,2.62,1.62,2.69h-6c1.82,0,1.48-.2,1.48-2.69V5.79c0-2.09.34-2.62-1.48-2.69h6c-2,0-1.62.74-1.62,2.69V10.7h6.59V5.79c0-1.88.34-2.62-1.68-2.69h6c-1.82,0-1.48.74-1.48,2.69V16.55c0,1.88,0,2.69,1.48,2.69H32.57c1.68,0,1.68-.74,1.68-2.69V11Z"/><path class="485366c1-05cc-421f-8f67-af7c93b438ac" d="M43.47,5.79c0-1.88.34-2.62-1.75-2.69h6.46c-2.09,0-1.75.61-1.75,2.69V16.55c0,1.88-.13,2.62,1.75,2.69H41.72c2.09,0,1.75-.74,1.75-2.69Z"/><path class="485366c1-05cc-421f-8f67-af7c93b438ac" d="M60.43,6.19H60c-.61-2.29-2.09-2.76-4.44-2.76A2.43,2.43,0,0,0,53,5.85c0,1.88,2.15,2.62,4.31,3.63s4.24,2.22,4.24,5.11c0,3.84-2.29,5-5.38,5a12.5,12.5,0,0,1-2.29-.34A7.81,7.81,0,0,0,52.36,19c-.2,0-.54.34-.81.67h-.61v-3.7h.4c.94,2.76,2.09,3.16,4.71,3.16,1.62,0,3.3-.94,3.3-2.62,0-2.22-2.09-3-4.17-4s-4.24-2.15-4.24-5.11a4.36,4.36,0,0,1,4.51-4.58,7.42,7.42,0,0,1,2.36.4,7.94,7.94,0,0,0,1.28.4,1.11,1.11,0,0,0,1-.61h.4Z"/><path class="485366c1-05cc-421f-8f67-af7c93b438ac" d="M61.78,19.25h0c1.41-.4,1.75-1.68,2.62-4.17l3.36-9.29c-.07-.27-.2-.67-.4-.74A12.18,12.18,0,0,0,69,3c.13-.2.2-.27.27-.27a.64.64,0,0,1,.54.47L75.17,17c.47,1.28.61,2.09,1.75,2.22H70.66a1.45,1.45,0,0,0,1.55-1.48,4.58,4.58,0,0,0-.54-1.62L71,14.47H65.28l-.54,1.62a9.08,9.08,0,0,0-.4,1.62,1.55,1.55,0,0,0,1.55,1.55h-4.1Zm3.77-5.18h5.11L68,6.73Z"/><path class="485366c1-05cc-421f-8f67-af7c93b438ac" d="M78.73,5.79c0-1.88.34-2.69-1.14-2.69h5.85c2.15,0,5.65.47,5.65,3.77a3.92,3.92,0,0,1-3.23,3.77v.07c1.82.47,4,1.62,4,4.31,0,3.7-3,4.31-5.65,4.31H77.86c1.14,0,.94-.81.94-2.69L78.73,5.79ZM82,17.36c0,1.28.87,1.35,2,1.35,2.09,0,3-1.21,3-3.77,0-3-1.55-3.9-3.77-3.9H82v6.33Zm0-6.86h1.62c1.82-.07,2.69-1.62,2.69-3.77,0-2.36-1.08-3.23-3.36-3.23-.81,0-.94.07-.94.94Z"/><path class="144ccb63-94ca-45ba-8fde-3aabe37f43c6" d="M91.45,3.43v3.1h-.61V3.43H89.77V3H92.6v.47Zm5.11,3v-3h0l-1.14,3h-.34l-1.14-3h0v3h-.61V2.89h.87l1.08,2.69,1-2.69h.87V6.46Z"/></svg>