<svg id="fbf9e05b-41ef-4230-8633-6e94ad54385f" data-name="Volvo Group" xmlns="http://www.w3.org/2000/svg" viewBox="0 0 100 34.37"><title>volvo</title><path d="M9.92,2.27l4.37,8s4.12-7.65,4.37-8H16.05v-2h9v2H22.1c-.17.25-5.88,11-6,11h-7c-.08,0-6.05-11-6.05-11H0v-2H13v2Z"/><path d="M67.56,2.27l4.37,8s4.12-7.65,4.37-8H73.7v-2h9v2H79.75c-.17.25-5.88,11-6,11h-7c-.08,0-6.05-11-6.05-11H57.82v-2h13v2Z"/><path d="M54.79,11.26a5.14,5.14,0,0,0,2-.34,7,7,0,0,0,1-.67,4.22,4.22,0,0,0,1.26-2.94h2v6h-18v-2h3v-9h-3v-2h12v2h-3v9Z"/><path d="M33,11.6c2.27,0,3.19-2.44,3.19-4.79,0-2.52-1.09-4.71-3.19-4.71s-3.19,2.18-3.19,4.71c0,2.35,1,4.79,3.19,4.79ZM23.78,6.81C23.78,3,27,0,33,0s9.24,3,9.24,6.81-3,6.89-9.24,6.89S23.78,10.59,23.78,6.81Z"/><path d="M90.67,11.6c2.27,0,3.19-2.44,3.19-4.79,0-2.52-1.09-4.71-3.19-4.71s-3.19,2.18-3.19,4.71c0,2.35,1,4.79,3.19,4.79ZM81.51,6.81C81.51,3,84.71,0,90.76,0S100,3,100,6.81s-3,6.89-9.24,6.89S81.51,10.59,81.51,6.81Z"/><path d="M28.07,32.86H26.39L24.45,26.3h1.26l1.43,5.13,1.43-5.13h1.26Z"/><path d="M34.29,31.76A2.19,2.19,0,0,1,32.18,33a2.34,2.34,0,0,1-2.35-2.52,2.32,2.32,0,0,1,2.35-2.44,2.34,2.34,0,0,1,2.35,2.52A3.3,3.3,0,0,1,34.29,31.76Zm-1.09-1.93a1.13,1.13,0,0,0-1.09-.76c-.84,0-1.18.76-1.18,1.43A1.36,1.36,0,0,0,32.18,32c.84,0,1.18-.76,1.18-1.43A2,2,0,0,0,33.19,29.83Z"/><path d="M35.46,32.86V26.3h1.09v6.55Z"/><path d="M39.83,32.86H38.66l-1.51-4.62h1.18l.92,3.19.92-3.19h1.18Z"/><path d="M46.22,31.76A2.19,2.19,0,0,1,44.12,33a2.34,2.34,0,0,1-2.35-2.52,2.32,2.32,0,0,1,2.35-2.44,2.34,2.34,0,0,1,2.35,2.52A3.3,3.3,0,0,1,46.22,31.76Zm-1-1.93a1.13,1.13,0,0,0-1.09-.76c-.84,0-1.18.76-1.18,1.43A1.36,1.36,0,0,0,44.2,32c.84,0,1.18-.76,1.18-1.43C45.29,30.25,45.29,30.08,45.21,29.83Z"/><path d="M54.62,32.86v-.59c-.08.08-.17.08-.25.17a2.36,2.36,0,0,1-1.51.5h-.08a3,3,0,0,1-3-3.28v-.08a3.67,3.67,0,0,1,1.6-3.11,2.93,2.93,0,0,1,1.6-.42,3,3,0,0,1,2.61,1.51,1.42,1.42,0,0,1,.17.42l-1.18.59a3.3,3.3,0,0,0-.17-.5,1.64,1.64,0,0,0-1.43-.84c-1.43,0-1.76,1.43-1.76,2.35,0,1.6,1,2.27,1.85,2.27a1.5,1.5,0,0,0,1.51-1,1.48,1.48,0,0,0,.08-.5H53V29.24H55.8v3.53l-1.18.08Z"/><path d="M59.33,29.24a1.31,1.31,0,0,0-1.43,1.51v2.1H56.81V28.24H57.9v.67a1.53,1.53,0,0,1,1.43-.76h.08l-.08,1.09Z"/><path d="M64.12,31.76A2.19,2.19,0,0,1,62,33a2.34,2.34,0,0,1-2.35-2.52A2.32,2.32,0,0,1,62,28.07a2.34,2.34,0,0,1,2.35,2.52A1.6,1.6,0,0,1,64.12,31.76Zm-1-1.93A1.13,1.13,0,0,0,62,29.08c-.84,0-1.18.76-1.18,1.43A1.36,1.36,0,0,0,62.1,32c.84,0,1.18-.76,1.18-1.43A2,2,0,0,0,63.11,29.83Z"/><path d="M68.4,32.86v-.5a2,2,0,0,1-1.51.59c-1.6,0-1.6-1.26-1.6-1.76v-3h1.09v2.61c0,.59.08.84.5,1a3.64,3.64,0,0,0,.42.08A1.25,1.25,0,0,0,68,31.6a1.55,1.55,0,0,0,.42-1.34v-2.1H69.5v4.62l-1.09.08Z"/><path d="M73,33a2,2,0,0,1-1.26-.5v1.85H70.67V28.24h1.09v.42a1.84,1.84,0,0,1,1.34-.59,2.29,2.29,0,0,1,2.1,2.52A2.33,2.33,0,0,1,73,33Zm-.08-3.87a1.19,1.19,0,0,0-1.18,1.34,1.64,1.64,0,0,0,.08.67,1.06,1.06,0,0,0,1,.76c.5,0,1.09-.42,1.09-1.43A1.09,1.09,0,0,0,72.94,29.16Z"/></svg>