<svg id="ba0201ea-0103-49bf-a600-f9dea8874382" data-name="Layer 1" 
    xmlns="http://www.w3.org/2000/svg" viewBox="0 0 499.25 171.68">
    <title>volvo-group</title>
    <g transform="scale(1)">
    <path d="M49.29,11.33l21.92,40s20.67-38,21.64-40H79.9s0-7.65,0-10h44.8c0,2.55,0,10,0,10H109.81c-.69,1.24-29.57,54.81-29.71,54.95-1.57,0-33.28,0-35,0-.23-.09-30.23-54.92-30.23-54.92H0v-10H65v9.95Z"/>
    <path d="M337.56,11.33l21.92,40s20.67-38,21.64-40H368.18s0-7.65,0-10H413c0,2.55,0,10,0,10H398.09c-.69,1.24-29.57,54.81-29.71,54.95-1.57,0-33.28,0-35,0-.23-.09-30.22-54.92-30.22-54.92H288.28v-10h65c0,2,0,7.38,0,9.95Z"/>
    <path d="M273.66,56.13c5.32,0,7.56-.64,10-1.83a20.06,20.06,0,0,0,4.92-3.54,20.58,20.58,0,0,0,6.33-14.58h9.89c0,.49,0,26.57,0,30h-90c0-2.85,0-9.28,0-10h15.11c0-.85,0-44.83,0-44.83H214.83c0-2.71,0-7,0-9.94h59.93v9.93H259.82c0,2.42,0,43.26,0,44.83Z"/>
    <path d="M164.87,57.86c11.35,0,16-12.34,16-24.13,0-12.49-5.62-23.51-15.92-23.51s-16.09,11-16.09,23.51c0,12.08,5,24.14,16.06,24.13Zm-46.13-24C118.75,15,134.73,0,164.82,0s46.25,15,46.25,33.85c0,19.09-15.22,34.32-46.08,34.32S118.75,52.95,118.75,33.85Z"/>
    <path d="M453.05,57.86c11.35,0,16-12.34,16-24.13,0-12.49-5.62-23.51-15.92-23.51S437,21.23,437,33.73c0,12.08,5,24.14,16.06,24.13Zm-46.13-24C406.93,15,422.9,0,453,0s46.25,15,46.25,33.85c0,19.09-15.22,34.32-46.08,34.32S406.93,52.95,406.93,33.85Z"/>
    <path d="M140,164.15h-8.22l-9.61-32.61h6.42l7.3,25.73,7.11-25.73h6.28Z"/>
    <path d="M171,158.65a11.27,11.27,0,0,1-10.44,6.19c-7.21,0-12-5.36-12-12.42,0-6.65,4.62-12.06,11.82-12.06s11.92,5.26,11.92,12.43A13.06,13.06,0,0,1,171,158.65Zm-5.13-9.51a5.84,5.84,0,0,0-5.59-3.79c-4.07,0-5.91,3.69-5.91,7,0,3.6,1.94,7.44,6.37,7.44,4.25,0,5.82-4,5.82-7A9.24,9.24,0,0,0,165.86,149.14Z"/>
    <path d="M176.9,164.15V131.54h5.64v32.61Z"/>
    <path d="M198.79,164.15h-5.91l-7.48-23.1h5.73l4.8,15.89,4.71-15.89h5.77Z"/>
    <path d="M230.75,158.65a11.27,11.27,0,0,1-10.44,6.19c-7.21,0-12-5.36-12-12.42,0-6.65,4.62-12.06,11.82-12.06s11.92,5.26,11.92,12.43A13.06,13.06,0,0,1,230.75,158.65Zm-5.13-9.51a5.84,5.84,0,0,0-5.59-3.79c-4.07,0-5.91,3.69-5.91,7,0,3.6,1.94,7.44,6.37,7.44,4.25,0,5.82-4,5.82-7A9.25,9.25,0,0,0,225.63,149.14Z"/>
    <path d="M272.78,164.15v-2.77c-.41.37-.69.6-1.15,1A11.93,11.93,0,0,1,264,165h-.23c-9.7,0-15.24-7.72-15.24-16.45v-.37c0-2,.28-10.76,7.9-15.33a15.56,15.56,0,0,1,7.85-2.12,14.24,14.24,0,0,1,12.84,7.57c.46.88.83,1.8.92,2l-5.82,2.31a16,16,0,0,0-1-2.35,7.77,7.77,0,0,0-7.11-4.07c-7,0-8.92,6.93-8.92,11.73,0,8.13,4.85,11.27,9.15,11.27,3,0,6.28-1.3,7.57-5.08a12.91,12.91,0,0,0,.55-2.45h-8.13v-5.36H278v17.83Z"/>
    <path d="M296.19,146.23c-6.65,0-7,5-7,7.48v10.44h-5.36v-23.1h5.36v3.28c1.11-2.22,3.23-3.79,7.07-3.79h.28v5.68Z"/>
    <path d="M320.39,158.65A11.27,11.27,0,0,1,310,164.85c-7.21,0-12-5.36-12-12.42,0-6.65,4.62-12.06,11.82-12.06s11.92,5.26,11.92,12.43A13.06,13.06,0,0,1,320.39,158.65Zm-5.13-9.51a5.84,5.84,0,0,0-5.59-3.79c-4.07,0-5.91,3.69-5.91,7,0,3.6,1.94,7.44,6.37,7.44,4.25,0,5.82-4,5.82-7A9.25,9.25,0,0,0,315.26,149.14Z"/>
    <path d="M341.77,164.15v-2.4a10.33,10.33,0,0,1-7.48,3c-7.85,0-8-6.47-8-8.77V141.06h5.59v13.12c0,2.82.51,4,2.31,4.85a5.37,5.37,0,0,0,5.5-.69c2-1.66,2.08-4,2.08-6.52V141.06h5.54v23.1Z"/>
    <path d="M364.91,164.85a9,9,0,0,1-6.33-2.59v9.42H353V141.06h5.54v2.08a8.46,8.46,0,0,1,6.51-2.77c7.16,0,10.3,6.84,10.3,12.43C375.4,158.56,372,164.85,364.91,164.85Zm-.74-19.17c-2.49,0-5.68,1.75-5.68,6.79a10,10,0,0,0,.6,3.51,5.22,5.22,0,0,0,5,3.6c2.68,0,5.59-1.89,5.59-6.93S366.71,145.68,364.17,145.68Z"/>
</svg>