<svg id="16f02dac-b3a1-43b2-9da3-a48b3b23e65f" data-name="Layer 1" xmlns="http://www.w3.org/2000/svg" viewBox="0 0 500 34.2"><defs><style>.\36 6fc0341-d211-4671-93ef-682061874e60{fill:#1a1a19;}.f8fe5d62-0b80-4416-96fb-cdbabcbae011{fill:#890422;}</style></defs><title>wamtechnik</title><path class="66fc0341-d211-4671-93ef-682061874e60" d="M345,34.2h-7.34l1.51-3.55,12.37-29.1L352.15,0h9l-1.51,3.55-3.44,8.09h4.31L376.46.47l.67-.47H391L384.4,4.63l-10.95,7.69.51.24h0a7.23,7.23,0,0,1,1.61,1.15,6.93,6.93,0,0,1,1.22,1.55h0a7.15,7.15,0,0,1,.74,1.84,8.06,8.06,0,0,1,.24,2,9.46,9.46,0,0,1-.24,2.08h0a12.54,12.54,0,0,1-.65,2v0l-4,9.43-.66,1.56h-9l1.51-3.55,4-9.43a5,5,0,0,0,.29-.9,2.78,2.78,0,0,0,.07-.6v0l-.38,0H352.83l-5.52,13-.66,1.56Z"/><polygon class="66fc0341-d211-4671-93ef-682061874e60" points="331.35 34.2 327.86 34.2 324.01 34.2 325.52 30.65 337.89 1.55 338.55 0 340.23 0 343.72 0 347.57 0 346.06 3.55 333.7 32.65 333.04 34.2 331.35 34.2"/><path class="66fc0341-d211-4671-93ef-682061874e60" d="M329.85,9.47a12.22,12.22,0,0,1-.66,2v0l-9,21.13-.66,1.56h-9L312,30.65l9-21.12h0a4.75,4.75,0,0,0,.28-.86h0a2.45,2.45,0,0,0,.06-.56v0h0L321,8H307.87a3.24,3.24,0,0,0-.75.11h0a3.64,3.64,0,0,0-.77.3h0a5.33,5.33,0,0,0-.81.53,6.06,6.06,0,0,0-.76.73h0a7.07,7.07,0,0,0-.67.87h0a6.91,6.91,0,0,0-.52,1l-9,21.13-.66,1.56h-9l1.51-3.55,9-21.12v0a15.07,15.07,0,0,1,1-1.95,15.37,15.37,0,0,1,1.32-1.8h0a17.81,17.81,0,0,1,1.53-1.58A17.53,17.53,0,0,1,301,2.8h0a16.36,16.36,0,0,1,1.88-1.14h0a15.9,15.9,0,0,1,2-.87A13.16,13.16,0,0,1,307,.21a12.74,12.74,0,0,1,2.12-.2h13.19a10.3,10.3,0,0,1,2.07.21,7.55,7.55,0,0,1,1.93.69h0a7,7,0,0,1,1.6,1.14h0a6.68,6.68,0,0,1,1.21,1.55h0a7,7,0,0,1,.74,1.84,8.09,8.09,0,0,1,.24,2,9.37,9.37,0,0,1-.25,2.06"/><polygon class="66fc0341-d211-4671-93ef-682061874e60" points="278.77 34.2 275.28 34.2 271.43 34.2 272.94 30.65 276.99 21.11 260.41 21.11 255.51 32.65 254.84 34.2 253.16 34.2 249.67 34.2 245.82 34.2 247.33 30.65 259.7 1.55 260.36 0 262.04 0 265.53 0 269.38 0 267.87 3.55 263.82 13.1 280.4 13.1 285.3 1.55 285.96 0 287.64 0 291.13 0 294.99 0 293.48 3.55 281.11 32.65 280.45 34.2 278.77 34.2"/><polygon class="66fc0341-d211-4671-93ef-682061874e60" points="219.48 26.28 219.48 26.28 219.48 26.28 219.48 26.28"/><path class="66fc0341-d211-4671-93ef-682061874e60" d="M243.26,29.74,242,32.65l-.66,1.56H218.53a10.3,10.3,0,0,1-2.06-.21,7.6,7.6,0,0,1-1.93-.69h0a7.34,7.34,0,0,1-1.59-1.13,6.85,6.85,0,0,1-1.23-1.56h0a7,7,0,0,1-.73-1.83,8.35,8.35,0,0,1-.23-1.94v0a9.51,9.51,0,0,1,.24-2.06,12.59,12.59,0,0,1,.65-2v0l5.59-13.15v0a15.23,15.23,0,0,1,1-1.94,15.51,15.51,0,0,1,1.32-1.8h0a17.41,17.41,0,0,1,3.25-3h0a16.59,16.59,0,0,1,1.88-1.14h0a16.1,16.1,0,0,1,2-.87,13.26,13.26,0,0,1,2.09-.57A12.73,12.73,0,0,1,230.9,0h25l-1.51,3.55-1.24,2.91L252.48,8H229.68a3.17,3.17,0,0,0-.74.11h0a3.7,3.7,0,0,0-.76.3h0a5.19,5.19,0,0,0-.81.53,6.26,6.26,0,0,0-.76.73h0a6.89,6.89,0,0,0-.67.87h0a6.92,6.92,0,0,0-.52,1L219.8,24.67a4.59,4.59,0,0,0-.28.86h0a2.14,2.14,0,0,0-.06.56v.06l.32,0h25Z"/><polygon class="66fc0341-d211-4671-93ef-682061874e60" points="180.37 26.27 180.38 26.27 180.37 26.27 180.37 26.27"/><path class="66fc0341-d211-4671-93ef-682061874e60" d="M212.57,5.44a7.16,7.16,0,0,0-.74-1.84h0a6.82,6.82,0,0,0-1.21-1.55h0A7,7,0,0,0,209,.91h0a7.75,7.75,0,0,0-1.93-.69A10.3,10.3,0,0,0,205,0H191.8a12.85,12.85,0,0,0-2.12.2h0a13,13,0,0,0-2.09.57,16.06,16.06,0,0,0-2,.87h0a16.85,16.85,0,0,0-1.88,1.14h0A18.07,18.07,0,0,0,182,4.18a18.34,18.34,0,0,0-1.53,1.58h0a15.33,15.33,0,0,0-1.31,1.8,14.72,14.72,0,0,0-1,2h0l-5.56,13.09v0a12.31,12.31,0,0,0-.65,2,9.64,9.64,0,0,0-.24,2v0a8.51,8.51,0,0,0,.24,2,7.23,7.23,0,0,0,.73,1.83h0a6.9,6.9,0,0,0,1.22,1.56,7.27,7.27,0,0,0,1.62,1.15h0a7.82,7.82,0,0,0,1.92.68,9.71,9.71,0,0,0,2.07.23h22.77l.66-1.56,1.24-2.91,1.51-3.55H180.75l-.39,0h0a2.47,2.47,0,0,1,.06-.6,5.23,5.23,0,0,1,.31-.92l.87-2.05h25.6l.66-1.56,4-9.49v0a12.18,12.18,0,0,0,.65-2,9.35,9.35,0,0,0,.24-2.06h0a7.91,7.91,0,0,0-.24-2M204.07,8V8.1a2.39,2.39,0,0,1-.06.56h0a5.08,5.08,0,0,1-.28.86h0l-2.13,5H185l1.29-3a7,7,0,0,1,.52-1h0a7.09,7.09,0,0,1,.67-.87h0a5.65,5.65,0,0,1,.76-.72h0a5.28,5.28,0,0,1,.82-.54,3.73,3.73,0,0,1,.76-.3h0a3.19,3.19,0,0,1,.75-.11h13.15l.33,0Z"/><polygon class="66fc0341-d211-4671-93ef-682061874e60" points="155.26 8.01 146.31 8.01 142.46 8.01 143.97 4.47 145.2 1.55 145.87 0 147.55 0 176.64 0 180.5 0 178.99 3.55 177.75 6.46 177.09 8.01 175.41 8.01 164.28 8.01 153.81 32.65 153.16 34.2 151.47 34.2 147.98 34.2 144.13 34.2 145.64 30.65 155.26 8.01"/><path class="66fc0341-d211-4671-93ef-682061874e60" d="M140.08,9.48a12.71,12.71,0,0,1-.65,2v0l-9,21.12-.66,1.56h-9l1.51-3.55,9-21.12a5,5,0,0,0,.28-.87,2.34,2.34,0,0,0,.06-.56V8h0l-.33,0h-5.59a3.12,3.12,0,0,0-.72.1h0a3.78,3.78,0,0,0-.74.28h0a5.07,5.07,0,0,0-.79.5h0a5.86,5.86,0,0,0-.74.66v0a6.61,6.61,0,0,0-.67.82h0a6.53,6.53,0,0,0-.52.91h0l-.09.21-9,21.12-.66,1.56h-9l1.51-3.55,9-21.12h0a5,5,0,0,0,.28-.86h0a2.28,2.28,0,0,0,.06-.56v0h0l-.33,0h-5.59a3.15,3.15,0,0,0-.74.11h0a3.71,3.71,0,0,0-.76.3h0a5.17,5.17,0,0,0-.81.53,6.14,6.14,0,0,0-.76.73h0a7,7,0,0,0-.67.87h0a7.07,7.07,0,0,0-.52,1l-9,21.12-.66,1.56h-9l1.51-3.55,9-21.12v0a14.87,14.87,0,0,1,1-1.94,15.85,15.85,0,0,1,1.31-1.8h0A17.3,17.3,0,0,1,99,4.18a17.88,17.88,0,0,1,1.72-1.38h0a16.49,16.49,0,0,1,1.88-1.14h0a15.9,15.9,0,0,1,2-.87,13.16,13.16,0,0,1,2.09-.57,12.74,12.74,0,0,1,2.12-.2h5.62a9.79,9.79,0,0,1,2.34.29,7.53,7.53,0,0,1,2.15.9h0A7.19,7.19,0,0,1,120,2a15.94,15.94,0,0,1,2-1h0a13.63,13.63,0,0,1,2.39-.74A12.54,12.54,0,0,1,126.88,0h5.63a10.31,10.31,0,0,1,2.07.21,7.7,7.7,0,0,1,1.93.69h0A7.12,7.12,0,0,1,138.12,2h0a6.87,6.87,0,0,1,1.21,1.56h0a7.14,7.14,0,0,1,.73,1.84,8.26,8.26,0,0,1,.23,2,9.23,9.23,0,0,1-.25,2.07Z"/><polygon class="66fc0341-d211-4671-93ef-682061874e60" points="58.33 26.28 58.33 26.28 58.32 26.28 58.33 26.28"/><path class="66fc0341-d211-4671-93ef-682061874e60" d="M90.48,5.48a7.22,7.22,0,0,0-.74-1.84h0a7,7,0,0,0-1.22-1.56A7.22,7.22,0,0,0,86.9.93a7.81,7.81,0,0,0-2-.71h0A10.09,10.09,0,0,0,82.88,0H60.11l-.66,1.56L58.21,4.47,56.7,8H81.62L82,8h0v0a2.48,2.48,0,0,1-.06.59h0a5.3,5.3,0,0,1-.3.92l-.87,2.05h-16a12.23,12.23,0,0,0-2.13.2h0a13.52,13.52,0,0,0-2.09.56h0a15.42,15.42,0,0,0-2,.87h0a16.91,16.91,0,0,0-1.88,1.14A17.66,17.66,0,0,0,55,15.81a18,18,0,0,0-1.52,1.57l0,0a15.74,15.74,0,0,0-1.31,1.8,15.55,15.55,0,0,0-1,1.94v0l-.64,1.51v0a12.59,12.59,0,0,0-.65,2,9.38,9.38,0,0,0-.25,2.06v0a8.62,8.62,0,0,0,.23,1.94,7.08,7.08,0,0,0,.73,1.83h0a6.76,6.76,0,0,0,1.23,1.56,7.33,7.33,0,0,0,1.59,1.12l0,0a7.59,7.59,0,0,0,1.93.69,10.32,10.32,0,0,0,2.06.21H80.2l.66-1.56,9-21.07v0a12.47,12.47,0,0,0,.65-2h0a9.31,9.31,0,0,0,.23-2.07h0a8.1,8.1,0,0,0-.23-2M74.59,26.19h-16l-.33,0v-.06a2.19,2.19,0,0,1,.06-.56h0a4.75,4.75,0,0,1,.28-.86l.64-1.51a6.21,6.21,0,0,1,.51-1h0a6.55,6.55,0,0,1,.67-.87h0a5.75,5.75,0,0,1,.77-.72h0a5.31,5.31,0,0,1,.81-.53h0a3.42,3.42,0,0,1,.76-.29h0a3.25,3.25,0,0,1,.75-.1H77.36Z"/><path class="66fc0341-d211-4671-93ef-682061874e60" d="M48.31,0h7.34L54.14,3.55l-9,21.12h0a14.68,14.68,0,0,1-1,2,15,15,0,0,1-1.32,1.8h0A17.24,17.24,0,0,1,41.29,30a17.63,17.63,0,0,1-1.73,1.38h0a16.73,16.73,0,0,1-1.87,1.14,16.47,16.47,0,0,1-2,.88h0a13,13,0,0,1-2.1.57,12.8,12.8,0,0,1-2.11.2H25.85a9.87,9.87,0,0,1-2.37-.29A7.41,7.41,0,0,1,21.32,33h0a7.3,7.3,0,0,1-1-.8,16.11,16.11,0,0,1-2,1h0a13.84,13.84,0,0,1-2.37.75h0a12.29,12.29,0,0,1-2.42.26H7.81A10.27,10.27,0,0,1,5.75,34a7.58,7.58,0,0,1-1.93-.69h0a7.27,7.27,0,0,1-1.59-1.13A6.79,6.79,0,0,1,1,30.59H1a7,7,0,0,1-.73-1.83A8.51,8.51,0,0,1,0,26.81v0a9.56,9.56,0,0,1,.23-2.06,12.74,12.74,0,0,1,.66-2v0l9-21.13L10.54,0h9L18.06,3.55l-9,21.12a4.8,4.8,0,0,0-.28.86h0a2.5,2.5,0,0,0-.06.56v.06l.32,0h5.59a3.47,3.47,0,0,0,.75-.11h0a3.61,3.61,0,0,0,.75-.29h0a5.81,5.81,0,0,0,.83-.55h0a5.63,5.63,0,0,0,.74-.72l0,0a6.54,6.54,0,0,0,.67-.87h0a6.17,6.17,0,0,0,.51-1l9-21.13L28.58,0h9L36.1,3.55l-9,21.12-.08.2a4.59,4.59,0,0,0-.23.79l0,.5.33,0h5.58a3.42,3.42,0,0,0,.75-.11h0a3.76,3.76,0,0,0,.77-.3h0a5.3,5.3,0,0,0,.82-.54h0a5.49,5.49,0,0,0,.75-.72v0a6.72,6.72,0,0,0,.66-.86h0a7.4,7.4,0,0,0,.52-1L46,1.56,46.62,0Z"/><polygon class="f8fe5d62-0b80-4416-96fb-cdbabcbae011" points="399.36 34.2 413.89 0 500 0 485.46 34.2 399.36 34.2"/></svg>