<svg id="27de39cf-d600-428a-bf7f-4a2172970044" data-name="Layer 1" 
    xmlns="http://www.w3.org/2000/svg" viewBox="0 0 500 224.98">
    <defs>
        <style>.ec7765e7-5b33-4cba-9b18-625bdae488dd{fill:#231f20;}.\32 ec4d346-2af8-4251-80e0-508ede5b2741{fill:#ed1c24;}</style>
    </defs>
    <title>wurth</title>
    <g id="5dbef801-1c8d-4af4-ab68-35fd4707f8ef" data-name="layer1">
        <g id="909eb719-6738-41cc-8bc8-7c740cd3d1ca" data-name="g3429">
            <g id="063776a5-4e1b-4bb1-9121-6a7e18fd83f1" data-name="g3067">
                <path id="0aaa24ad-c872-4773-85a8-1c1eccebf12e" data-name="path3069" class="ec7765e7-5b33-4cba-9b18-625bdae488dd" d="M446,180.88a17.16,17.16,0,0,0,28.21,0h-6.83a12,12,0,0,1-14.55,0Zm-331.77,1.23a4,4,0,0,0-4,3.92,4.09,4.09,0,0,0,4,4,4,4,0,0,0,3.92-4A3.89,3.89,0,0,0,114.28,182.11Zm11.08,0a3.89,3.89,0,0,0-3.92,3.92,3.92,3.92,0,1,0,7.84,0A3.89,3.89,0,0,0,125.36,182.11ZM397.8,192.52c-4.42,0-8.09,1-11,3.25a15.23,15.23,0,0,0-5,7.16,21.8,21.8,0,0,0-.56,2.24c-.17.7-.36,1.27-.45,1.79a13.69,13.69,0,0,0-.11,1.57,16,16,0,0,0,4.7,12Q390.09,225,397.8,225a17,17,0,0,0,11.31-3.81c3-2.56,4.77-5,5.15-7.28s.53-3.7.56-4.25l.11-1.68a6.8,6.8,0,0,0-.22-1.46c-.05-.4-.31-1.58-.78-3.58H414c0-.18-.17-.36-.22-.56q-.83-3.57-5.15-6.72c-2.84-2.12-6.44-3.13-10.86-3.13Zm-321.36.67-3,9.74-2.91,9.29-.34-1.46-.34-1.46-1.79-5-.45-1.34-.11-.11-1.57-4.7-1.57-4.81H55.51l1,2.91,2.35,6.72.45,1.46,1.57,4.37L62.34,213c.56,1.49,1.34,3.62,2.24,6.38l.67,2.35.67,2.35h8.51l5.37-17.91,1.12,3.92.78,2.24c.23.76.41,1.33.56,1.68l.45,1.57.9,2.46c.32,1,.64,1.92.9,2.91l.34,1.57.34,1.57h8.51l.78-2.35.67-2.46,1.9-5.82,1.68-4.7.78-2.24,1.23-3.58,1.12-3,2.24-6.72h-9L92,202.93l-2.91,9-2.8-9-3-9.74H76.44Zm29.66,0v21c0,3.49,1.12,6,3.25,7.84s5.38,2.69,9.74,2.69c4.59,0,8.08-.88,10.52-2.69a9.19,9.19,0,0,0,3.69-7.84v-.78l.11-10.52.11-9.63H124.8v18.8a5.54,5.54,0,0,1-1.46,4.14,5.15,5.15,0,0,1-3.81,1.34c-3.11,0-4.59-2.11-4.59-6.38v-18h-8.84Zm31.57,0,.11,2.24.11,2.35v26.3h8.39l-.22-10.63,7.28,10.75h10.3l-8.28-12.76a9.21,9.21,0,0,0,3.47-3,7.44,7.44,0,0,0,1.34-3.36c.1-.94.1-1.68.11-2.13,0-.05,0-.06,0-.11a14,14,0,0,0,0-1.57,17.26,17.26,0,0,0-.56-2.24,6.14,6.14,0,0,0-1.46-2.8,7.92,7.92,0,0,0-2.91-2,11.42,11.42,0,0,0-3.13-.9c-1-.12-2.56-.11-4.59-.11h-10Zm49.47,0v1.9l.11,1.79v23.17l-.11,2-.11,2h9.07l-.11-1.46V212h9.85l.11,4.25-.11,4.14v3.69h9l-.11-1.57V196.66l.11-1.79v-1.68h-9v1.9l.11,1.79v6l-.11,1.79H196v-10l.11-1.57h-9Zm130.29,0-7.05,9.74-1.9,2.8V193.3h-9.07l.11,1.9.11,1.68v18.47l-.11,3.92v2.46l-.11,2.35h9.07v-1.79l-.11-1.68-.11-4.7.11-4.7,9.29,12.87h11.42L316.43,208.3l4.25-5.37,7.84-9.74H317.44Zm37.61,0,.11,2.24v2.35l.11,2.13v24.18h8.28l-.11-10.63,7.16,10.75H381l-8.39-12.76a9.59,9.59,0,0,0,3.58-3,7.1,7.1,0,0,0,1.23-3.36c.1-.94.21-1.68.22-2.13,0-.05,0-.06,0-.11a15.28,15.28,0,0,0-.56-3.81,6.45,6.45,0,0,0-1.57-2.8,8,8,0,0,0-2.91-2,11.37,11.37,0,0,0-3.13-.9c-1-.12-2.55-.11-4.59-.11H355Zm100.63,0v1.68l.11,1.79v16.12l-.11,5.6-.11,5.71h9.07v-1.79l-.11-1.79v-2.69l.11-4.81V198.23l.11-2.57.11-2.46h-9.18Zm32.12,0-6.94,9.74-2,2.8V193.3h-9v1.9l.11,1.68.11,2.57v15.89l-.11,3.92-.11,2.46-.11,2.35h9.07v-1.79l-.11-1.68v-9.4L488,224.08h11.42L486.79,208.3l4.37-5.37,7.72-9.74Zm-324.72.11v7.16h6.49v17.69l-.11,3-.11,3h8.84V200.47h6.49V193.3h-21.6Zm68.61,0v30.78h18.58V217H240.09v-4.93h8.62v-7.16h-8.62v-4.48h9.85V193.3Zm23.28,0v26.08l-.11,2.35-.11,2.35h18.58V217h-9.63V195.65l.11-2.35H255Zm21.94,0v30.78H295.5V217H285.31v-4.93h8.51v-7.16h-8.51v-4.48H295V193.3Zm53.5,0v7.16h6.49v17.69l-.22,3v3h8.84V200.47H352V193.3Zm110,0,.34,9.63.22,9.29-.45-.78-.45-.67c-.29-.49-1-1.57-2.13-3.13l-1.79-2.24-1.9-2.46-3-4c-1.54-1.92-2.58-3.3-3.13-4.14l-1-1.34h-8.84l.11,2.57v24.18l-.11,3.92h9l-.11-4.14-.11-4.25V211l-.11-2.46-.11-2-.22-1.57.67,1.23.67,1.12,2.13,2.8,2.57,3.47,1,1.34,1.34,1.68,3.36,4.59,1,1.46,1,1.57h9.07V193.3h-9Zm-43,6.49a8.44,8.44,0,0,1,6,2.24,6.78,6.78,0,0,1,.9.9,8.41,8.41,0,0,1,1.46,5.26,10.75,10.75,0,0,1-2.13,7.05,6.86,6.86,0,0,1-5.6,2.57,11.62,11.62,0,0,1-3.69-.67,7,7,0,0,1-3.25-2.46,7.72,7.72,0,0,1-1.46-4.7v-1.79a8.87,8.87,0,0,1,1.57-5.26,6.74,6.74,0,0,1,.56-.78A7.42,7.42,0,0,1,397.47,199.79Zm-251.4.45H148a4.68,4.68,0,0,1,2.69.56,3.24,3.24,0,0,1,1,2.13c0,.19.08.45.11.67l-.11.78a3.49,3.49,0,0,1-3.58,2.57h-2v-6.72Zm217.26,0h2a4.28,4.28,0,0,1,2.57.56,3.23,3.23,0,0,1,1.12,2.13c0,.19.08.45.11.67l-.11.78a3.49,3.49,0,0,1-3.58,2.57h-2.13v-6.72Z"/>
            </g>
            <g id="a0be0b06-2967-44ce-b554-9c2ee9077460" data-name="g3075">
                <path id="f61c7729-7d0a-47c1-9a1b-36fd6f96d5be" data-name="path3077" class="ec7765e7-5b33-4cba-9b18-625bdae488dd" d="M446.05,180.9a17,17,0,0,1-2.89-7.28H0v-5H443.16a17.19,17.19,0,0,1,34,0H500v5H477.18a17.15,17.15,0,0,1-2.89,7.3l-6.83,0a12.2,12.2,0,1,0-14.59,0Zm-2.89-90a17.19,17.19,0,0,1,34,0H500v5H477.18a17.19,17.19,0,0,1-34,0H302.57l2.92-5ZM448,93.4a12.19,12.19,0,1,0,12.19-12.19A12.19,12.19,0,0,0,448,93.4M0,90.9H42.47l.26,5H0Zm385.76,38.86a17.19,17.19,0,0,1,34,0H500v5H419.77a17.19,17.19,0,0,1-34,0h-106l3-5Zm4.82,2.5a12.19,12.19,0,1,0,12.19-12.19,12.19,12.19,0,0,0-12.19,12.19M0,129.76H44.5l.26,5H0ZM385.76,52a17.19,17.19,0,0,1,34,0H500v5H419.77a17.19,17.19,0,0,1-34,0H325.51l2.94-5Zm4.82,2.5a12.19,12.19,0,1,0,12.19-12.19,12.19,12.19,0,0,0-12.19,12.19M0,52H40.44l.26,5H0ZM443.16,14.69a17.19,17.19,0,0,1,34,0H500v5H477.18a17.19,17.19,0,0,1-34,0H0v-5Zm4.82,2.5A12.19,12.19,0,1,0,460.17,5,12.19,12.19,0,0,0,448,17.19"/>
            </g>
            <g id="79a5f3ca-19dd-49a3-b7df-2d973370ac60" data-name="g3079">
                <path id="fb16ab3a-2133-4eb8-8214-167d33f88cd7" data-name="path3081" class="2ec4d346-2af8-4251-80e0-508ede5b2741" d="M49,24.69H84l3.41,72.09,15.34-21.37H139l3.84,22.16,43.47-72.89h39.21l-81.41,139h-35.8l-3.41-23.87L89.08,163.64H56.26Zm186.27,0-81,139h98.37l20-33.89H213.88l11.66-19.81h58.82l20.2-34.52H246l9.82-16.15H314.2l20.35-34.57Z"/>
            </g>
        </g>
    </g>
</svg>